<svg xmlns="http://www.w3.org/2000/svg" width="332" height="330.896" viewBox="0 0 332 330.896">
  <g id="Illustration_2" data-name="Illustration 2" transform="translate(-22 -112.137)">
    <path id="Path_6162" data-name="Path 6162" d="M207.964,402.395h229.79a166,166,0,1,0-229.79,0Z" transform="translate(-134.859 -4.452)" fill="rgba(61,172,220,0.16)"/>
    <path id="Path_5872" data-name="Path 5872" d="M195.009,329.945h171.54a123.92,123.92,0,1,0-171.54,0Z" transform="translate(-92.859 47.055)" fill="rgba(61,172,220,0.16)"/>
    <g id="_Group_" data-name="&lt;Group&gt;" transform="translate(36.116 120.431)">
      <g id="_Group_2" data-name="&lt;Group&gt;" transform="translate(-10 0)">
        <g id="_Group_3" data-name="&lt;Group&gt;" transform="translate(25.884 4.554)">
          <g id="_Group_4" data-name="&lt;Group&gt;" transform="translate(8.401 118.277)">
            <g id="_Group_5" data-name="&lt;Group&gt;" transform="translate(42.201 164.213)">
              <g id="_Group_6" data-name="&lt;Group&gt;" transform="translate(0 18.805)">
                <path id="_Path_" data-name="&lt;Path&gt;" d="M977.94,1009.8h13.334l22.029,11.771-37.9-.44Z" transform="translate(-975.254 -1009.8)"/>
                <g id="_Group_7" data-name="&lt;Group&gt;" transform="translate(0 11.332)">
                  <path id="_Path_2" data-name="&lt;Path&gt;" d="M975.1,1037.982l.147-4.982,37.9.44-.1,4.982Z" transform="translate(-975.1 -1033)" fill="#fff"/>
                </g>
              </g>
              <path id="_Path_3" data-name="&lt;Path&gt;" d="M992.379,971.3H978.8l.879,18.8h13.579Z" transform="translate(-976.993 -971.3)" fill="#c97b5f"/>
            </g>
            <g id="_Group_8" data-name="&lt;Group&gt;" transform="translate(0.782 164.213)">
              <g id="_Group_9" data-name="&lt;Group&gt;" transform="translate(0 18.805)">
                <path id="_Path_4" data-name="&lt;Path&gt;" d="M893.04,1009.8h13.334l22.077,11.771-37.952-.44Z" transform="translate(-890.402 -1009.8)"/>
                <g id="_Group_10" data-name="&lt;Group&gt;" transform="translate(0 11.332)">
                  <path id="_Path_5" data-name="&lt;Path&gt;" d="M890.3,1037.982l.1-4.982,37.952.44-.147,4.982Z" transform="translate(-890.3 -1033)" fill="#fff"/>
                </g>
              </g>
              <path id="_Path_6" data-name="&lt;Path&gt;" d="M911.135,971.3H897.507L895.7,990.1h13.579Z" transform="translate(-893.062 -971.3)" fill="#c97b5f"/>
            </g>
            <g id="_Group_11" data-name="&lt;Group&gt;">
              <path id="_Path_7" data-name="&lt;Path&gt;" d="M896.466,687.509c-1.026-22.761,2.979-34.63,4.689-42.006l.244-3.37.586-.1a6.38,6.38,0,0,0,.2-.684l.2.586,22.81-5.275L949.12,635.1l.977,16.656c.146,4.884.537,32.237.244,37.121l-.1,122.647H926.115l-.977-126.506L911.51,811.524l-22.81-.537Z" transform="translate(-888.7 -635.1)" fill="#55e1bb"/>
              <g id="_Group_12" data-name="&lt;Group&gt;" transform="translate(8.01 27.353)">
                <path id="_Path_8" data-name="&lt;Path&gt;" d="M958.682,691.1v3.907L905.1,697.84l.781-5.91Z" transform="translate(-905.1 -691.1)" fill="#0b8"/>
                <path id="_Path_9" data-name="&lt;Path&gt;" d="M963.4,735.407l11.088-1.807" transform="translate(-934.924 -712.841)" fill="none" stroke="#0b8" stroke-linecap="round" stroke-linejoin="round" stroke-width="1"/>
              </g>
            </g>
          </g>
          <g id="_Group_13" data-name="&lt;Group&gt;" transform="translate(0 56.832)">
            <g id="_Group_14" data-name="&lt;Group&gt;" transform="translate(13.041)">
              <path id="_Path_10" data-name="&lt;Path&gt;" d="M923.6,509.847l-14.36.684c-1.954,0-5.715,2.686-5.471,6.5.44,8.45-5.568,83.718-5.568,83.718l59.345-.879-1.123-80.2c-.1-2.638-.733-7.082-3.273-7.668l-14.458-2.3Z" transform="translate(-898.2 -509.505)" fill="#55e1bb"/>
              <path id="_Path_11" data-name="&lt;Path&gt;" d="M940.7,509.788l7.815-.488,11.918.2,4.152.684-3.614,13.237Z" transform="translate(-919.941 -509.3)" fill="#c97b5f"/>
              <path id="_Path_12" data-name="&lt;Path&gt;" d="M941.7,560.727h14.067V553.4H941.7Z" transform="translate(-920.453 -531.86)" fill="#fff"/>
            </g>
            <g id="_Group_15" data-name="&lt;Group&gt;" transform="translate(21.442 2.491)">
              <path id="_Path_13" data-name="&lt;Path&gt;" d="M1030.548,589.5l3.761,15.923c1.417,6.35-3.956,10.453-8.938,11.136a8.637,8.637,0,0,1-9.671-6.887l.2-19.049Z" transform="translate(-966.71 -552.818)" fill="#c97b5f"/>
              <g id="_Group_16" data-name="&lt;Group&gt;" transform="translate(46.548)">
                <path id="_Path_14" data-name="&lt;Path&gt;" d="M1010.7,514.4c.342.1,13.579-.147,19.587,39.612l-16.9,3.859Z" transform="translate(-1010.7 -514.4)" fill="#55e1bb"/>
                <path id="_Path_15" data-name="&lt;Path&gt;" d="M1015.793,579.993,1015.5,560.7" transform="translate(-1013.156 -538.085)" fill="none" stroke="#0b8" stroke-linecap="round" stroke-linejoin="round" stroke-width="1"/>
              </g>
              <g id="_Group_17" data-name="&lt;Group&gt;" transform="translate(0 38.918)">
                <path id="_Path_16" data-name="&lt;Path&gt;" d="M986.08,625.049s-23.4-6.057-43.08-15.142L948.08,606l35.9,4.64Z" transform="translate(-929.519 -600.177)" fill="#c97b5f"/>
                <path id="_Path_17" data-name="&lt;Path&gt;" d="M936.11,601.024s-12.748-15.63-19.245,0l-1.465,3.224,8.059,3.956,9.769-2.052Z" transform="translate(-915.4 -594.078)" fill="#c97b5f"/>
                <path id="_Path_18" data-name="&lt;Path&gt;" d="M992.6,605.8c.44.049,6.057-8.645,14.165-4.347,8.157,4.3,3.126,9.915,3.126,9.915Z" transform="translate(-954.893 -597.238)" fill="#c97b5f"/>
                <path id="_Path_19" data-name="&lt;Path&gt;" d="M993.5,611.293s12.944-.293,21.589,3.126" transform="translate(-955.353 -602.881)" fill="none" stroke="#ad644a" stroke-linecap="round" stroke-linejoin="round" stroke-width="1"/>
                <path id="_Path_20" data-name="&lt;Path&gt;" d="M1020.9,602.4a8.191,8.191,0,0,1,5.031,6.4" transform="translate(-969.37 -598.335)" fill="none" stroke="#ad644a" stroke-linecap="round" stroke-linejoin="round" stroke-width="1"/>
              </g>
            </g>
            <g id="_Group_18" data-name="&lt;Group&gt;" transform="translate(0 1.856)">
              <g id="_Group_19" data-name="&lt;Group&gt;">
                <path id="_Path_21" data-name="&lt;Path&gt;" d="M893.284,513.1s-15.435,1.075-21.784,41.908l22.908,4.591Z" transform="translate(-871.5 -513.1)" fill="#55e1bb"/>
                <path id="_Path_22" data-name="&lt;Path&gt;" d="M918.4,586.866l4.4-20.466" transform="translate(-895.492 -540.366)" fill="none" stroke="#0b8" stroke-linecap="round" stroke-linejoin="round" stroke-width="1"/>
              </g>
              <g id="_Group_20" data-name="&lt;Group&gt;" transform="translate(3.468 42.983)">
                <path id="_Path_23" data-name="&lt;Path&gt;" d="M898.04,604.617v1.905l14.653.44,15.581,7.815s-23.787,8.694-40.2,7.278a10.344,10.344,0,0,1-9.476-10.013,12.74,12.74,0,0,1,.244-2.344l1.758-8.6Z" transform="translate(-878.6 -601.1)" fill="#c97b5f"/>
                <path id="_Path_24" data-name="&lt;Path&gt;" d="M948.634,618.46l-15.581-7.815A98.221,98.221,0,0,1,918.4,608.3" transform="translate(-898.96 -604.783)" fill="none" stroke="#ad644a" stroke-linecap="round" stroke-linejoin="round" stroke-width="1"/>
              </g>
            </g>
          </g>
          <g id="_Group_21" data-name="&lt;Group&gt;" transform="translate(28.842)">
            <path id="_Path_25" data-name="&lt;Path&gt;" d="M940.929,404.893a8.1,8.1,0,0,0-9.622,5.519c-3.517,9.573,6.35,20.417,6.35,20.417Z" transform="translate(-930.549 -398.957)"/>
            <path id="_Path_26" data-name="&lt;Path&gt;" d="M951.846,403.132s-3.419-5.666,2.345-8.841c5.763-3.224,8.694.146,14.067,1.807,5.422,1.661,11.43-2.589,15.142,3.761,4.347,7.473-6.545,20.759-6.545,20.759Z" transform="translate(-940.928 -392.946)"/>
            <path id="_Path_27" data-name="&lt;Path&gt;" d="M997.189,447.242a4.681,4.681,0,1,0,3.517-5.568,4.706,4.706,0,0,0-3.517,5.568Z" transform="translate(-964.586 -417.812)" fill="#b26a54"/>
            <path id="_Path_28" data-name="&lt;Path&gt;" d="M967.1,461.762l.635,17.975L952.3,479.3l4.005-29.7Z" transform="translate(-941.676 -421.928)" fill="#c97b5f"/>
            <path id="_Path_29" data-name="&lt;Path&gt;" d="M972.76,483.923,962.6,472.2l9.818,1.954Z" transform="translate(-946.945 -433.489)" fill="#b26a54"/>
            <path id="_Path_30" data-name="&lt;Path&gt;" d="M975.365,410.06c4.689.635,6.985,5.617,7.473,10.111.537,5.177.391,13.383-1.221,17.291-2.491,6.057-8.3,9.329-16.265,7.18,0,0-8.645-1.123-9.525-15.142-1.026-16.656,9.476-20.759,19.538-19.44Z" transform="translate(-943.445 -401.584)" fill="#c97b5f"/>
            <g id="_Group_22" data-name="&lt;Group&gt;" transform="translate(13.262 17.01)">
              <path id="_Path_31" data-name="&lt;Path&gt;" d="M1005.583,443.954a1.023,1.023,0,0,0,1.221.83,1.056,1.056,0,0,0,.879-1.221,1.1,1.1,0,0,0-1.27-.879,1.071,1.071,0,0,0-.83,1.27Z" transform="translate(-982.187 -435.393)"/>
              <path id="_Path_32" data-name="&lt;Path&gt;" d="M987.084,443.954a1.071,1.071,0,0,0,1.27.83,1.023,1.023,0,0,0,.83-1.221,1.056,1.056,0,0,0-1.221-.879,1.1,1.1,0,0,0-.879,1.27Z" transform="translate(-972.724 -435.393)"/>
              <path id="_Path_33" data-name="&lt;Path&gt;" d="M1001.177,450.8l.928,3.273-1.905.537" transform="translate(-979.441 -439.552)" fill="none" stroke="#000" stroke-linecap="round" stroke-linejoin="round" stroke-width="1"/>
              <path id="_Path_34" data-name="&lt;Path&gt;" d="M1003.64,428.665s-.439,1.27,1.124,1.514a10.951,10.951,0,0,1,2.638.635.927.927,0,0,0,1.074-.342.9.9,0,0,0,0-.928,4.188,4.188,0,0,0-2.638-1.71C1003.982,427.493,1003.64,428.665,1003.64,428.665Z" transform="translate(-981.172 -427.772)"/>
              <path id="_Path_35" data-name="&lt;Path&gt;" d="M984.663,428.73s.489,1.27-1.514,1.514a21.416,21.416,0,0,0-4.3,1.026,1.282,1.282,0,0,1-1.319-.342.681.681,0,0,1,.049-.928,8.5,8.5,0,0,1,4.3-2.149C984.272,427.558,984.663,428.73,984.663,428.73Z" transform="translate(-967.763 -427.788)"/>
              <path id="_Path_36" data-name="&lt;Path&gt;" d="M995.075,463.07s-3.272.684-5.275-1.27" transform="translate(-974.121 -445.179)" fill="none" stroke="#000" stroke-linecap="round" stroke-linejoin="round" stroke-width="1"/>
              <g id="_Group_23" data-name="&lt;Group&gt;" transform="translate(0 8.854)">
                <path id="_Path_37" data-name="&lt;Path&gt;" d="M982.012,454.7s-14.946,1.27-20.612,7.571c0,0,1.612,5.275,10.355,6.057a13.777,13.777,0,0,0,8.6-2.1,12.79,12.79,0,0,0,5.031-8.987Z" transform="translate(-959.593 -450.402)" fill="#81c2c2"/>
                <path id="_Path_38" data-name="&lt;Path&gt;" d="M960.3,445.9l7.864,8.45" transform="translate(-959.03 -445.9)" fill="none" stroke="#5fbba6" stroke-width="1"/>
                <path id="_Path_39" data-name="&lt;Path&gt;" d="M957.7,459.3l2.491,5.959" transform="translate(-957.7 -452.755)" fill="none" stroke="#5fbba6" stroke-width="1"/>
              </g>
              <g id="_Group_24" data-name="&lt;Group&gt;" transform="translate(0.635 3.579)">
                <g id="_Group_25" data-name="&lt;Group&gt;" transform="translate(7.717)">
                  <path id="_Path_40" data-name="&lt;Path&gt;" d="M974.8,440.668a5.568,5.568,0,1,0,5.568-5.568A5.566,5.566,0,0,0,974.8,440.668Z" transform="translate(-974.8 -435.1)" fill="none" stroke="#fff" stroke-width="1"/>
                  <path id="_Path_41" data-name="&lt;Path&gt;" d="M1003.8,440.975c0,2.882,1.807,5.275,4.005,5.275,2.247,0,4.005-2.393,4.005-5.275,0-2.931-1.758-5.275-4.005-5.275C1005.607,435.7,1003.8,438.044,1003.8,440.975Z" transform="translate(-989.635 -435.407)" fill="none" stroke="#fff" stroke-width="1"/>
                  <path id="_Path_42" data-name="&lt;Path&gt;" d="M1000.677,445.7a2.808,2.808,0,0,0-3.077.2" transform="translate(-986.464 -440.328)" fill="none" stroke="#fff" stroke-width="1"/>
                </g>
                <path id="_Path_43" data-name="&lt;Path&gt;" d="M959,445.8h7.717" transform="translate(-959 -440.574)" fill="none" stroke="#fff" stroke-width="1"/>
              </g>
            </g>
            <path id="_Path_44" data-name="&lt;Path&gt;" d="M948.768,427.737,945.2,414.745c1.514-3.419,3.81-2.931,3.81-2.931-.049-.2,3.126-1.758,3.077-2,12.7-9.72,19.635-.977,19.635-.977s-3.712-9.329-19.244-8.059c-10.941.83-14.458,4.542-14.018,11.674.879,14.214,2.589,15.532,8.987,25.057Z" transform="translate(-934.579 -396.89)"/>
            <path id="_Path_45" data-name="&lt;Path&gt;" d="M950.512,415.7s6.35,4.982,2.882,11.674l-1.075,5.959-7.62-8.206,1.9-9.036Z" transform="translate(-937.788 -404.586)"/>
            <path id="_Path_46" data-name="&lt;Path&gt;" d="M977.851,408.264s-4.152-2.882-6.985.733c-5.715,7.327-16.412,8.059-17.535-.488s12.6-5.91,12.6-5.91S975.262,404.893,977.851,408.264Z" transform="translate(-942.17 -397.687)"/>
            <g id="_Group_26" data-name="&lt;Group&gt;" transform="translate(5.805 23.747)">
              <path id="_Path_47" data-name="&lt;Path&gt;" d="M942.564,447.834a5.131,5.131,0,0,0,10.013-2.247,5.131,5.131,0,1,0-10.013,2.247Z" transform="translate(-942.434 -441.565)" fill="#c97b5f"/>
              <path id="_Path_48" data-name="&lt;Path&gt;" d="M948.4,448.63a3.742,3.742,0,0,1,4.542,3.37" transform="translate(-945.486 -445.145)" fill="none" stroke="#000" stroke-linecap="round" stroke-linejoin="round" stroke-width="1"/>
            </g>
          </g>
        </g>
      </g>
      <g id="_Group_27" data-name="&lt;Group&gt;" transform="translate(-1252.09 -731.386)">
        <g id="_Group_28" data-name="&lt;Group&gt;" transform="translate(1380.528 830.68)">
          <g id="_Group_29" data-name="&lt;Group&gt;" transform="translate(42.288)">
            <path id="_Path_49" data-name="&lt;Path&gt;" d="M1429.5,845.978l2.586,43.956a7.762,7.762,0,0,0,15.514-.554l-1.385-44.88Z" transform="translate(-1427.74 -836.368)" fill="#e9a88c"/>
            <path id="_Path_50" data-name="&lt;Path&gt;" d="M1428.061,862.849s-3.417-26.872,8.219-27.149c15.606-.462,13.944,29.643,13.944,27.334Z" transform="translate(-1427.594 -835.694)" fill="#3471b7"/>
          </g>
          <g id="_Group_30" data-name="&lt;Group&gt;" transform="translate(0 47.563)">
            <path id="_Path_51" data-name="&lt;Path&gt;" d="M1401,901.329l34.722-14.129,2.955,13.39-34.906,7.018Z" transform="translate(-1383.27 -887.2)" fill="#e9a88c"/>
            <path id="_Path_52" data-name="&lt;Path&gt;" d="M1399.53,902.4s-13.205-5.91-17.73,8.4c2.493,1.293,5.448.277,8.219.369,0,0,6.834-1.755,12.282-2.493l2.493-5.541Z" transform="translate(-1381.8 -888.271)" fill="#e9a88c"/>
          </g>
        </g>
        <g id="_Group_31" data-name="&lt;Group&gt;" transform="translate(1370.121 780.08)">
          <path id="_Path_53" data-name="&lt;Path&gt;" d="M1488.045,1032.324H1453.6V954.2h34.445Z" transform="translate(-1376.889 -794.166)" fill="#668be0"/>
          <g id="_Group_32" data-name="&lt;Group&gt;">
            <path id="_Path_54" data-name="&lt;Path&gt;" d="M1470.737,926.9l-92.437.185,21.147,9.234,94.192-.185Z" transform="translate(-1371.125 -792.076)" fill="#3259b3"/>
            <path id="_Path_55" data-name="&lt;Path&gt;" d="M1392.111,950.188l-18.839-9.327a7.819,7.819,0,0,1-.739-11.174c2.863-3.324,6.833-3.232,11.174-.831l18.838,7.942c3.324,2.863,3.694,9.234.831,12.559C1400.422,952.681,1397.559,952.127,1392.111,950.188Z" transform="translate(-1370.53 -792.093)" fill="#80a1f2"/>
            <path id="_Path_56" data-name="&lt;Path&gt;" d="M1425.2,935.511V898.2a9.577,9.577,0,0,1,9.512-9.6h61.5" transform="translate(-1374.715 -789.144)" fill="none" stroke="#fff" stroke-linecap="round" stroke-linejoin="round" stroke-width="6"/>
            <path id="_Path_57" data-name="&lt;Path&gt;" d="M1559.941,780.9h-19.485a14.371,14.371,0,0,0-13.205,8.865L1478.4,915.724l23.178,9.419Z" transform="translate(-1378.787 -780.9)" fill="#668be0"/>
            <g id="_Group_33" data-name="&lt;Group&gt;" transform="translate(21.858 0.046)">
              <path id="_Path_58" data-name="&lt;Path&gt;" d="M1499.75,952.876h-97.516a7.988,7.988,0,1,1,0-15.976h97.516a7.988,7.988,0,0,1,0,15.976Z" transform="translate(-1394.2 -792.888)" fill="#81c2c2"/>
              <path id="_Path_59" data-name="&lt;Path&gt;" d="M1568.662,791.246l-53.468,144.8a7.562,7.562,0,0,1-14.036-5.633l53.56-144.7a7.6,7.6,0,0,1,9.789-4.248A7.48,7.48,0,0,1,1568.662,791.246Z" transform="translate(-1402.349 -780.95)" fill="#81c2c2"/>
            </g>
          </g>
          <path id="_Path_60" data-name="&lt;Path&gt;" d="M1475.9,1032.324h-30.2V954.2h30.2Z" transform="translate(-1376.285 -794.166)" fill="#80a1f2"/>
          <path id="_Path_61" data-name="&lt;Path&gt;" d="M1490.053,961.865H1436.4V954.2h53.652Z" transform="translate(-1375.573 -794.166)" fill="#668be0"/>
          <g id="_Group_34" data-name="&lt;Group&gt;" transform="translate(17.425 238.158)">
            <path id="_Path_62" data-name="&lt;Path&gt;" d="M1476.2,1062.717h-86.8v-3.694a20.139,20.139,0,0,1,20.131-20.224h58.639a7.981,7.981,0,0,1,8.034,8.034Z" transform="translate(-1389.4 -1038.8)" fill="#668be0"/>
            <path id="_Path_63" data-name="&lt;Path&gt;" d="M1503.5,1062.717h-86.9v-3.694a20.218,20.218,0,0,1,20.224-20.224h58.639a8.04,8.04,0,0,1,8.034,8.034Z" transform="translate(-1391.482 -1038.8)" fill="#81c2c2"/>
          </g>
        </g>
        <g id="_Group_35" data-name="&lt;Group&gt;" transform="translate(1365.187 770.187)">
          <g id="_Group_36" data-name="&lt;Group&gt;" transform="translate(0 112.119)">
            <g id="_Group_37" data-name="&lt;Group&gt;">
              <g id="_Group_38" data-name="&lt;Group&gt;">
                <g id="_Group_39" data-name="&lt;Group&gt;" transform="translate(19.551 59.193)">
                  <g id="_Group_40" data-name="&lt;Group&gt;" transform="translate(0 39.154)">
                    <path id="_Path_64" data-name="&lt;Path&gt;" d="M1390.922,1021.716l-4.34,9.234a2.694,2.694,0,0,0,.646,3.047c.739.554,1.755.646,3.417-.462,3.6-2.493,21.332-19.393,21.332-19.393l1.478,2.032,7.48-5.356s-7.2-10.8-10.435-10.62Z" transform="translate(-1386.359 -998.261)"/>
                    <path id="_Path_65" data-name="&lt;Path&gt;" d="M1400.627,1004.749l-9.327,16.807s7.665-.092,11.451-6.464,8.126-15.052,8.126-15.052l-2.955-1.939Z" transform="translate(-1386.738 -998.1)" fill="#e09069"/>
                  </g>
                  <path id="_Path_66" data-name="&lt;Path&gt;" d="M1410.64,996.794l-7.11-41.094-15.329,7.665,13.113,42.386Z" transform="translate(-1386.5 -955.7)" fill="#e09069"/>
                </g>
                <g id="_Group_41" data-name="&lt;Group&gt;">
                  <path id="_Path_67" data-name="&lt;Path&gt;" d="M1366.1,929.112l20.778,61.779,26.965-5.725L1392.511,918.4Z" transform="translate(-1365.257 -893.651)" fill="#341803"/>
                  <path id="_Path_68" data-name="&lt;Path&gt;" d="M1452.28,891.6s24.194,32.044-5.818,41.832H1378.4c-5.448,0-10.343-1.2-12.374-6.372a13.341,13.341,0,0,1,9.881-17.73l59.1-5.264-.462-12.467Z" transform="translate(-1365.187 -891.6)" fill="#341803"/>
                </g>
              </g>
              <g id="_Group_42" data-name="&lt;Group&gt;" transform="translate(9.801 26.78)">
                <g id="_Group_43" data-name="&lt;Group&gt;" transform="translate(16.807 35.645)">
                  <g id="_Group_44" data-name="&lt;Group&gt;" transform="translate(2.799 42.202)">
                    <path id="_Path_69" data-name="&lt;Path&gt;" d="M1400.881,1029.608l-3.694,9.512a2.5,2.5,0,0,0,.923,2.955c.739.554,1.755.554,3.324-.646,3.417-2.77,19.946-20.87,19.946-20.87l1.662,1.939,7.018-5.818s-7.849-10.343-11.081-9.881Z" transform="translate(-1397.031 -1005.044)"/>
                    <path id="_Path_70" data-name="&lt;Path&gt;" d="M1409.234,1011.826l-8.034,17.638s7.665-.646,10.989-7.3c3.417-6.649,7.11-15.514,7.11-15.514l-3.14-1.755Z" transform="translate(-1397.35 -1004.9)" fill="#e9a88c"/>
                  </g>
                  <path id="_Path_71" data-name="&lt;Path&gt;" d="M1418.749,1003.156,1407.39,959.2,1394,971.39l15.976,41.371Z" transform="translate(-1394 -959.2)" fill="#e9a88c"/>
                </g>
                <path id="_Path_72" data-name="&lt;Path&gt;" d="M1375.8,928.542l23.271,70.275,20.316-8.5L1402.026,920.6Z" transform="translate(-1375.8 -920.6)" fill="#3f1d04"/>
              </g>
              <g id="_Group_45" data-name="&lt;Group&gt;" transform="translate(9.199 0)">
                <path id="_Path_73" data-name="&lt;Path&gt;" d="M1462.185,891.6s19.115,24.748,2.4,37.677a20.331,20.331,0,0,1-12.559,4.156H1388.4c-5.541,0-10.435-1.2-12.374-6.372-2.955-7.665,1.847-17.453,9.881-19.023l44.233-5.264,4.71-11.174Z" transform="translate(-1375.149 -891.6)" fill="#3f1d04"/>
                <path id="_Path_74" data-name="&lt;Path&gt;" d="M1407.6,936.9h-7.3" transform="translate(-1377.074 -895.068)" fill="none" stroke="#fff" stroke-linecap="round" stroke-linejoin="round" stroke-width="0.7"/>
              </g>
            </g>
          </g>
          <g id="_Group_46" data-name="&lt;Group&gt;" transform="translate(50.432 52.002)">
            <g id="_Group_47" data-name="&lt;Group&gt;" transform="translate(12.051)">
              <path id="_Path_75" data-name="&lt;Path&gt;" d="M1475.1,834.9c-4.432-2.77-13.759-7.849-23.64-8.4a46.7,46.7,0,0,0-18.1,9.6c-1.293,1.016.277,18.746.369,20.408l6,30.012h27.888l12.189-32.6a17.179,17.179,0,0,0-3.878-18.284,6.439,6.439,0,0,0-.831-.739Z" transform="translate(-1432.849 -826.5)" fill="#3471b7"/>
              <g id="_Group_48" data-name="&lt;Group&gt;" transform="translate(0.383 0.092)">
                <path id="_Path_76" data-name="&lt;Path&gt;" d="M1463.677,829.093s-6.649-2.4-11.82-2.493c0,0-2.77.369-7.757,2.955,0,0,1.108,9.142,4.063,9.05C1450.934,838.6,1463.677,829.093,1463.677,829.093Z" transform="translate(-1434.093 -826.6)" fill="#e9a88c"/>
                <path id="_Path_77" data-name="&lt;Path&gt;" d="M1434.867,863.776a40.919,40.919,0,0,1-1.385-15.976" transform="translate(-1433.264 -828.223)" fill="none" stroke="#2758a3" stroke-width="0.7"/>
              </g>
            </g>
            <g id="_Group_49" data-name="&lt;Group&gt;" transform="translate(0 6.989)">
              <g id="_Group_50" data-name="&lt;Group&gt;" transform="translate(0 48.049)">
                <path id="_Path_78" data-name="&lt;Path&gt;" d="M1438.8,899.582l34.168-13.482,3.6,13.3-34.63,6.464Z" transform="translate(-1421.255 -886.1)" fill="#e9a88c"/>
                <path id="_Path_79" data-name="&lt;Path&gt;" d="M1437.346,900.5s-8.865-7.665-17.546,4.433a18.25,18.25,0,0,0,7.849,2.216,64.572,64.572,0,0,0,12.836-.369l2.124-5.725Z" transform="translate(-1419.8 -887.019)" fill="#e9a88c"/>
              </g>
              <g id="_Group_51" data-name="&lt;Group&gt;" transform="translate(39.939)">
                <path id="_Path_80" data-name="&lt;Path&gt;" d="M1465.9,844.2l3.694,44.972a7.8,7.8,0,0,0,9.05,6.926,7.677,7.677,0,0,0,6.372-8.219L1481.506,843Z" transform="translate(-1463.268 -834.752)" fill="#e9a88c"/>
                <g id="_Group_52" data-name="&lt;Group&gt;">
                  <path id="_Path_81" data-name="&lt;Path&gt;" d="M1464.112,862.263s-4.987-27.242,6.649-28.165c15.514-1.108,15.7,29.55,15.514,27.242Z" transform="translate(-1463.05 -834.068)" fill="#3471b7"/>
                  <path id="_Path_82" data-name="&lt;Path&gt;" d="M1466.886,863.551l-2.77.092L1463.1,852.1" transform="translate(-1463.054 -835.449)" fill="none" stroke="#2758a3" stroke-width="0.7"/>
                </g>
              </g>
            </g>
          </g>
          <g id="_Group_53" data-name="&lt;Group&gt;" transform="translate(61.824)">
            <path id="_Path_83" data-name="&lt;Path&gt;" d="M1434.2,787.095s.646-16.9,20.131-12.651c19.485,4.34,15.606,21.424,8.773,26.872Z" transform="translate(-1432.294 -770.46)"/>
            <path id="_Path_84" data-name="&lt;Path&gt;" d="M1436.7,789.966a14.467,14.467,0,1,0,15.052-13.667A14.413,14.413,0,0,0,1436.7,789.966Z" transform="translate(-1432.484 -770.654)"/>
            <g id="_Group_54" data-name="&lt;Group&gt;" transform="translate(0 25.452)">
              <path id="_Path_85" data-name="&lt;Path&gt;" d="M1441.43,803.706c-.554,2.678-2.955,3.6-5.633,3.324-2.586-.277-3.971-2.863-3.6-6.372.37-2.678,2.955-3.324,5.541-2.678A4.7,4.7,0,0,1,1441.43,803.706Z" transform="translate(-1432.136 -797.749)" fill="#e09069"/>
            </g>
            <path id="_Path_86" data-name="&lt;Path&gt;" d="M1455.842,806l2.124,23.456-11.266,2.493.37-22.44Z" transform="translate(-1433.251 -772.928)" fill="#e9a88c"/>
            <path id="_Path_87" data-name="&lt;Path&gt;" d="M1446.9,820.774s5.633-2.216,9.7-11.174l-9.6,2.955Z" transform="translate(-1433.266 -773.204)" fill="#e09069"/>
            <path id="_Path_88" data-name="&lt;Path&gt;" d="M1444.235,778.2s-10.62-.092-10.435,13.852c.185,14.036,2.863,18.1,7.111,20.685,3.878,2.309,12.559.739,16.53-5.079,1.478-2.216,1.57-5.264,1.939-8.034l.923-3.6s5.264-17.915-16.068-17.823Z" transform="translate(-1432.263 -770.8)" fill="#e9a88c"/>
            <path id="_Path_89" data-name="&lt;Path&gt;" d="M1459.589,780.4s-6.095,10.527.554,19.023l5.541-6.556,2.216-9.881Z" transform="translate(-1434.042 -770.969)"/>
            <g id="_Group_55" data-name="&lt;Group&gt;" transform="translate(24.719 25.84)">
              <path id="_Path_90" data-name="&lt;Path&gt;" d="M1458.993,804.2c.462,2.586,2.493,3.694,5.079,3.232,2.678-.462,4.34-3.509,3.878-6.095-.462-2.678-2.77-3.509-5.448-3.047-2.586.462-3.971,3.232-3.509,5.91Z" transform="translate(-1458.905 -798.169)" fill="#e9a88c"/>
            </g>
            <path id="_Path_91" data-name="&lt;Path&gt;" d="M1437.7,781.022s2.77-3.509,4.894,1.477c2.216,5.171,11.543,10.527,19.115,5.264v-8.219s-18.838-7.849-24.01,1.478Z" transform="translate(-1432.562 -770.667)"/>
            <path id="_Path_92" data-name="&lt;Path&gt;" d="M1483.954,781.188a10.537,10.537,0,1,1-10.066-10.989A10.532,10.532,0,0,1,1483.954,781.188Z" transform="translate(-1434.49 -770.187)"/>
            <g id="_Group_56" data-name="&lt;Group&gt;" transform="translate(0.844 18.775)">
              <path id="_Path_93" data-name="&lt;Path&gt;" d="M1437.035,799.107a1.044,1.044,0,0,1-1.2.831.924.924,0,0,1-.739-1.2A.893.893,0,0,1,1436.2,798a.954.954,0,0,1,.831,1.108Z" transform="translate(-1433.203 -791.09)"/>
              <path id="_Path_94" data-name="&lt;Path&gt;" d="M1446.33,799.107a1.1,1.1,0,0,1-1.2.831,1.044,1.044,0,0,1-.831-1.2.984.984,0,0,1,1.2-.739.954.954,0,0,1,.831,1.108Z" transform="translate(-1433.91 -791.09)"/>
              <path id="_Path_95" data-name="&lt;Path&gt;" d="M1438.824,802l-.923,3.047,1.847.554" transform="translate(-1433.422 -791.397)" fill="none" stroke="#000" stroke-linecap="round" stroke-linejoin="round" stroke-width="0.7"/>
              <path id="_Path_96" data-name="&lt;Path&gt;" d="M1437.806,791.333s.369,1.2-1.108,1.477a11.284,11.284,0,0,0-2.493.554.986.986,0,0,1-1.016-.277.839.839,0,0,1,0-.923,3.461,3.461,0,0,1,2.493-1.57c1.754-.369,2.124.739,2.124.739Z" transform="translate(-1433.05 -790.518)"/>
              <path id="_Path_97" data-name="&lt;Path&gt;" d="M1443.8,791.427s-.462,1.2,1.478,1.385a39.908,39.908,0,0,1,4.063.923,1.112,1.112,0,0,0,1.293-.277.585.585,0,0,0-.092-.831,7.549,7.549,0,0,0-4.063-2.032C1444.165,790.319,1443.8,791.427,1443.8,791.427Z" transform="translate(-1433.869 -790.521)"/>
              <path id="_Path_98" data-name="&lt;Path&gt;" d="M1439.7,808.7s3.14.646,4.987-1.2" transform="translate(-1433.559 -791.818)" fill="none" stroke="#000" stroke-linecap="round" stroke-linejoin="round" stroke-width="0.7"/>
            </g>
          </g>
        </g>
        <path id="_Path_99" data-name="&lt;Path&gt;" d="M1449.8,941.619V904.312a9.5,9.5,0,0,1,9.512-9.511h61.5" transform="translate(-6.477 -9.539)" fill="none" stroke="#fff" stroke-linecap="round" stroke-linejoin="round" stroke-width="6"/>
      </g>
    </g>
  </g>
</svg>
