<svg xmlns="http://www.w3.org/2000/svg" width="332" height="344.029" viewBox="0 0 332 344.029">
  <g id="Illustration_3" data-name="Illustration 3" transform="translate(-22 -112.137)">
    <path id="Path_6162" data-name="Path 6162" d="M207.964,402.395h229.79a166,166,0,1,0-229.79,0Z" transform="translate(-134.859 -4.452)" fill="rgba(61,172,220,0.16)"/>
    <path id="Path_5872" data-name="Path 5872" d="M195.009,329.945h171.54a123.92,123.92,0,1,0-171.54,0Z" transform="translate(-92.859 47.055)" fill="rgba(61,172,220,0.16)"/>
    <g id="_Group_" data-name="&lt;Group&gt;" transform="translate(48.678 327.846)">
      <g id="_Group_2" data-name="&lt;Group&gt;" transform="translate(24.838)">
        <path id="_Path_" data-name="&lt;Path&gt;" d="M1804.8,368.955a2.336,2.336,0,0,1,.152-1.754,2.25,2.25,0,0,1,1.258-1.182,1.962,1.962,0,0,1,2.631,1.3q.229.877.5,1.754a1.088,1.088,0,0,0,2.021.114l.076-.114c.153-.381.305-.724.419-1.105a4.077,4.077,0,0,0,.229-1.106,6.572,6.572,0,0,0-.115-2.287c-.267-1.029-.5-2.1-.686-3.126q-.153-.8-.267-1.6l-.153-.8a7.619,7.619,0,0,0-.114-.8,2.532,2.532,0,0,1,1.868-2.707,2,2,0,0,1,2.4,1.754,15.355,15.355,0,0,0,.229,1.792,1.012,1.012,0,0,0,.839.877,1.112,1.112,0,0,0,.61-.038,1.854,1.854,0,0,0,.534-.419l.8-1.106c.267-.343.534-.724.8-1.067a2.23,2.23,0,0,1,1.41-.8,2.255,2.255,0,0,1,1.525.457,2.178,2.178,0,0,1,.763,1.411,1.913,1.913,0,0,1-.42,1.487c-.267.343-.534.686-.762,1.029l-.762.991a.96.96,0,0,0-.191.61.936.936,0,0,0,.191.572,1.116,1.116,0,0,0,1.105.5c.534-.076,1.105-.152,1.677-.191a2.174,2.174,0,0,1,2.364,1.715,1.936,1.936,0,0,1,0,.762,1.386,1.386,0,0,1-.267.648,1.757,1.757,0,0,1-1.22.724q-.343.038-.724.076l-.724.114q-.724.114-1.449.267c-.953.152-1.906.381-2.9.61a5.152,5.152,0,0,0-1.944.953,5.422,5.422,0,0,0-.763.762,3.837,3.837,0,0,0-.61.915l-.038.076a1.081,1.081,0,0,0,1.334,1.487q.8-.229,1.6-.5a2.271,2.271,0,0,1,2.63,1.334,1.732,1.732,0,0,1-.038,1.449,1.837,1.837,0,0,1-1.068.915q-1.41.419-2.783.915t-2.783,1.067a3.179,3.179,0,0,0-.953.534,5.486,5.486,0,0,0-.839.686q-.343.419-.648.877a4.3,4.3,0,0,0-.419.991l-.038.114a1.093,1.093,0,0,0,1.563,1.258q.763-.381,1.525-.724a2.207,2.207,0,0,1,2.783.915,1.634,1.634,0,0,1,.191,1.372,1.85,1.85,0,0,1-.915,1.106q-.686.3-1.334.648c-.419.229-.839.457-1.3.686q-.61.343-1.258.724l-.648.381-.648.381a5.813,5.813,0,0,0-1.563,1.487,5.418,5.418,0,0,0-.762,2.02l-.076.457-.038.419a2.037,2.037,0,0,1-.8,1.334,2.141,2.141,0,0,1-1.525.457,1.9,1.9,0,0,1-1.372-.8,2,2,0,0,1-.419-1.563l.038-.457.076-.457a5.781,5.781,0,0,0-.076-2.287,5.446,5.446,0,0,0-.839-2.135l-.419-.686-.381-.686q-.381-.686-.8-1.411c-.267-.457-.534-.915-.762-1.41q-.381-.724-.724-1.449a2.532,2.532,0,0,1-.152-1.754,2.463,2.463,0,0,1,1.105-1.372,1.951,1.951,0,0,1,2.783.877q.381.839.763,1.639a1.1,1.1,0,0,0,2.021-.229l.038-.114a5.419,5.419,0,0,0,.267-1.105,6.07,6.07,0,0,0,.038-1.182,4.421,4.421,0,0,0-.152-1.144,7.215,7.215,0,0,0-.343-1.106q-.571-1.449-1.144-2.973-.534-1.487-1.029-3.05Z" transform="translate(-1800.366 -355.497)" fill="#3dacdc"/>
        <path id="_Path_2" data-name="&lt;Path&gt;" d="M1809.775,370.245l.076-.038c.229.8.5,1.6.724,2.364q.419,1.22.839,2.364c.152.381.267.763.419,1.144l.458,1.144c.343.724.648,1.487.953,2.211a67.846,67.846,0,0,1,4.613-9.835q-.343-1.144-.61-2.364c-.115-.419-.19-.8-.267-1.182l-.267-1.22c-.343-1.639-.572-3.278-.8-4.994l.115-.038q.152,1.258.343,2.516c.076.381.115.8.191,1.22l.229,1.22c.19.8.343,1.6.534,2.4s.381,1.563.61,2.325a66.7,66.7,0,0,1,5.718-8.539l.076.076a66.317,66.317,0,0,0-5.718,8.5q1.144-.305,2.287-.572c.8-.191,1.563-.343,2.325-.5l1.144-.229c.381-.076.762-.114,1.144-.191l2.287-.3v.076c-1.487.191-3.05.419-4.613.762l-1.144.229c-.381.076-.8.152-1.182.267q-1.144.267-2.325.572a67.686,67.686,0,0,0-4.575,9.835c.724-.343,1.449-.648,2.173-.953l1.106-.457c.343-.114.724-.267,1.105-.381q1.106-.419,2.211-.762c.724-.267,1.448-.457,2.211-.686v.076a64.349,64.349,0,0,0-8.882,3.278,71.1,71.1,0,0,0-3.012,10.712,60.127,60.127,0,0,1,8.158-4.613l.038.076a61.515,61.515,0,0,0-8.234,4.689q-.114.534-.19,1.106l-.19,1.067-.191,1.106a9.674,9.674,0,0,1-.152,1.106h-.076a11.079,11.079,0,0,1,.153-1.106l.153-1.106.19-1.106q.115-.534.229-1.106a65.582,65.582,0,0,1-4.956-8.654l.115-.038a66.573,66.573,0,0,0,4.841,8.577,70.461,70.461,0,0,1,3.05-10.75A65.74,65.74,0,0,1,1809.775,370.245Z" transform="translate(-1803.357 -358.16)" fill="#fff"/>
      </g>
      <g id="_Group_3" data-name="&lt;Group&gt;" transform="translate(25.575 25.886)">
        <g id="_Group_4" data-name="&lt;Group&gt;" transform="translate(1.608)">
          <path id="_Path_3" data-name="&lt;Path&gt;" d="M1816.8,423.4a15.722,15.722,0,0,1,2.4,7.091,16.394,16.394,0,0,1-1.144,7.4,16.56,16.56,0,0,1-4.231,6.214,15.083,15.083,0,0,1-6.557,3.545,23.512,23.512,0,0,1-.724-7.167,20.782,20.782,0,0,1,1.448-6.557,21.574,21.574,0,0,1,3.393-5.756A24.394,24.394,0,0,1,1816.8,423.4Z" transform="translate(-1806.518 -423.4)" fill="#4bcfab"/>
          <path id="_Path_4" data-name="&lt;Path&gt;" d="M1810.638,439.529a.048.048,0,0,1,.076,0q1.143,2.668,2.058,5.451a72.42,72.42,0,0,0,3.164-7.281q-.953-2.135-2.02-4.117a.11.11,0,0,1,.038-.076.034.034,0,0,1,.038.038c.343.648.724,1.3,1.029,1.982.343.686.648,1.334.991,2.059q1.029-2.821,1.868-5.68l-.991-1.677a.11.11,0,0,1,.038-.076h.038l.5.839.458.8c.343-1.182.648-2.4.953-3.622q0-.038.038,0a.034.034,0,0,1,.038.038q-.648,2.783-1.525,5.49l1.3-.686q.648-.381,1.3-.724a.048.048,0,0,1,.076,0,.109.109,0,0,1-.038.076q-.648.381-1.334.724-.648.381-1.334.724-1.029,3.2-2.287,6.328c.915-.381,1.868-.8,2.783-1.22.5-.229.953-.457,1.41-.686s.928-.457,1.411-.686a.034.034,0,0,1,.038.038q.038.038,0,.038-.724.381-1.41.724l-1.449.686c-.953.419-1.906.839-2.859,1.22q-1.105,2.707-2.44,5.337.61-.191,1.182-.381l1.182-.457q1.182-.419,2.364-.877a.048.048,0,0,1,.076,0,.109.109,0,0,1-.038.076l-1.182.457-1.22.457q-.61.229-1.22.419l-1.182.419c-.572,1.105-1.182,2.211-1.792,3.317a.047.047,0,0,1-.076,0v-.038c.343-.648.724-1.3,1.067-1.944q.229-.457.5-.953l.5-.991q-.229-.686-.5-1.41-.267-.686-.5-1.372c-.381-.953-.724-1.83-1.144-2.745A.034.034,0,0,1,1810.638,439.529Z" transform="translate(-1809.044 -426.339)" fill="#fff"/>
        </g>
        <g id="_Group_5" data-name="&lt;Group&gt;" transform="translate(0 4.765)">
          <path id="_Path_5" data-name="&lt;Path&gt;" d="M1821.285,435.9a14.2,14.2,0,0,1,1.258,2.287,11.01,11.01,0,0,1,.5,1.182q.191.61.381,1.258a18.333,18.333,0,0,1,.61,5.223,20.269,20.269,0,0,1-11.513,17.383,17.279,17.279,0,0,1-5.07,1.525q-.648.076-1.3.114c-.419.038-.839.038-1.3.038q-1.3-.076-2.554-.267a58.66,58.66,0,0,1,2.478-9.149,35.292,35.292,0,0,1,3.7-7.4,35.9,35.9,0,0,1,5.375-6.328A59.5,59.5,0,0,1,1821.285,435.9Z" transform="translate(-1802.3 -435.9)" fill="#3dacdc"/>
          <path id="_Path_6" data-name="&lt;Path&gt;" d="M1811.174,455.338a.037.037,0,0,1,.038.038c.267,1.258.42,2.478.572,3.774l.038.5.038.457.076.991q0,.5.038.991v.991a2.782,2.782,0,0,0,.457-.5l.458-.5.457-.5a2.82,2.82,0,0,0,.457-.5l.877-.991.419-.534.42-.534.8-1.067c.267-.343.534-.724.8-1.067l.381-.572.191-.267.152-.267.724-1.144a39.083,39.083,0,0,0-1.868-5.833c0-.038,0-.038.038-.076a.133.133,0,0,1,.076.038l.534,1.372c.191.5.343.953.5,1.41q.229.724.419,1.449c.153.5.305.991.419,1.487a44.962,44.962,0,0,0,3.507-7.2q-.267-.61-.534-1.182l-.152-.3-.153-.3-.3-.572c0-.038,0-.076.038-.076s.076,0,.076.038c.191.343.381.724.572,1.106l.534,1.144.229-.572.229-.61.381-1.182.191-.61a5.625,5.625,0,0,1,.191-.61l.305-1.182.076-.076c.038.038.076.038.076.076a44.3,44.3,0,0,1-2.592,7.243q.953-.343,1.868-.724.915-.419,1.83-.877c.038,0,.076,0,.076.038s0,.076-.038.076c-.61.305-1.258.61-1.868.877q-.991.419-1.906.762a48.567,48.567,0,0,1-4.575,7.853q.991-.153,2.02-.381l.534-.076q.267-.076.5-.152.534-.114,1.029-.229.534-.153,1.029-.3l.534-.152q.267-.076.5-.153,1.029-.3,2.058-.686c.038,0,.076,0,.076.038.038.038,0,.076-.038.076q-1.068.381-2.1.724c-.343.114-.686.191-1.029.3s-.712.191-1.067.267q-.534.153-1.029.267l-.267.076-.267.038-.534.114q-1.029.229-2.059.381a45.591,45.591,0,0,1-5.184,5.985h1.715q.839-.038,1.715-.114l.877-.038.839-.076,1.754-.229a.082.082,0,0,1,.076.076c0,.038-.038.038-.076.076q-.877.114-1.754.191c-.61.076-1.22.114-1.792.152l-1.715.076h-1.754c-1.22,1.182-2.516,2.249-3.812,3.317h-.114a.14.14,0,0,1,.038-.114c.762-.61,1.525-1.22,2.249-1.868l.572-.5q.267-.229.534-.5l1.067-1.029c0-.648-.038-1.334-.038-2.02q-.038-.5-.076-.991c-.038-.305-.038-.648-.076-.953q-.114-.991-.229-1.944c-.038-.3-.076-.61-.153-.953q-.076-.458-.191-.953a.133.133,0,0,1,.076-.038Z" transform="translate(-1805.456 -439.86)" fill="#fff"/>
        </g>
      </g>
      <g id="_Group_6" data-name="&lt;Group&gt;" transform="translate(7.429 16.012)">
        <path id="_Path_7" data-name="&lt;Path&gt;" d="M1760.99,397.5a23.853,23.853,0,0,1,9.111,9.34,27.4,27.4,0,0,1,.114,25.923,23.511,23.511,0,0,1-9.035,9.378,50.283,50.283,0,0,1-4.88-11.284,39.649,39.649,0,0,1-1.6-10.979,40.84,40.84,0,0,1,1.525-11.017A50.926,50.926,0,0,1,1760.99,397.5Z" transform="translate(-1754.7 -397.5)" fill="#3dacdc"/>
        <path id="_Path_8" data-name="&lt;Path&gt;" d="M1759.554,428.929a.071.071,0,0,1,.114,0c1.144,1.144,2.249,2.364,3.355,3.622l.419.457.419.5.8.953.762.991q.419.5.8.991.076-.419.114-.839l.076-.877.114-.839a6.219,6.219,0,0,0,.076-.839l.152-1.715.038-.877.038-.839.076-1.715c.038-.572.038-1.144.038-1.716v-.877l.038-.419-.038-.419-.038-1.715a74.906,74.906,0,0,0-5.985-5.108.081.081,0,0,1,.114-.114q.724.572,1.487,1.182c.5.381.991.8,1.487,1.22s.966.826,1.449,1.258c.5.457.991.877,1.449,1.334a83.433,83.433,0,0,0-.953-10.217l-1.372-.991-.343-.229-.343-.267-.687-.457c-.038-.038-.076-.076-.038-.114a.071.071,0,0,1,.114,0q.686.419,1.334.877.648.5,1.334.953l-.152-.8q-.038-.381-.114-.8l-.305-1.563-.152-.8q-.076-.381-.19-.8l-.343-1.563a.082.082,0,0,1,.076-.076c.038-.038.076,0,.076.038a84.42,84.42,0,0,1,1.715,9.683q.763-.991,1.525-2.02t1.487-2.1a.071.071,0,0,1,.114,0,.14.14,0,0,1,.038.114c-.534.724-1.029,1.449-1.563,2.135q-.8,1.067-1.6,2.1a84.546,84.546,0,0,1,.534,11.627q.953-.915,1.868-1.868l.5-.457.457-.5.915-.991.915-.991q.457-.5.877-1.029.877-1.029,1.754-2.1a.071.071,0,0,1,.114,0c.038,0,.038.076,0,.114l-1.754,2.135-.915,1.029-.953,1.029c-1.22,1.334-2.516,2.63-3.774,3.85a88.673,88.673,0,0,1-.877,10.064q.877-.648,1.715-1.3.839-.686,1.715-1.372l.839-.724q.419-.343.839-.724.8-.724,1.639-1.487a.071.071,0,0,1,.114,0c0,.038,0,.114-.038.114q-.838.8-1.639,1.525c-.572.5-1.182.991-1.754,1.449q-.839.724-1.715,1.411t-1.754,1.334c-.305,2.135-.724,4.27-1.182,6.366,0,.038-.076.076-.114.076a.073.073,0,0,1-.038-.114c.267-1.22.534-2.44.763-3.7l.152-.915q.077-.5.153-.953l.267-1.868c-.5-.686-1.067-1.372-1.6-2.02l-.8-.991c-.267-.3-.534-.648-.839-.953q-.838-.953-1.677-1.868c-.267-.3-.534-.61-.839-.915l-.877-.877a.071.071,0,0,1,0-.114Z" transform="translate(-1757.686 -402.548)" fill="#fff"/>
      </g>
      <g id="_Group_7" data-name="&lt;Group&gt;" transform="translate(0 25.314)">
        <path id="_Path_9" data-name="&lt;Path&gt;" d="M1736.694,421.9a17.256,17.256,0,0,1,5.185,2.02,18.806,18.806,0,0,1,4.346,3.66,20.744,20.744,0,0,1,3.164,4.956,21.617,21.617,0,0,1,1.639,5.756,20.987,20.987,0,0,1,.038,5.985,20.134,20.134,0,0,1-1.677,5.642,18.412,18.412,0,0,1-3.126,4.765,17.169,17.169,0,0,1-4.422,3.355,84.243,84.243,0,0,1-4.117-9.187,39.428,39.428,0,0,1-2.4-17,74.55,74.55,0,0,1,1.372-9.95Z" transform="translate(-1735.212 -421.9)" fill="#55e1bb"/>
        <path id="_Path_10" data-name="&lt;Path&gt;" d="M1740.865,447.088h.115a39.337,39.337,0,0,1,5.947,5.642,47.6,47.6,0,0,0,.076-5.718,42.738,42.738,0,0,0-.686-5.68,37.718,37.718,0,0,0-5.6-3.2c-.038-.038-.076-.076-.038-.076,0-.038.038-.038.076-.038a37.082,37.082,0,0,1,5.566,3.164,41.672,41.672,0,0,0-2.44-8.234q-1.3-.534-2.63-.991a.133.133,0,0,1-.038-.076.141.141,0,0,1,.115-.038q.61.229,1.258.457.61.229,1.258.5a44.786,44.786,0,0,0-2.364-4.841c-.038-.038-.038-.076,0-.076.038-.038.076,0,.115.038a40.915,40.915,0,0,1,3.316,7.472q.267-.5.5-.953.191-.5.42-.991t.419-.991q.191-.5.381-1.029a.118.118,0,0,1,.076-.038c.038.038.076.076.038.114-.115.343-.267.686-.381,1.029q-.229.534-.458,1.029a18.634,18.634,0,0,1-.915,1.982,42.931,42.931,0,0,1,1.982,9.492q.381-.419.724-.839.343-.458.648-.877c.458-.61.877-1.22,1.3-1.868a40.97,40.97,0,0,0,2.364-4c0-.038.038-.038.076-.038a.14.14,0,0,1,.038.114,42.861,42.861,0,0,1-5.108,7.7,44.835,44.835,0,0,1-.038,8.463,44.852,44.852,0,0,0,5.3-5.146c.038-.038.076-.038.076,0,.038,0,.038.076,0,.076a39.04,39.04,0,0,1-5.413,5.261,47.174,47.174,0,0,1-.915,5.3c-.038.038-.038.076-.076.076-.038-.038-.076-.038-.076-.076l.19-.8.153-.762c.114-.5.191-1.029.3-1.563.153-1.029.3-2.059.381-3.126a40.45,40.45,0,0,0-5.985-5.756c-.038,0-.038-.038-.038-.076Z" transform="translate(-1738.582 -425.587)" fill="#fff"/>
      </g>
      <g id="_Group_8" data-name="&lt;Group&gt;" transform="translate(19.627 39.152)">
        <path id="_Path_11" data-name="&lt;Path&gt;" d="M1796.076,458.2a20.732,20.732,0,0,1,.839,5.947,18.447,18.447,0,0,1-.953,5.451,17.148,17.148,0,0,1-2.554,4.918,19.351,19.351,0,0,1-4.232,4.232,12.768,12.768,0,0,1-2.363-5.756,13.887,13.887,0,0,1,.61-6.252,13.589,13.589,0,0,1,3.317-5.337,12.772,12.772,0,0,1,5.337-3.2Z" transform="translate(-1786.696 -458.2)" fill="#55e1bb"/>
        <path id="_Path_12" data-name="&lt;Path&gt;" d="M1789.138,471.407h.038c.762,1.525,1.563,2.973,2.44,4.384a60.91,60.91,0,0,1,1.868-6.366q-.838-1.754-1.563-3.583a.11.11,0,0,1,.038-.076.034.034,0,0,1,.038.038q.725,1.792,1.525,3.507.838-2.325,1.868-4.575-.305-.8-.572-1.563a.11.11,0,0,1,.038-.076.034.034,0,0,1,.038.038l.267.762.267.724q.648-1.411,1.372-2.821h.038l.038.038q-1.106,2.1-2.021,4.308.572-.229,1.106-.457.572-.229,1.144-.419a.034.034,0,0,1,.038.038q.038.038,0,.038-.571.191-1.182.419l-1.144.457q-1.105,2.592-1.944,5.261c.762-.381,1.487-.762,2.249-1.106s1.525-.686,2.287-.991a.034.034,0,0,1,.038.038q.038,0,0,.038-.572.229-1.144.5-.61.229-1.182.5l-2.287,1.144q-.724,2.325-1.258,4.727a10.4,10.4,0,0,1,.877-.572l.877-.5q.877-.534,1.792-.991c.026-.025.038-.025.038,0q.038.038,0,.038l-.915.5-.915.534q-.457.267-.877.534l-.915.534q-.343,1.525-.61,3.088a.034.034,0,0,1-.038.038.11.11,0,0,1-.038-.076c.114-.572.229-1.182.343-1.792q.076-.419.191-.877l.191-.915q-.3-.534-.648-1.067l-.61-1.067c-.419-.762-.839-1.525-1.22-2.287l.038-.038Z" transform="translate(-1788.184 -460.428)" fill="#fff"/>
      </g>
    </g>
    <g id="_Group_9" data-name="&lt;Group&gt;" transform="translate(263.783 301.773)">
      <g id="_Group_10" data-name="&lt;Group&gt;">
        <path id="_Path_13" data-name="&lt;Path&gt;" d="M2201.663,374.665a3.093,3.093,0,0,0-.217-2.5,3.046,3.046,0,0,0-1.792-1.683,2.722,2.722,0,0,0-3.692,1.846l-.76,2.5a1.55,1.55,0,0,1-2.877.163l-.108-.163c-.218-.543-.435-1.032-.6-1.575a11.014,11.014,0,0,1-.326-1.575,10.873,10.873,0,0,1,.163-3.258c.38-1.466.706-2.986.977-4.452l.435-2.28.163-1.14q.108-.6.163-1.14a3.605,3.605,0,0,0-2.661-3.855,2.774,2.774,0,0,0-3.366,2.5c-.108.814-.217,1.683-.38,2.552a1.449,1.449,0,0,1-1.14,1.249,1.783,1.783,0,0,1-.923-.054,2.639,2.639,0,0,1-.76-.6l-1.14-1.575c-.38-.489-.706-1.032-1.14-1.52a3.178,3.178,0,0,0-2.009-1.14,3.211,3.211,0,0,0-2.172.652,3.359,3.359,0,0,0-1.086,2.009,2.952,2.952,0,0,0,.6,2.117c.38.489.76.977,1.086,1.466l1.086,1.412a1.366,1.366,0,0,1,.271.869,1.334,1.334,0,0,1-.271.814,1.546,1.546,0,0,1-1.574.706c-.76-.109-1.574-.217-2.389-.271a3.131,3.131,0,0,0-3.366,2.443,2.747,2.747,0,0,0,0,1.086,1.975,1.975,0,0,0,.38.923,2.5,2.5,0,0,0,1.737,1.032q.543.054,1.031.109l1.032.163q1.031.163,2.063.38c1.412.217,2.769.543,4.126.869a6.965,6.965,0,0,1,2.769,1.357,7.681,7.681,0,0,1,1.086,1.086,5.464,5.464,0,0,1,.869,1.3l.054.109a1.539,1.539,0,0,1-1.9,2.117q-1.14-.326-2.28-.706a3.266,3.266,0,0,0-3.746,1.9,2.467,2.467,0,0,0,.054,2.063,2.571,2.571,0,0,0,1.574,1.3q1.954.6,3.963,1.3,1.955.706,3.909,1.52a4.534,4.534,0,0,1,1.357.76,7.818,7.818,0,0,1,1.195.977,7.4,7.4,0,0,1,.923,1.249,6.13,6.13,0,0,1,.6,1.412l.055.163a1.549,1.549,0,0,1-2.226,1.792q-1.085-.543-2.172-1.032a3.162,3.162,0,0,0-3.963,1.3,2.328,2.328,0,0,0-.272,1.955,2.731,2.731,0,0,0,1.358,1.575q.922.434,1.846.923c.6.326,1.195.652,1.846.977q.922.489,1.846,1.032l.923.543.869.543a6.894,6.894,0,0,1,3.312,5l.109.652.109.6a2.639,2.639,0,0,0,1.086,1.9,3.051,3.051,0,0,0,2.172.652,2.928,2.928,0,0,0,2.009-1.14,3.362,3.362,0,0,0,.6-2.226l-.109-.652-.108-.652a9.4,9.4,0,0,1,.108-3.258,8.679,8.679,0,0,1,1.195-3.04l.6-.977.542-.977q.6-.977,1.14-2.009c.38-.652.76-1.3,1.086-2.009q.543-1.032,1.031-2.063a3.325,3.325,0,0,0,.217-2.5,3.653,3.653,0,0,0-1.52-1.955,2.824,2.824,0,0,0-4.018,1.249q-.543,1.194-1.086,2.335a1.559,1.559,0,0,1-2.878-.326l-.054-.163a5.807,5.807,0,0,1-.326-1.575,8.456,8.456,0,0,1,.108-3.312,10.361,10.361,0,0,1,.489-1.575q.869-2.063,1.629-4.235.76-2.118,1.466-4.344Z" transform="translate(-2171.801 -355.497)" fill="#3dacdc"/>
        <path id="_Path_14" data-name="&lt;Path&gt;" d="M2200.767,374.677l-.163-.054c-.326,1.14-.652,2.28-1.032,3.366q-.6,1.737-1.194,3.366c-.163.543-.38,1.086-.6,1.629l-.652,1.629c-.434,1.032-.869,2.117-1.357,3.149a96.714,96.714,0,0,0-6.57-14.008q.489-1.629.869-3.366c.163-.6.271-1.14.435-1.683l.326-1.737c.489-2.335.814-4.669,1.14-7.113l-.109-.054q-.271,1.792-.543,3.583c-.054.543-.163,1.14-.271,1.737l-.326,1.737c-.217,1.14-.489,2.28-.76,3.421q-.38,1.683-.814,3.312a101.506,101.506,0,0,0-8.2-12.162l-.109.109a94.447,94.447,0,0,1,8.144,12.108q-1.629-.434-3.258-.814c-1.086-.271-2.226-.489-3.312-.706l-1.629-.326c-.543-.109-1.086-.163-1.629-.272l-3.258-.434v.109c2.117.272,4.4.6,6.57,1.086l1.629.326a15.292,15.292,0,0,1,1.683.38q1.629.38,3.312.814a102.8,102.8,0,0,1,6.57,14.008c-1.031-.489-2.117-.923-3.149-1.357l-1.574-.652c-.489-.163-1.032-.38-1.575-.543q-1.574-.6-3.095-1.086c-1.086-.38-2.117-.652-3.149-.977l-.054.109a91.663,91.663,0,0,1,12.651,4.669,101.283,101.283,0,0,1,4.289,15.257,85.064,85.064,0,0,0-11.565-6.57l-.109.109a87.615,87.615,0,0,1,11.728,6.678q.163.76.326,1.575l.217,1.52.271,1.575c.109.543.109,1.086.217,1.575h.108a15.623,15.623,0,0,0-.217-1.575l-.217-1.575-.271-1.575q-.163-.76-.272-1.575a99.679,99.679,0,0,0,7-12.325l-.163-.054a94.86,94.86,0,0,1-6.9,12.216,100.341,100.341,0,0,0-4.344-15.311,100.966,100.966,0,0,0,4.941-13.248Z" transform="translate(-2173.675 -357.464)" fill="#fff"/>
      </g>
      <g id="_Group_11" data-name="&lt;Group&gt;" transform="translate(4.173 36.868)">
        <g id="_Group_12" data-name="&lt;Group&gt;" transform="translate(10.561)">
          <path id="_Path_15" data-name="&lt;Path&gt;" d="M2202.393,423.4a21.692,21.692,0,0,0-3.366,10.1,23.319,23.319,0,0,0,1.575,10.533,23.591,23.591,0,0,0,6.027,8.85,21.791,21.791,0,0,0,9.339,5.049A33.48,33.48,0,0,0,2217,447.724a29.452,29.452,0,0,0-6.9-17.537A33.563,33.563,0,0,0,2202.393,423.4Z" transform="translate(-2198.939 -423.4)" fill="#4bcfab"/>
          <path id="_Path_16" data-name="&lt;Path&gt;" d="M2215.965,444.357q-.055-.054-.054,0-1.629,3.8-2.986,7.764a103.129,103.129,0,0,1-4.507-10.37q1.358-3.04,2.878-5.864a.158.158,0,0,0-.054-.109.048.048,0,0,0-.054.054c-.489.923-.977,1.846-1.466,2.823-.435.977-.923,1.9-1.358,2.932q-1.52-4.018-2.714-8.09l1.411-2.389a.157.157,0,0,0-.054-.109h-.055l-.706,1.195-.6,1.14c-.543-1.683-.977-3.421-1.412-5.158q0-.054-.054,0a.048.048,0,0,0-.054.054q.923,3.964,2.172,7.819l-1.846-.977q-.923-.543-1.846-1.032a.068.068,0,0,0-.108,0,.155.155,0,0,0,.054.109q.924.543,1.9,1.032.977.543,1.9,1.032,1.466,4.561,3.312,9.013c-1.357-.543-2.715-1.14-4.018-1.737-.652-.326-1.358-.652-2.009-.977s-1.321-.652-2.009-.977a.048.048,0,0,0-.055.054q-.053.054,0,.054,1.032.543,2.063,1.032.977.489,2.009.977c1.357.6,2.714,1.194,4.072,1.737q1.629,3.855,3.475,7.6-.814-.271-1.683-.543l-1.683-.652q-1.683-.6-3.366-1.249a.068.068,0,0,0-.109,0,.156.156,0,0,0,.055.109l1.737.652q.869.326,1.683.652.869.326,1.738.6l1.738.6c.76,1.574,1.629,3.149,2.5,4.724a.068.068,0,0,0,.109,0q.054,0,0-.054c-.489-.923-1.031-1.846-1.466-2.769-.272-.434-.489-.923-.761-1.357l-.706-1.412q.38-.977.706-2.009l.761-1.955c.488-1.357.977-2.606,1.574-3.909a.048.048,0,0,0-.054-.054Z" transform="translate(-2200.132 -425.571)" fill="#fff"/>
        </g>
        <g id="_Group_13" data-name="&lt;Group&gt;" transform="translate(0 6.787)">
          <path id="_Path_17" data-name="&lt;Path&gt;" d="M2183.4,435.9a28.023,28.023,0,0,0-1.792,3.258,9,9,0,0,0-.651,1.683q-.326.869-.6,1.792a26.119,26.119,0,0,0-.869,7.438,28.823,28.823,0,0,0,4.778,14.66,28.145,28.145,0,0,0,11.619,10.1,25.107,25.107,0,0,0,7.221,2.172q.923.109,1.846.163c.6.054,1.194.054,1.846.054q1.846-.109,3.637-.38a77.949,77.949,0,0,0-3.529-13.031,47.766,47.766,0,0,0-5.267-10.533,51.122,51.122,0,0,0-7.656-9.013A84.711,84.711,0,0,0,2183.4,435.9Z" transform="translate(-2179.488 -435.9)" fill="#3dacdc"/>
          <path id="_Path_18" data-name="&lt;Path&gt;" d="M2204.826,460.869c-.054,0-.109,0-.109.054-.38,1.792-.6,3.529-.814,5.375l-.054.706-.054.652q-.055.706-.055,1.412-.054.706-.108,1.412v1.412q-.326-.326-.652-.706l-.652-.706-.651-.706a8.226,8.226,0,0,1-.651-.706l-1.249-1.412-.6-.76-.6-.76-1.14-1.52c-.38-.489-.76-1.032-1.086-1.52l-.543-.814-.271-.38-.271-.38-1.031-1.629a65.484,65.484,0,0,1,2.66-8.307c0-.054,0-.054-.054-.109a.189.189,0,0,0-.109.054l-.76,1.955c-.217.706-.489,1.357-.706,2.009q-.271,1.032-.6,2.063c-.217.706-.38,1.412-.543,2.117a60.04,60.04,0,0,1-5.049-10.262q.38-.869.76-1.683l.217-.434.217-.434.434-.814c0-.054,0-.109-.054-.109s-.109,0-.109.054c-.272.489-.543,1.032-.815,1.575l-.76,1.629-.326-.814a8.063,8.063,0,0,1-.271-.869l-.6-1.683-.271-.869q-.109-.434-.217-.869l-.489-1.683a.117.117,0,0,0-.109-.109c-.054.054-.108.054-.054.109a58.225,58.225,0,0,0,3.638,10.316q-1.3-.489-2.66-1.032-1.3-.6-2.606-1.249c-.054,0-.109,0-.109.054s0,.109.054.109c.923.434,1.792.869,2.715,1.249q1.357.6,2.715,1.086a65.18,65.18,0,0,0,6.461,11.185q-1.412-.217-2.878-.543l-.76-.109q-.326-.109-.706-.217-.706-.163-1.466-.326-.705-.217-1.466-.434l-.76-.217q-.326-.109-.706-.217-1.466-.434-2.932-.977c-.054,0-.108,0-.108.054s0,.109.054.109q1.52.543,2.986,1.032c.489.163,1.032.271,1.521.434q.705.217,1.466.38.76.217,1.466.38l.38.109.38.054.76.163q1.466.326,2.932.543a64.971,64.971,0,0,0,7.385,8.524h-2.444q-1.194-.054-2.443-.163l-1.195-.054q-.651-.054-1.249-.109l-2.5-.326a.117.117,0,0,0-.108.109c0,.054.054.054.108.109q1.3.163,2.552.271c.815.109,1.683.163,2.5.217l2.5.109h2.443c1.738,1.683,3.583,3.2,5.484,4.724h.109v-.163c-1.14-.869-2.226-1.738-3.258-2.661l-.815-.706q-.38-.326-.76-.706l-1.52-1.466c0-.923.054-1.9.109-2.878q0-.706.054-1.412c.054-.434.054-.923.108-1.357q.162-1.412.326-2.769a10.147,10.147,0,0,0,.217-1.357q.108-.652.271-1.357a.053.053,0,0,0-.054-.054Z" transform="translate(-2181.961 -438.825)" fill="#fff"/>
        </g>
      </g>
      <g id="_Group_14" data-name="&lt;Group&gt;" transform="translate(34.314 22.805)">
        <path id="_Path_19" data-name="&lt;Path&gt;" d="M2252.7,397.5a33.972,33.972,0,0,0-12.977,13.3A39.141,39.141,0,0,0,2235,429.208a39.59,39.59,0,0,0,4.561,18.515,33.853,33.853,0,0,0,12.868,13.357,71.62,71.62,0,0,0,6.95-16.071,56.469,56.469,0,0,0,2.281-15.637,54.164,54.164,0,0,0-2.172-15.691A70.069,70.069,0,0,0,2252.7,397.5Z" transform="translate(-2235 -397.5)" fill="#3dacdc"/>
        <path id="_Path_20" data-name="&lt;Path&gt;" d="M2261.249,438.8a.1.1,0,0,0-.163,0c-1.629,1.629-3.2,3.366-4.778,5.158l-.6.652-.543.706-1.14,1.357-1.14,1.412q-.6.706-1.14,1.412-.054-.6-.163-1.195l-.109-1.249-.163-1.195a8.854,8.854,0,0,0-.109-1.194l-.163-2.443-.109-1.249-.054-1.194-.109-2.443c-.054-.814-.054-1.629-.054-2.443v-2.443l.054-2.443a106.668,106.668,0,0,1,8.524-7.276.1.1,0,0,0,0-.163c0-.054-.109-.054-.163,0q-1.031.814-2.117,1.683c-.706.543-1.412,1.14-2.118,1.737q-1.031.869-2.063,1.792c-.706.652-1.412,1.249-2.063,1.9a118.792,118.792,0,0,1,1.358-14.551l1.954-1.412.489-.326.489-.38,1.031-.652a.115.115,0,0,0-.163-.163q-.923.6-1.9,1.249-.922.706-1.846,1.357l.163-1.14q.054-.543.163-1.14l.435-2.226.217-1.14a10.47,10.47,0,0,0,.271-1.14l.489-2.226c0-.054,0-.109-.054-.109-.108-.054-.163,0-.163.054a119.974,119.974,0,0,0-2.389,13.791q-1.14-1.412-2.226-2.878t-2.118-2.986a.115.115,0,0,0-.163.163c.706,1.032,1.412,2.063,2.172,3.041q1.14,1.52,2.28,2.986a120.367,120.367,0,0,0-.76,16.56l-2.661-2.66-.706-.652-.652-.706-1.3-1.412-1.249-1.412a16.408,16.408,0,0,1-1.3-1.466q-1.249-1.466-2.5-2.986a.1.1,0,0,0-.163,0c-.055,0-.055.109,0,.163q1.248,1.52,2.552,3.041c.38.489.869.977,1.3,1.466l1.3,1.466c1.738,1.9,3.584,3.746,5.375,5.484a126.157,126.157,0,0,0,1.249,14.334q-1.195-.923-2.443-1.846l-2.389-1.955-1.195-1.032a11.163,11.163,0,0,1-1.194-1.032q-1.195-1.032-2.389-2.118c0-.054-.109-.054-.109,0-.054.054-.054.163,0,.163q1.195,1.14,2.389,2.172c.76.706,1.629,1.412,2.443,2.063q1.195,1.032,2.443,2.009t2.5,1.9c.434,3.04,1.031,6.081,1.683,9.067.054.054.109.109.163.109a.1.1,0,0,0,.054-.163c-.326-1.737-.76-3.475-1.032-5.267l-.271-1.3q-.108-.706-.217-1.357l-.38-2.66c.706-.977,1.52-1.955,2.28-2.878l1.141-1.412c.38-.434.76-.923,1.194-1.357q1.195-1.357,2.389-2.66c.435-.434.814-.869,1.194-1.3l1.249-1.249A.1.1,0,0,0,2261.249,438.8Z" transform="translate(-2237.251 -401.229)" fill="#fff"/>
      </g>
      <g id="_Group_15" data-name="&lt;Group&gt;" transform="translate(48.702 36.053)">
        <path id="_Path_21" data-name="&lt;Path&gt;" d="M2282.241,421.9a24.267,24.267,0,0,0-7.33,2.878,25.957,25.957,0,0,0-6.244,5.212,27.757,27.757,0,0,0-4.452,7.058,28.988,28.988,0,0,0-2.389,8.2,28.016,28.016,0,0,0,0,8.524,26.891,26.891,0,0,0,2.335,8.036,25.081,25.081,0,0,0,4.506,6.787,23.31,23.31,0,0,0,6.244,4.778,110.326,110.326,0,0,0,5.864-13.085,58.012,58.012,0,0,0,3.041-11.891,54.409,54.409,0,0,0,.38-12.325,106.2,106.2,0,0,0-1.955-14.171Z" transform="translate(-2261.5 -421.9)" fill="#55e1bb"/>
        <path id="_Path_22" data-name="&lt;Path&gt;" d="M2283.808,455.246h-.163a55.721,55.721,0,0,0-8.415,8.036,58.1,58.1,0,0,1-.163-8.144,60.955,60.955,0,0,1,.978-8.09,54.219,54.219,0,0,1,8.035-4.561c0-.054.055-.109,0-.109,0-.054-.054-.054-.108-.054a52.329,52.329,0,0,0-7.873,4.507,63.1,63.1,0,0,1,3.421-11.728q1.846-.76,3.746-1.412c.055,0,.055-.054.055-.109a.169.169,0,0,0-.109-.054q-.923.326-1.792.652-.923.326-1.792.706a63.765,63.765,0,0,1,3.366-6.9c0-.054,0-.109-.054-.109-.054-.054-.109,0-.109.054a58.48,58.48,0,0,0-4.778,10.642q-.38-.706-.652-1.357l-.652-1.412q-.271-.706-.6-1.412-.271-.706-.543-1.466c0-.054-.054-.054-.108-.054-.054.054-.109.109-.054.163.163.489.38.977.543,1.466q.326.76.651,1.466c.434.977.869,1.9,1.3,2.823a61.142,61.142,0,0,0-2.823,13.52l-.977-1.195q-.489-.652-.977-1.249c-.652-.869-1.249-1.738-1.846-2.661a58.279,58.279,0,0,1-3.366-5.7c0-.054-.054-.054-.109-.054a.2.2,0,0,0-.054.163,61.088,61.088,0,0,0,7.276,10.968,68.749,68.749,0,0,0,.054,12.054,68.3,68.3,0,0,1-7.547-7.33c0-.054-.054-.054-.108,0-.054,0-.054.109,0,.109a55.6,55.6,0,0,0,7.71,7.493,59.967,59.967,0,0,0,1.357,7.547.117.117,0,0,0,.109.109c.054-.054.054-.054.054-.109l-.271-1.14-.217-1.086c-.163-.706-.271-1.466-.434-2.226-.217-1.466-.435-2.932-.543-4.452a57.918,57.918,0,0,1,8.578-8.2v-.109Z" transform="translate(-2264.208 -424.623)" fill="#fff"/>
      </g>
      <g id="_Group_16" data-name="&lt;Group&gt;" transform="translate(29.048 55.762)">
        <path id="_Path_23" data-name="&lt;Path&gt;" d="M2226.495,458.2a29.522,29.522,0,0,0-1.195,8.47,25.879,25.879,0,0,0,5,14.768,30.161,30.161,0,0,0,6.026,6.027,17.6,17.6,0,0,0,3.366-8.2,19.866,19.866,0,0,0-5.538-16.506,18.382,18.382,0,0,0-7.655-4.561Z" transform="translate(-2225.3 -458.2)" fill="#55e1bb"/>
        <path id="_Path_24" data-name="&lt;Path&gt;" d="M2239.691,475.482h-.109c-1.086,2.172-2.226,4.235-3.475,6.244a86.7,86.7,0,0,0-2.66-9.067q1.195-2.5,2.226-5.1a.157.157,0,0,0-.054-.109l-.054.054q-1.031,2.552-2.172,5-1.195-3.312-2.66-6.515.434-1.14.814-2.226a.158.158,0,0,0-.054-.109l-.055.054-.38,1.086-.38,1.032q-.923-2.009-1.955-4.018h-.054q-.055.054,0,.054,1.52,2.986,2.823,6.135-.76-.326-1.574-.652t-1.629-.6a.048.048,0,0,0-.054.054v.054q.869.272,1.684.6t1.683.651q1.521,3.692,2.715,7.493c-1.086-.543-2.117-1.086-3.2-1.575q-1.629-.76-3.258-1.412a.048.048,0,0,0-.055.054v.054q.815.326,1.684.706.814.326,1.629.706l3.258,1.629q1.031,3.312,1.792,6.733a14.772,14.772,0,0,0-1.249-.814l-1.249-.706q-1.248-.76-2.552-1.412c0-.036-.018-.036-.054,0v.054l1.3.706,1.3.76,1.3.76,1.249.76q.489,2.172.869,4.4a.048.048,0,0,0,.054.054.157.157,0,0,0,.054-.109c-.163-.814-.271-1.683-.488-2.552q-.109-.6-.272-1.249l-.271-1.3q.489-.76.923-1.52t.923-1.52c.543-1.086,1.14-2.172,1.683-3.258v-.054Z" transform="translate(-2226.442 -459.845)" fill="#fff"/>
      </g>
    </g>
    <g id="_Group_17" data-name="&lt;Group&gt;" transform="translate(183.276 128.431)">
      <g id="_Group_18" data-name="&lt;Group&gt;">
        <g id="_Group_19" data-name="&lt;Group&gt;" transform="translate(4.78 119.33)">
          <g id="_Group_20" data-name="&lt;Group&gt;" transform="translate(44.804 152.316)">
            <g id="_Group_21" data-name="&lt;Group&gt;" transform="translate(0 34.884)">
              <path id="_Path_25" data-name="&lt;Path&gt;" d="M971.231,1173.525l9.486,4.66a2.374,2.374,0,0,1,1.3,2.7c-.266.832-1.065,1.631-3.162,1.664-4.693.1-25.364-3.129-25.364-3.129v2.164l-9.62-1.1s-.666-10.984,2.263-12.582Z" transform="translate(-943.805 -1161.343)"/>
              <path id="_Path_26" data-name="&lt;Path&gt;" d="M960.653,1149.365l15.245,11.018s-1.631,4.161-8.854,1.4c-7.19-2.8-16.244-7.023-16.244-7.023l1.3-6.557Z" transform="translate(-948.471 -1148.2)" fill="#e9a88c"/>
            </g>
            <path id="_Path_27" data-name="&lt;Path&gt;" d="M950.8,1084.841V1043.4l15.212,1.431-3.661,38.545Z" transform="translate(-948.471 -1043.4)" fill="#e9a88c"/>
          </g>
          <g id="_Group_22" data-name="&lt;Group&gt;" transform="translate(5.394 152.316)">
            <g id="_Group_23" data-name="&lt;Group&gt;" transform="translate(0 34.884)">
              <path id="_Path_28" data-name="&lt;Path&gt;" d="M852.831,1173.525l9.453,4.66a2.3,2.3,0,0,1,1.3,2.7c-.233.832-1.032,1.631-3.129,1.664-4.693.1-25.4-3.129-25.4-3.129v2.164l-9.586-1.1s-.666-10.984,2.263-12.582Z" transform="translate(-825.405 -1161.343)"/>
              <path id="_Path_29" data-name="&lt;Path&gt;" d="M842.253,1149.365l15.245,11.018s-1.631,4.161-8.854,1.4c-7.223-2.8-16.244-7.023-16.244-7.023l1.3-6.557Z" transform="translate(-830.071 -1148.2)" fill="#e9a88c"/>
            </g>
            <path id="_Path_30" data-name="&lt;Path&gt;" d="M832.4,1084.841V1043.4l15.212,1.431-3.661,38.545Z" transform="translate(-830.071 -1043.4)" fill="#e9a88c"/>
          </g>
          <g id="_Group_24" data-name="&lt;Group&gt;">
            <path id="_Path_31" data-name="&lt;Path&gt;" d="M817.255,640.056c-1.1-23.6,3.029-35.882,4.793-43.471l.266-3.495.632-.133c.133-.433.2-.7.2-.7l.2.6,23.6-5.426,24.765-1.631,1.032,17.209c.166,5.059.533,33.386.233,38.412l-.1,126.952H847.912l-1.032-130.88L832.8,768.373l-23.6-.533Z" transform="translate(-809.2 -585.8)" fill="#55e1bb"/>
            <g id="_Group_25" data-name="&lt;Group&gt;" transform="translate(8.288 28.326)">
              <path id="_Path_32" data-name="&lt;Path&gt;" d="M889.554,670.9v3.994L834.1,677.857l.8-6.091Z" transform="translate(-834.1 -670.9)" fill="#0b8"/>
              <path id="_Path_33" data-name="&lt;Path&gt;" d="M922.6,737.231l11.484-1.931" transform="translate(-893.142 -713.864)" fill="none" stroke="#0b8" stroke-linecap="round" stroke-linejoin="round" stroke-width="1.3"/>
            </g>
          </g>
        </g>
        <g id="_Group_26" data-name="&lt;Group&gt;" transform="translate(0 53.823)">
          <g id="_Group_27" data-name="&lt;Group&gt;" transform="translate(61.067 7.955)">
            <path id="_Path_34" data-name="&lt;Path&gt;" d="M996.141,494.3s3.4,17.109,4.627,29.092a8.3,8.3,0,0,1-16.377,2.563L978.3,497Z" transform="translate(-978.3 -467.205)" fill="#e9a88c"/>
            <path id="_Path_35" data-name="&lt;Path&gt;" d="M986.089,412.9s9.653,2.3,14.413,30.523H982.527L978.3,428.711Z" transform="translate(-978.3 -412.9)" fill="#75a0d3"/>
          </g>
          <g id="_Group_28" data-name="&lt;Group&gt;" transform="translate(10.905)">
            <path id="_Path_36" data-name="&lt;Path&gt;" d="M872.9,398.2s9.886,2.064,14.18,5.559L884.685,423s7.756,11.251.266,27.827l3.462,41.208L827.6,493.663l9.72-47.865-8.455-43.8,11.883-4.394Z" transform="translate(-827.6 -394.737)" fill="#75a0d3"/>
            <g id="_Group_29" data-name="&lt;Group&gt;" transform="translate(13.148)">
              <path id="_Path_37" data-name="&lt;Path&gt;" d="M899.254,392.462,884.941,389,867.1,391.863l22.967,11.617Z" transform="translate(-867.1 -389)" fill="#e9a88c"/>
              <path id="_Path_38" data-name="&lt;Path&gt;" d="M1002.428,468.708s-.832-6.258-3.328-10.219l.133-7.689" transform="translate(-955.163 -430.229)" fill="none" stroke="#5a7ed8" stroke-linecap="round" stroke-linejoin="round" stroke-width="1.3"/>
              <path id="_Path_39" data-name="&lt;Path&gt;" d="M886.2,467.862h10.086V464.4H886.2Z" transform="translate(-879.842 -439.302)" fill="#fff"/>
            </g>
          </g>
          <g id="_Group_30" data-name="&lt;Group&gt;" transform="translate(0 7.256)">
            <g id="_Group_31" data-name="&lt;Group&gt;">
              <g id="_Group_32" data-name="&lt;Group&gt;" transform="translate(4.248 23.7)">
                <g id="_Group_33" data-name="&lt;Group&gt;">
                  <path id="_Path_40" data-name="&lt;Path&gt;" d="M822.445,482l8.388,34.95c1.431,4.86.366,9.953-4.527,11.217-4.427,1.165-9.653-1.2-11.284-5.492-3.129-8.421-7.023-22.6-7.423-35.516Z" transform="translate(-807.6 -482)" fill="#e9a88c"/>
                  <path id="_Path_41" data-name="&lt;Path&gt;" d="M869,557.159l33.319-5.359s1.764,1.032,1.631,7.489L869,574.1Z" transform="translate(-848.563 -528.567)" fill="#e9a88c"/>
                  <path id="_Path_42" data-name="&lt;Path&gt;" d="M969.1,548.676s14.746-5.758,18.041,4.86l-16.743,2.8Z" transform="translate(-915.343 -525.442)" fill="#fff"/>
                </g>
                <path id="_Path_43" data-name="&lt;Path&gt;" d="M934.74,580.646s-23.333-2-41.84-6.624l27.228-4.993L936.3,566.4Z" transform="translate(-864.507 -538.307)" fill="#e9a88c"/>
              </g>
              <g id="_Group_34" data-name="&lt;Group&gt;">
                <path id="_Path_44" data-name="&lt;Path&gt;" d="M807.009,410.8s-16.343,1.232-11.151,35.649l27.927-3.162Z" transform="translate(-794.839 -410.8)" fill="#75a0d3"/>
                <path id="_Path_45" data-name="&lt;Path&gt;" d="M859.2,476.175l5.059-.566L861.83,458.8" transform="translate(-837.777 -442.823)" fill="none" stroke="#5a7ed8" stroke-linecap="round" stroke-linejoin="round" stroke-width="1.3"/>
              </g>
            </g>
          </g>
          <path id="_Path_46" data-name="&lt;Path&gt;" d="M922.7,576.119l17.076-7.09s10.452-.965,16.41-2.63" transform="translate(-880.14 -507.351)" fill="none" stroke="#e09069" stroke-linecap="round" stroke-linejoin="round" stroke-width="1.3"/>
          <g id="_Group_35" data-name="&lt;Group&gt;" transform="translate(21.656 49.713)">
            <path id="_Path_47" data-name="&lt;Path&gt;" d="M888.558,545.192c-.5.067-1.4-10.984-14.846-5.126-4.36,1.9-3.4,8.421-3.4,8.421l9.42-2.23Z" transform="translate(-866.79 -538.353)" fill="#fff"/>
            <path id="_Path_48" data-name="&lt;Path&gt;" d="M881.869,558.5s-13.348.865-21.969,5.259" transform="translate(-859.9 -551.794)" fill="none" stroke="#e09069" stroke-linecap="round" stroke-linejoin="round" stroke-width="1.3"/>
            <path id="_Path_49" data-name="&lt;Path&gt;" d="M870.3,558.5a8.987,8.987,0,0,0-.067,3.428" transform="translate(-866.709 -551.794)" fill="none" stroke="#e09069" stroke-linecap="round" stroke-linejoin="round" stroke-width="1.3"/>
          </g>
        </g>
        <g id="_Group_36" data-name="&lt;Group&gt;" transform="translate(16.497)">
          <path id="_Path_50" data-name="&lt;Path&gt;" d="M891.766,296.74c0,10.419-10.618,17.176-23.7,17.176S844.4,307.158,844.4,296.74s10.585-18.84,23.666-18.84S891.766,286.321,891.766,296.74Z" transform="translate(-844.4 -261.057)"/>
          <g id="_Group_37" data-name="&lt;Group&gt;" transform="translate(3.914 24.373)">
            <g id="_Group_38" data-name="&lt;Group&gt;">
              <path id="_Path_51" data-name="&lt;Path&gt;" d="M861.7,301.348s-2.7-2.1-4.66.4c-3,3.761,2.263,10.618,6.79,7.09Z" transform="translate(-856.159 -300.524)" fill="#e9a88c"/>
              <path id="_Path_52" data-name="&lt;Path&gt;" d="M864.6,310.552s1.531-.466,3.162,2.7" transform="translate(-861.79 -307.198)" fill="none" stroke="#000" stroke-linecap="round" stroke-linejoin="round" stroke-width="1.3"/>
            </g>
          </g>
          <g id="_Group_39" data-name="&lt;Group&gt;" transform="translate(36.248 24.373)">
            <g id="_Group_40" data-name="&lt;Group&gt;">
              <path id="_Path_53" data-name="&lt;Path&gt;" d="M955.464,301.348s2.7-2.1,4.66.4c3,3.761-2.263,10.618-6.824,7.09Z" transform="translate(-953.3 -300.524)" fill="#e9a88c"/>
              <path id="_Path_54" data-name="&lt;Path&gt;" d="M961.662,310.552s-1.531-.466-3.162,2.7" transform="translate(-956.769 -307.198)" fill="none" stroke="#000" stroke-linecap="round" stroke-linejoin="round" stroke-width="1.3"/>
            </g>
          </g>
          <path id="_Path_55" data-name="&lt;Path&gt;" d="M899.217,244.143A17.264,17.264,0,1,1,881.975,227.3,17.03,17.03,0,0,1,899.217,244.143Z" transform="translate(-857.943 -227.3)"/>
          <path id="_Path_56" data-name="&lt;Path&gt;" d="M896.964,348.4,895.3,366.241h13.88L906.617,348.2Z" transform="translate(-878.358 -307.957)" fill="#e9a88c"/>
          <path id="_Path_57" data-name="&lt;Path&gt;" d="M902.8,349.6c.4.233,9.586,6.99,9.586,6.99l-.766-8.388Z" transform="translate(-883.361 -307.957)" fill="#e09069"/>
          <path id="_Path_58" data-name="&lt;Path&gt;" d="M870.8,254.217s.1,26,14.646,26c17.109,0,15.312-26,15.312-26s-.1-11.717-14.779-11.717C872.5,242.5,870.8,254.217,870.8,254.217Z" transform="translate(-862.013 -237.441)" fill="#e9a88c"/>
          <g id="_Group_41" data-name="&lt;Group&gt;" transform="translate(10.019 17.141)">
            <path id="_Path_59" data-name="&lt;Path&gt;" d="M896,300.265a1.258,1.258,0,0,1-1.265,1.232,1.248,1.248,0,0,1,0-2.5A1.264,1.264,0,0,1,896,300.265Z" transform="translate(-887.176 -292.275)"/>
            <path id="_Path_60" data-name="&lt;Path&gt;" d="M933.4,300.265a1.229,1.229,0,0,1-1.232,1.232,1.248,1.248,0,1,1,0-2.5A1.236,1.236,0,0,1,933.4,300.265Z" transform="translate(-912.127 -292.275)"/>
            <path id="_Path_61" data-name="&lt;Path&gt;" d="M913.3,311.1v2.4h1.465" transform="translate(-900.385 -300.348)" fill="none" stroke="#000" stroke-linecap="round" stroke-linejoin="round" stroke-width="1.3"/>
            <path id="_Path_62" data-name="&lt;Path&gt;" d="M924.75,279.7s-.366,1.065,1.7,1.065a30.533,30.533,0,0,1,4.36.5,1.472,1.472,0,0,0,1.331-.366.508.508,0,0,0-.133-.732,9.939,9.939,0,0,0-4.527-1.365C925.049,278.765,924.75,279.7,924.75,279.7Z" transform="translate(-908.007 -278.797)"/>
            <path id="_Path_63" data-name="&lt;Path&gt;" d="M890.886,279.792s.366,1.032-1.7,1.065a30.53,30.53,0,0,0-4.36.5,1.57,1.57,0,0,1-1.332-.366.5.5,0,0,1,.133-.732,9.938,9.938,0,0,1,4.527-1.365C890.586,278.827,890.886,279.792,890.886,279.792Z" transform="translate(-880.434 -278.859)"/>
            <path id="_Path_64" data-name="&lt;Path&gt;" d="M904.2,326.9h7.789a4.759,4.759,0,0,1-4.194,2.53A3.528,3.528,0,0,1,904.2,326.9Z" transform="translate(-894.314 -310.889)" fill="#fff"/>
            <g id="_Group_42" data-name="&lt;Group&gt;" transform="translate(0 2.231)">
              <path id="_Path_65" data-name="&lt;Path&gt;" d="M886.649,291.591a6.075,6.075,0,1,1-6.091-6.091A6.087,6.087,0,0,1,886.649,291.591Z" transform="translate(-874.5 -285.5)" fill="none" stroke="#fff" stroke-width="1.3"/>
              <path id="_Path_66" data-name="&lt;Path&gt;" d="M932.249,291.591a6.075,6.075,0,1,1-6.091-6.091A6.087,6.087,0,0,1,932.249,291.591Z" transform="translate(-904.922 -285.5)" fill="none" stroke="#fff" stroke-width="1.3"/>
              <path id="_Path_67" data-name="&lt;Path&gt;" d="M914.029,302.673a2.423,2.423,0,0,0-3.029,0" transform="translate(-898.851 -296.582)" fill="none" stroke="#fff" stroke-width="1.3"/>
            </g>
          </g>
          <path id="_Path_68" data-name="&lt;Path&gt;" d="M866.8,249.856s15.911,2.962,16.51-11.384C883.31,238.472,875.288,229.385,866.8,249.856Z" transform="translate(-859.344 -233.412)"/>
          <path id="_Path_69" data-name="&lt;Path&gt;" d="M930.177,249.856S914.3,252.818,913.7,238.472C913.7,238.472,921.722,229.385,930.177,249.856Z" transform="translate(-890.633 -233.412)"/>
        </g>
      </g>
      <g id="_Group_43" data-name="&lt;Group&gt;" transform="translate(26.496 56.686)">
        <g id="_Group_44" data-name="&lt;Group&gt;">
          <g id="_Group_45" data-name="&lt;Group&gt;">
            <path id="_Path_70" data-name="&lt;Path&gt;" d="M875.659,397.6s-4.094,4.727,2.729,20.338" transform="translate(-874.44 -397.6)" fill="none" stroke="#000" stroke-linecap="round" stroke-linejoin="round" stroke-width="2"/>
            <g id="_Group_46" data-name="&lt;Group&gt;" transform="translate(0.415 17.803)">
              <path id="_Path_71" data-name="&lt;Path&gt;" d="M875.824,456.017a3.9,3.9,0,1,0,2.729-4.793A3.919,3.919,0,0,0,875.824,456.017Z" transform="translate(-875.686 -451.086)"/>
              <path id="_Path_72" data-name="&lt;Path&gt;" d="M880.956,459.091a2.177,2.177,0,0,0,4.194-1.165,2.137,2.137,0,0,0-2.663-1.5A2.168,2.168,0,0,0,880.956,459.091Z" transform="translate(-879.155 -454.593)" fill="#9ad9dc"/>
            </g>
          </g>
          <g id="_Group_47" data-name="&lt;Group&gt;" transform="translate(14.092 0.466)">
            <path id="_Path_73" data-name="&lt;Path&gt;" d="M958,399s4.76,5.692,1.431,17.542" transform="translate(-944.278 -399)" fill="none" stroke="#000" stroke-linecap="round" stroke-linejoin="round" stroke-width="2"/>
            <g id="_Group_48" data-name="&lt;Group&gt;" transform="translate(0 16.689)">
              <path id="_Path_74" data-name="&lt;Path&gt;" d="M948.517,502.455a2.55,2.55,0,0,1-2.363,1.6,2.507,2.507,0,0,1-1-.2l-.7-.3a.415.415,0,0,1-.233-.566.391.391,0,0,1,.533-.2l.7.266a1.723,1.723,0,0,0,2.3-.932c.766-1.8,2.064-4.86,3.229-7.622q.366.166.766.333C950.58,497.6,949.282,500.658,948.517,502.455Z" transform="translate(-935.061 -479.401)" fill="#9ad9dc"/>
              <path id="_Path_75" data-name="&lt;Path&gt;" d="M916.984,486.289l3.229-7.689a7.844,7.844,0,0,1,.766.3l-3.229,7.722a1.837,1.837,0,0,0,0,1.331,1.72,1.72,0,0,0,.965.965l1.165.5a.435.435,0,0,1,.233.533.425.425,0,0,1-.566.233l-1.165-.5A2.569,2.569,0,0,1,916.984,486.289Z" transform="translate(-916.776 -468.793)" fill="#9ad9dc"/>
              <path id="_Path_76" data-name="&lt;Path&gt;" d="M929.33,453.552a7.186,7.186,0,0,1,9.42-3.861,7.171,7.171,0,0,1,3.861,9.387c-.4.965-1.3,3.129-2.263,5.492q-.4-.166-.766-.333c.965-2.363,1.864-4.494,2.263-5.459a6.4,6.4,0,0,0-3.428-8.321,6.162,6.162,0,0,0-4.86,0,6.355,6.355,0,0,0-3.462,3.428l-2.23,5.359a7.838,7.838,0,0,0-.766-.3Z" transform="translate(-923.664 -449.137)"/>
              <path id="_Path_77" data-name="&lt;Path&gt;" d="M940.18,516.646a1.41,1.41,0,1,0,1.831-.766A1.394,1.394,0,0,0,940.18,516.646Z" transform="translate(-932.317 -493.591)"/>
              <path id="_Path_78" data-name="&lt;Path&gt;" d="M923.88,509.846a1.41,1.41,0,1,0,1.864-.766A1.42,1.42,0,0,0,923.88,509.846Z" transform="translate(-921.442 -489.054)"/>
            </g>
          </g>
        </g>
      </g>
    </g>
    <g id="_Group_49" data-name="&lt;Group&gt;" transform="translate(59.439 120.431)">
      <g id="_Group_50" data-name="&lt;Group&gt;" transform="translate(0 0)">
        <g id="_Group_51" data-name="&lt;Group&gt;" transform="translate(44.412)">
          <g id="_Group_52" data-name="&lt;Group&gt;" transform="translate(5.218 149.567)">
            <g id="_Group_53" data-name="&lt;Group&gt;" transform="translate(0 143.98)">
              <g id="_Group_54" data-name="&lt;Group&gt;" transform="translate(0 20.001)">
                <path id="_Path_79" data-name="&lt;Path&gt;" d="M2130.1,1173.2h-14.224l-23.479,12.547,40.374-.5Z" transform="translate(-2092.4 -1173.2)"/>
                <g id="_Group_55" data-name="&lt;Group&gt;" transform="translate(0 12.05)">
                  <path id="_Path_80" data-name="&lt;Path&gt;" d="M2122.9,1195.519a2.522,2.522,0,0,1,2.422,2.485l7.578-.062-.124-5.342-40.374.5.125,5.342,27.889-.373a2.506,2.506,0,0,1,2.485-2.547Z" transform="translate(-2092.4 -1192.6)"/>
                </g>
                <path id="_Path_81" data-name="&lt;Path&gt;" d="M2114.4,1180.6l4.659,1.3" transform="translate(-2100.734 -1176.003)" fill="none" stroke="#fff" stroke-width="0.8"/>
                <path id="_Path_82" data-name="&lt;Path&gt;" d="M2121.7,1176.9l4.658,1.242" transform="translate(-2103.5 -1174.602)" fill="none" stroke="#fff" stroke-width="0.8"/>
              </g>
              <path id="_Path_83" data-name="&lt;Path&gt;" d="M2129.8,1141h14.473v20H2129.8Z" transform="translate(-2106.569 -1141)" fill="#fff"/>
            </g>
            <g id="_Group_56" data-name="&lt;Group&gt;" transform="translate(54.288 143.98)">
              <g id="_Group_57" data-name="&lt;Group&gt;" transform="translate(0 20.001)">
                <path id="_Path_84" data-name="&lt;Path&gt;" d="M2182.671,1173.2h14.223l23.48,12.547-40.374-.5Z" transform="translate(-2179.876 -1173.2)"/>
                <g id="_Group_58" data-name="&lt;Group&gt;" transform="translate(0 12.05)">
                  <path id="_Path_85" data-name="&lt;Path&gt;" d="M2189.8,1195.519a2.48,2.48,0,0,0-2.423,2.485l-7.578-.062.124-5.342,40.374.5-.124,5.342-27.889-.373A2.506,2.506,0,0,0,2189.8,1195.519Z" transform="translate(-2179.8 -1192.6)"/>
                </g>
                <path id="_Path_86" data-name="&lt;Path&gt;" d="M2220.158,1180.6l-4.658,1.3" transform="translate(-2193.325 -1176.003)" fill="none" stroke="#fff" stroke-width="0.8"/>
                <path id="_Path_87" data-name="&lt;Path&gt;" d="M2212.858,1176.9l-4.659,1.242" transform="translate(-2190.56 -1174.602)" fill="none" stroke="#fff" stroke-width="0.8"/>
              </g>
              <path id="_Path_88" data-name="&lt;Path&gt;" d="M2197.172,1141H2182.7l.994,20h14.473Z" transform="translate(-2180.898 -1141)" fill="#fff"/>
            </g>
            <g id="_Group_59" data-name="&lt;Group&gt;" transform="translate(19.549)">
              <path id="_Path_89" data-name="&lt;Path&gt;" d="M2170.1,909.2c.932,10.062,7.64,156.279,7.64,156.279h-19.566l-8.51-131.371-3.54.062-2.3,131.309h-19.5s-1.056-136.651.063-155.968Z" transform="translate(-2123.874 -909.2)" fill="#3471b7"/>
              <path id="_Path_90" data-name="&lt;Path&gt;" d="M2151.7,949.5h11.988" transform="translate(-2134.416 -924.468)" fill="none" stroke="#4869b7" stroke-linecap="round" stroke-linejoin="round" stroke-width="0.8"/>
              <rect id="Rectangle_2551" data-name="Rectangle 2551" width="22" height="5" transform="translate(14.382 -3.999)" fill="#1d4480"/>
            </g>
          </g>
          <g id="_Group_60" data-name="&lt;Group&gt;" transform="translate(30.745)">
            <g id="_Group_61" data-name="&lt;Group&gt;" transform="translate(0 27.078)">
              <path id="_Path_91" data-name="&lt;Path&gt;" d="M2143.686,716.968a5.1,5.1,0,1,1-5.218-4.969A5.08,5.08,0,0,1,2143.686,716.968Z" transform="translate(-2133.498 -711.998)" fill="#e9a88c"/>
              <path id="_Path_92" data-name="&lt;Path&gt;" d="M2137,719.022s2.049-.994,3.975,2.547" transform="translate(-2134.825 -714.61)" fill="none" stroke="#000" stroke-linecap="round" stroke-linejoin="round" stroke-width="0.8"/>
            </g>
            <g id="_Group_62" data-name="&lt;Group&gt;" transform="translate(28.76 27.203)">
              <path id="_Path_93" data-name="&lt;Path&gt;" d="M2179.8,717.293a5.093,5.093,0,0,0,10.187,0,5.093,5.093,0,1,0-10.187,0Z" transform="translate(-2179.8 -712.2)" fill="#e9a88c"/>
              <path id="_Path_94" data-name="&lt;Path&gt;" d="M2190.251,719.034s-2.049-.932-3.851,2.671" transform="translate(-2182.3 -714.748)" fill="none" stroke="#000" stroke-linecap="round" stroke-linejoin="round" stroke-width="0.8"/>
            </g>
            <path id="_Path_95" data-name="&lt;Path&gt;" d="M2145.138,682.852s-4.286-1.677-7.764,3.789c-5.156,8.075,4.472,20.932,4.472,20.932Z" transform="translate(-2134.391 -673.786)"/>
            <path id="_Path_96" data-name="&lt;Path&gt;" d="M2178.7,682.852s4.286-1.677,7.765,3.789c5.155,8.075-4.473,20.932-4.473,20.932Z" transform="translate(-2150.623 -673.786)"/>
            <path id="_Path_97" data-name="&lt;Path&gt;" d="M2170.737,695.387a16.118,16.118,0,1,1-16.149-16.087A16.1,16.1,0,0,1,2170.737,695.387Z" transform="translate(-2135.393 -672.532)"/>
            <g id="_Group_63" data-name="&lt;Group&gt;" transform="translate(5.443 8.134)">
              <g id="_Group_64" data-name="&lt;Group&gt;" transform="translate(6.174 34.535)">
                <path id="_Path_98" data-name="&lt;Path&gt;" d="M2165.865,737.659s-2.174,2.8-4.783,3.292a8.362,8.362,0,0,1-5.217-1.056c-.062,0-2.422-2.8-2.422-2.8l-1.242,17.765,15.28-.062Z" transform="translate(-2152.2 -737.1)" fill="#e9a88c"/>
              </g>
              <path id="_Path_99" data-name="&lt;Path&gt;" d="M2155.4,740.733l12.485,7.019-.808-9.752Z" transform="translate(-2147.238 -702.906)" fill="#e09069"/>
              <path id="_Path_100" data-name="&lt;Path&gt;" d="M2170.049,696.78a61.209,61.209,0,0,1-1.615,14.286c-.807,3.416-3.043,5.839-6.211,7.826l-.621.311a11.077,11.077,0,0,1-11.181.124c-3.478-1.988-5.9-4.6-6.646-8.323a74.73,74.73,0,0,1-1.429-12.609s-1.987-16.895,13.044-16.895C2171.6,681.5,2170.049,696.78,2170.049,696.78Z" transform="translate(-2142.26 -681.5)" fill="#e9a88c"/>
            </g>
            <g id="_Group_65" data-name="&lt;Group&gt;" transform="translate(8.278 19.064)">
              <path id="_Path_101" data-name="&lt;Path&gt;" d="M2154.685,713.442a1.243,1.243,0,0,1-2.485-.062,1.279,1.279,0,0,1,1.243-1.18A1.246,1.246,0,0,1,2154.685,713.442Z" transform="translate(-2148.861 -704.061)"/>
              <path id="_Path_102" data-name="&lt;Path&gt;" d="M2173.822,713.48a1.194,1.194,0,0,1-1.18,1.242,1.246,1.246,0,0,1-1.242-1.242,1.194,1.194,0,0,1,1.242-1.18A1.142,1.142,0,0,1,2173.822,713.48Z" transform="translate(-2156.136 -704.099)"/>
              <path id="_Path_103" data-name="&lt;Path&gt;" d="M2162.824,715.5l-.124,4.162h1.74" transform="translate(-2152.84 -705.311)" fill="none" stroke="#000" stroke-linecap="round" stroke-linejoin="round" stroke-width="0.8"/>
              <path id="_Path_104" data-name="&lt;Path&gt;" d="M2168.689,700.217s-.31,1.3,1.677,1.3a23.427,23.427,0,0,1,4.348.621,1.113,1.113,0,0,0,1.242-.435.682.682,0,0,0-.125-.932,7.758,7.758,0,0,0-4.41-1.677c-2.423-.062-2.733,1.118-2.733,1.118Z" transform="translate(-2155.102 -699.096)"/>
              <path id="_Path_105" data-name="&lt;Path&gt;" d="M2154.2,700.217s.372,1.3-1.677,1.366a18.537,18.537,0,0,0-4.286.621,1.4,1.4,0,0,1-1.3-.5.762.762,0,0,1,.124-.932,8.711,8.711,0,0,1,4.472-1.677C2153.952,699.036,2154.2,700.217,2154.2,700.217Z" transform="translate(-2146.825 -699.096)"/>
              <path id="_Path_106" data-name="&lt;Path&gt;" d="M2160.9,729.607s2.919,1.18,4.845-.808" transform="translate(-2152.157 -710.35)" fill="none" stroke="#000" stroke-linecap="round" stroke-linejoin="round" stroke-width="0.8"/>
            </g>
            <path id="_Path_107" data-name="&lt;Path&gt;" d="M2170.1,683.185a27.109,27.109,0,0,0-25.219-2.671s-6.832-8.385,3.789-11.491C2159.229,665.917,2169.167,675.11,2170.1,683.185Z" transform="translate(-2136.991 -668.404)"/>
          </g>
          <g id="_Group_66" data-name="&lt;Group&gt;" transform="translate(0 60.372)">
            <g id="_Group_67" data-name="&lt;Group&gt;" transform="translate(0 8.51)">
              <g id="_Group_68" data-name="&lt;Group&gt;" transform="translate(1.045 69.071)">
                <g id="_Group_69" data-name="&lt;Group&gt;" transform="translate(0 33.512)">
                  <path id="_Path_108" data-name="&lt;Path&gt;" d="M2095.28,977.6l-2.112,12.733a1.284,1.284,0,0,1-1.491,1.118,1.322,1.322,0,0,1-1.18-1.429l.373-6.149Z" transform="translate(-2087.504 -957.011)" fill="#e09069"/>
                  <path id="_Path_109" data-name="&lt;Path&gt;" d="M2092.277,944.668a3.506,3.506,0,0,1,4.534,2.174l1.056,3.106s3.541,5.714,1.864,12.05a23.819,23.819,0,0,0-.994,8.013,1.542,1.542,0,0,1-1.18,1.615,1.5,1.5,0,0,1-1.8-.994,22.075,22.075,0,0,1-.87-6.957l-6.957,14.224a1.188,1.188,0,0,1-1.677.5,1.173,1.173,0,0,1-.559-1.18l2.919-18.137s1.056-6.522,1.366-11.118A3.5,3.5,0,0,1,2092.277,944.668Z" transform="translate(-2085.682 -944.452)" fill="#e9a88c"/>
                </g>
                <path id="_Path_110" data-name="&lt;Path&gt;" d="M2095.209,890.5l-2.609,36.771,6.522,1.491,6.646-33.479Z" transform="translate(-2088.303 -890.5)" fill="#e9a88c"/>
              </g>
              <path id="_Path_111" data-name="&lt;Path&gt;" d="M2108.038,779.3s-11.988,3.354-14.721,28.076c-2.857,25.591-9.317,77.518-9.317,77.518l17.392.435,13.043-86.09Z" transform="translate(-2084 -779.3)" fill="#55e1bb"/>
            </g>
            <g id="_Group_70" data-name="&lt;Group&gt;" transform="translate(21.926)">
              <g id="_Group_71" data-name="&lt;Group&gt;" transform="translate(10.435)">
                <path id="_Path_112" data-name="&lt;Path&gt;" d="M2141.876,769.8l-5.777,10.808v72.487h35.095V777.316l-5.653-7.516Z" transform="translate(-2136.1 -767.191)" fill="#fff"/>
                <g id="_Group_72" data-name="&lt;Group&gt;" transform="translate(5.777)">
                  <path id="_Path_113" data-name="&lt;Path&gt;" d="M2167.48,765.6l-7.019,7.081-8.261-7.019Z" transform="translate(-2147.976 -765.6)" fill="#e9a88c"/>
                  <path id="_Path_114" data-name="&lt;Path&gt;" d="M2149.624,765.7l-4.224,2.547,6.212,10.808,6.273-6.335Z" transform="translate(-2145.4 -765.638)" fill="#3471b7"/>
                  <path id="_Path_115" data-name="&lt;Path&gt;" d="M2172.519,765.6l4.161,2.609-4.969,10.808-6.211-6.336Z" transform="translate(-2153.015 -765.6)" fill="#3471b7"/>
                </g>
              </g>
              <g id="_Group_73" data-name="&lt;Group&gt;" transform="translate(0 2.609)">
                <path id="_Path_116" data-name="&lt;Path&gt;" d="M2135.512,769.8l-14.1,5.9L2119.3,916.14h20.933Z" transform="translate(-2119.3 -769.8)" fill="#55e1bb"/>
                <path id="_Path_117" data-name="&lt;Path&gt;" d="M2121,865.81V823.2" transform="translate(-2119.944 -790.031)" fill="none" stroke="#0b8" stroke-linecap="round" stroke-linejoin="round" stroke-width="0.8"/>
                <path id="_Path_118" data-name="&lt;Path&gt;" d="M2139.065,770.3l-9.565,10.5,6.646,4.41-4.472,5.218,9.69,42.051" transform="translate(-2123.164 -769.989)" fill="none" stroke="#0b8" stroke-linecap="round" stroke-linejoin="round" stroke-width="0.8"/>
              </g>
              <g id="_Group_74" data-name="&lt;Group&gt;" transform="translate(37.206 2.609)">
                <path id="_Path_119" data-name="&lt;Path&gt;" d="M2181.871,769.8l14.162,5.9,4.1,140.44H2179.2Z" transform="translate(-2179.2 -769.8)" fill="#55e1bb"/>
                <path id="_Path_120" data-name="&lt;Path&gt;" d="M2182.9,770.3l9.628,10.5-6.708,4.41,4.472,5.218-9.689,42.051" transform="translate(-2179.731 -769.989)" fill="none" stroke="#0b8" stroke-linecap="round" stroke-linejoin="round" stroke-width="0.8"/>
              </g>
            </g>
            <g id="_Group_75" data-name="&lt;Group&gt;" transform="translate(53.045 7.826)">
              <path id="_Path_121" data-name="&lt;Path&gt;" d="M2201.171,778.2s12.361,1.118,19.566,24.908A325.68,325.68,0,0,1,2229,836.525c.807,4.41-.745,11.3-5.218,12.3-4.1.87-9.565-4.1-10.932-8.075l-14.348-41.8Z" transform="translate(-2180.425 -778.2)" fill="#55e1bb"/>
              <g id="_Group_76" data-name="&lt;Group&gt;" transform="translate(0 19.007)">
                <g id="_Group_77" data-name="&lt;Group&gt;">
                  <path id="_Path_122" data-name="&lt;Path&gt;" d="M2182.6,831.968l7.95-17.143L2223.1,808.8l-20,32.051-5.094,4.783-7.826,1.429-9.379-7.516Z" transform="translate(-2173.719 -808.8)"/>
                  <path id="_Path_123" data-name="&lt;Path&gt;" d="M2195.612,855.1l-10.187-1.056s3.417-8.261-7.143-9.379l.994-2.36-2.112.187a7.51,7.51,0,0,0-4.969,3.106l-1.677,3.6a5.861,5.861,0,0,0-1.118,3.541v1.553a6.077,6.077,0,0,0,3.229,5.4l8.2,3.541s8.385,3.354,20.684,2.547c0,0,.683-8.2-5.9-10.684Z" transform="translate(-2169.4 -821.492)" fill="#e9a88c"/>
                </g>
                <g id="_Group_78" data-name="&lt;Group&gt;" transform="translate(19.379 32.051)">
                  <path id="_Path_124" data-name="&lt;Path&gt;" d="M2204.327,860.8l-3.727,17.765,22.919,1.615,1.056-19.379Z" transform="translate(-2200.6 -860.551)" fill="#55e1bb"/>
                  <path id="_Path_125" data-name="&lt;Path&gt;" d="M2218,860.4h10.249" transform="translate(-2207.192 -860.4)" fill="none" stroke="#0b8" stroke-linecap="round" stroke-linejoin="round" stroke-width="0.8"/>
                </g>
              </g>
            </g>
          </g>
        </g>
      </g>
    </g>
  </g>
</svg>
