<svg width="30" height="30" viewBox="0 0 30 30" fill="none" xmlns="http://www.w3.org/2000/svg">
<path d="M18.1034 8.43626C18.1034 8.70952 18.0224 8.97664 17.8706 9.20385C17.7188 9.43106 17.503 9.60815 17.2505 9.71272C16.9981 9.8173 16.7203 9.84466 16.4522 9.79135C16.1842 9.73804 15.938 9.60645 15.7448 9.41322C15.5516 9.22 15.42 8.97382 15.3667 8.70581C15.3134 8.43779 15.3407 8.15999 15.4453 7.90753C15.5499 7.65507 15.727 7.43929 15.9542 7.28747C16.1814 7.13565 16.4485 7.05462 16.7218 7.05462C16.9032 7.05462 17.0829 7.09036 17.2505 7.15979C17.4181 7.22922 17.5705 7.33099 17.6987 7.45929C17.827 7.58759 17.9288 7.7399 17.9983 7.90753C18.0677 8.07515 18.1034 8.25482 18.1034 8.43626ZM14.981 19.6116L16.8879 12.4946C17.2407 11.178 15.2189 10.6344 13.9114 11.2663C13.0948 11.6619 12.3991 12.2691 11.8966 13.0246C12.7182 12.6639 14.5527 11.8476 13.8856 14.3371L11.9787 21.4539C11.6258 22.7705 13.6477 23.3141 14.9551 22.6822C15.7717 22.2866 16.4674 21.6795 16.97 20.9241C16.1483 21.2848 14.3139 22.101 14.981 19.6116ZM28 15C28 17.5712 27.2376 20.0846 25.8091 22.2224C24.3806 24.3602 22.3503 26.0265 19.9749 27.0104C17.5994 27.9944 14.9856 28.2518 12.4638 27.7502C9.94208 27.2486 7.6257 26.0105 5.80762 24.1924C3.98953 22.3743 2.7514 20.0579 2.2498 17.5362C1.74819 15.0144 2.00563 12.4006 2.98957 10.0251C3.97351 7.64967 5.63975 5.61935 7.77759 4.19089C9.91543 2.76244 12.4288 2 15 2C18.4466 2.00391 21.7509 3.3748 24.1881 5.81193C26.6252 8.24905 27.9961 11.5534 28 15ZM26.5556 15C26.5556 12.7145 25.8778 10.4804 24.6081 8.58008C23.3384 6.67977 21.5336 5.19867 19.4221 4.32406C17.3106 3.44945 14.9872 3.22061 12.7456 3.66648C10.5041 4.11235 8.44507 5.21291 6.82899 6.82899C5.21292 8.44506 4.11236 10.5041 3.66649 12.7456C3.22061 14.9872 3.44945 17.3106 4.32406 19.4221C5.19868 21.5336 6.67978 23.3383 8.58008 24.6081C10.4804 25.8778 12.7145 26.5555 15 26.5555C18.0637 26.5521 21.0009 25.3335 23.1672 23.1672C25.3335 21.0009 26.5521 18.0637 26.5556 15Z" fill="#5756C8" stroke="#5756C8" stroke-width="0.5"/>
</svg>
