<svg width="29" height="29" viewBox="0 0 29 29" fill="none" xmlns="http://www.w3.org/2000/svg">
<path d="M13.125 21.375H15.875V15.875H21.375V13.125H15.875V7.625H13.125V13.125H7.625V15.875H13.125V21.375ZM14.5 28.25C12.5979 28.25 10.8104 27.8948 9.1375 27.1844C7.46458 26.451 6.00938 25.4656 4.77188 24.2281C3.53438 22.9906 2.54896 21.5354 1.81563 19.8625C1.10521 18.1896 0.75 16.4021 0.75 14.5C0.75 12.5979 1.10521 10.8104 1.81563 9.1375C2.54896 7.46458 3.53438 6.00937 4.77188 4.77187C6.00938 3.53437 7.46458 2.56042 9.1375 1.85C10.8104 1.11667 12.5979 0.75 14.5 0.75C16.4021 0.75 18.1896 1.11667 19.8625 1.85C21.5354 2.56042 22.9906 3.53437 24.2281 4.77187C25.4656 6.00937 26.4396 7.46458 27.15 9.1375C27.8833 10.8104 28.25 12.5979 28.25 14.5C28.25 16.4021 27.8833 18.1896 27.15 19.8625C26.4396 21.5354 25.4656 22.9906 24.2281 24.2281C22.9906 25.4656 21.5354 26.451 19.8625 27.1844C18.1896 27.8948 16.4021 28.25 14.5 28.25ZM14.5 25.5C17.5708 25.5 20.1719 24.4344 22.3031 22.3031C24.4344 20.1719 25.5 17.5708 25.5 14.5C25.5 11.4292 24.4344 8.82812 22.3031 6.69687C20.1719 4.56562 17.5708 3.5 14.5 3.5C11.4292 3.5 8.82812 4.56562 6.69687 6.69687C4.56562 8.82812 3.5 11.4292 3.5 14.5C3.5 17.5708 4.56562 20.1719 6.69687 22.3031C8.82812 24.4344 11.4292 25.5 14.5 25.5Z" fill="#5756C8" stroke="white" stroke-width="0.5"/>
</svg>
