<svg width="21" height="20" viewBox="0 0 21 20" fill="none" xmlns="http://www.w3.org/2000/svg">
<path fill-rule="evenodd" clip-rule="evenodd" d="M16.5273 1.4582C16.7405 1.21776 16.7185 0.849978 16.478 0.636762C16.2376 0.423539 15.8698 0.445614 15.6565 0.686067L14.1915 2.33821C13.9783 2.57865 14.0004 2.94643 14.2408 3.15964C14.4813 3.37287 14.8491 3.3508 15.0623 3.11034L16.5273 1.4582ZM8.77271 1.85179C9.70996 0.548249 11.6802 0.646617 12.483 2.03702L16.8432 9.58912C17.6402 10.9697 16.7589 12.7144 15.1748 12.8921L10.186 13.4518L12.2699 17.3883C12.635 18.0778 12.389 18.9326 11.7133 19.3228C11.0366 19.7135 10.172 19.4978 9.75809 18.835L7.24624 14.8124L6.32461 15.3445C5.51845 15.8099 4.54107 15.7101 3.85146 15.1679C2.69979 15.4947 1.43021 15.0141 0.804372 13.9301C0.187188 12.8611 0.391168 11.5433 1.2206 10.7072C1.02994 9.798 1.43 8.83056 2.27773 8.33991L5.41205 6.52581L8.77271 1.85179ZM1.77951 11.8946C1.55017 12.3374 1.5444 12.8842 1.81224 13.3482C2.0801 13.8121 2.55653 14.0805 3.0547 14.1033L1.77951 11.8946ZM8.25471 14.2302L9.04094 13.7762L11.2414 17.9328C11.3135 18.069 11.2649 18.2378 11.1314 18.3149C10.9978 18.3921 10.827 18.3495 10.7452 18.2185L8.25471 14.2302ZM11.4751 2.61892C11.0948 1.96031 10.1616 1.91371 9.71759 2.53117L6.34129 7.22695L9.31548 12.3784L15.045 11.7356C15.7954 11.6514 16.2129 10.825 15.8353 10.171L11.4751 2.61892ZM2.86072 9.34715L5.37979 7.88915L8.26237 12.8819L5.74271 14.3366C5.24174 14.6259 4.60115 14.4542 4.31192 13.9533L2.4783 10.7774C2.18931 10.2768 2.36043 9.6367 2.86072 9.34715ZM15.5195 5.43408C15.3588 5.15577 15.4542 4.79989 15.7325 4.63919L17.5467 3.59178C17.825 3.43111 18.1809 3.52647 18.3416 3.80478C18.5022 4.08308 18.4069 4.43897 18.1286 4.59967L16.3144 5.64708C16.0361 5.80775 15.6802 5.71239 15.5195 5.43408ZM17.3033 6.99201C16.9885 7.05643 16.7855 7.36391 16.8499 7.67876C16.9143 7.99361 17.2218 8.1966 17.5366 8.13217L19.7 7.68949C20.0148 7.62506 20.2178 7.31759 20.1534 7.00273C20.089 6.68791 19.7815 6.48489 19.4666 6.54932L17.3033 6.99201Z" fill="#298385" stroke="#298385" stroke-width="0.5"/>
</svg>
