<svg width="39" height="17" viewBox="0 0 39 17" fill="none" xmlns="http://www.w3.org/2000/svg">
<path d="M7.12338 2.59629C6.66635 3.13516 5.9351 3.55898 5.20385 3.49844C5.11245 2.77187 5.47198 1.99688 5.89245 1.52461C6.34948 0.973633 7.14776 0.580078 7.79979 0.549805C7.87291 1.30059 7.57432 2.04531 7.12338 2.59629ZM7.7876 3.6377C6.72729 3.57715 5.81932 4.23711 5.31963 4.23711C4.80776 4.23711 4.03995 3.66797 3.19901 3.68613C2.10823 3.7043 1.09666 4.31582 0.542133 5.29063C-0.603492 7.24629 0.243539 10.1344 1.3526 11.7268C1.89495 12.5139 2.54088 13.3797 3.39401 13.3494C4.20448 13.3191 4.52135 12.8287 5.49635 12.8287C6.47745 12.8287 6.76385 13.3494 7.61698 13.3373C8.50057 13.3191 9.0551 12.5502 9.59744 11.7631C10.2129 10.867 10.4689 10.0012 10.481 9.95273C10.4628 9.93457 8.77479 9.29277 8.75651 7.35527C8.73823 5.73262 10.091 4.96367 10.152 4.91524C9.39026 3.78906 8.20198 3.66797 7.7876 3.6377ZM13.9057 1.4459V13.2465H15.7521V9.21406H18.3054C20.6393 9.21406 22.2724 7.62168 22.2724 5.3209C22.2724 3.02012 20.6637 1.4459 18.3664 1.4459H13.9057ZM15.7521 2.98984H17.8789C19.4815 2.98984 20.3956 3.8375 20.3956 5.32695C20.3956 6.81641 19.4815 7.67617 17.8728 7.67617H15.7521V2.98984ZM25.6362 13.3373C26.794 13.3373 27.8665 12.7561 28.354 11.8297H28.3906V13.2465H30.0968V7.37344C30.0968 5.67207 28.7257 4.57012 26.6173 4.57012C24.6612 4.57012 23.2109 5.68418 23.156 7.20996H24.8196C24.9598 6.4834 25.6362 6.00508 26.5624 6.00508C27.6898 6.00508 28.3235 6.52578 28.3235 7.48848V8.14238L26.0201 8.28164C23.8812 8.40879 22.7234 9.28066 22.7234 10.7943C22.7295 12.3201 23.9239 13.3373 25.6362 13.3373ZM26.1359 11.9387C25.1548 11.9387 24.5271 11.4664 24.5271 10.752C24.5271 10.0072 25.1304 9.57734 26.2821 9.51074L28.3296 9.38359V10.0496C28.3296 11.1516 27.3851 11.9387 26.1359 11.9387ZM32.382 16.4555C34.1796 16.4555 35.0267 15.7713 35.764 13.7066L38.9998 4.68516H37.1229L34.9535 11.6541H34.917L32.7476 4.68516H30.822L33.942 13.2768L33.7714 13.7975C33.491 14.6814 33.034 15.0266 32.2174 15.0266C32.0712 15.0266 31.7909 15.0084 31.6751 14.9963V16.4131C31.7848 16.4373 32.2418 16.4555 32.382 16.4555Z" fill="black"/>
</svg>
