<svg width="14" height="8" viewBox="0 0 14 8" fill="none" xmlns="http://www.w3.org/2000/svg">
<path d="M6.99605 8C6.85903 8 6.73254 7.97642 6.6166 7.92927C6.50066 7.87688 6.38999 7.7983 6.28458 7.69352L0.260869 1.57171C0.0869562 1.39358 -2.98165e-07 1.17878 -3.09157e-07 0.927309C-3.16714e-07 0.754421 0.0421604 0.59987 0.126482 0.463655C0.205533 0.322201 0.31357 0.209562 0.450593 0.125737C0.587615 0.0419125 0.743083 4.44356e-07 0.916996 4.36754e-07C1.16469 4.25927e-07 1.38603 0.0969223 1.58103 0.290767L6.99605 5.80747L12.4111 0.290766C12.6061 0.0969218 12.83 -8.39817e-08 13.083 -9.50391e-08C13.2516 -1.02411e-07 13.4045 0.041912 13.5415 0.125737C13.6838 0.209561 13.7945 0.3222 13.8735 0.463654C13.9578 0.599869 14 0.75442 14 0.927308C14 1.17878 13.9104 1.39358 13.7312 1.57171L7.70751 7.69352C7.60211 7.7983 7.49144 7.87688 7.37549 7.92927C7.25955 7.97642 7.13307 8 6.99605 8Z" fill="#181B1F"/>
</svg>
