<svg width="15" height="9" viewBox="0 0 15 9" fill="none" xmlns="http://www.w3.org/2000/svg">
<path d="M7.49577 9C7.34896 9 7.21344 8.97348 7.08922 8.92043C6.96499 8.86149 6.84641 8.77308 6.73348 8.65521L0.279503 1.76817C0.0931677 1.56778 0 1.32613 0 1.04322C0 0.848724 0.0451722 0.674853 0.135517 0.521612C0.220215 0.362476 0.335968 0.235758 0.482778 0.141455C0.629588 0.0471525 0.79616 9.18873e-07 0.982496 9.10728e-07C1.24788 8.99128e-07 1.48504 0.109038 1.69396 0.327113L7.49577 6.5334L13.2976 0.327113C13.5065 0.109038 13.7465 3.52797e-07 14.0175 3.4095e-07C14.1982 3.33052e-07 14.3619 0.0471519 14.5088 0.141454C14.6612 0.235757 14.7798 0.362476 14.8645 0.521612C14.9548 0.674853 15 0.848724 15 1.04322C15 1.32613 14.904 1.56778 14.712 1.76817L8.25805 8.65521C8.14512 8.77308 8.02654 8.86149 7.90232 8.92043C7.77809 8.97348 7.64257 9 7.49577 9Z" fill="#88909E"/>
</svg>
