<svg width="17" height="22" viewBox="0 0 17 22" fill="none" xmlns="http://www.w3.org/2000/svg">
<path d="M1.33203 11.2441C1.33203 11.0579 1.36426 10.8861 1.42871 10.7285C1.50033 10.571 1.60775 10.4206 1.75098 10.2773L10.1191 2.0918C10.3626 1.85547 10.6562 1.7373 11 1.7373C11.2363 1.7373 11.4476 1.7946 11.6338 1.90918C11.8271 2.0166 11.9811 2.16341 12.0957 2.34961C12.2103 2.53581 12.2676 2.74707 12.2676 2.9834C12.2676 3.31999 12.1351 3.62077 11.8701 3.88574L4.3291 11.2441L11.8701 18.6025C12.1351 18.8675 12.2676 19.1719 12.2676 19.5156C12.2676 19.7448 12.2103 19.9525 12.0957 20.1387C11.9811 20.332 11.8271 20.4824 11.6338 20.5898C11.4476 20.7044 11.2363 20.7617 11 20.7617C10.6562 20.7617 10.3626 20.64 10.1191 20.3965L1.75098 12.2109C1.60775 12.0677 1.50033 11.9173 1.42871 11.7598C1.36426 11.6022 1.33203 11.4303 1.33203 11.2441Z" fill="white"/>
</svg>
