<svg width="16" height="20" viewBox="0 0 16 20" fill="none" xmlns="http://www.w3.org/2000/svg">
<path d="M15.1957 0H0.799776C0.587663 0 0.384237 0.0842618 0.23425 0.234249C0.0842633 0.384235 1.60213e-06 0.587661 1.60213e-06 0.799775V18.3948C-0.000298372 18.5447 0.0415315 18.6917 0.120721 18.8189C0.19991 18.9462 0.313271 19.0487 0.447875 19.1146C0.558606 19.1647 0.678292 19.1919 0.799776 19.1946C0.976486 19.194 1.14804 19.135 1.28764 19.0266L7.99775 13.8121L14.6999 19.0266C14.818 19.12 14.9602 19.1781 15.1099 19.1943C15.2596 19.2105 15.4109 19.184 15.5463 19.118C15.6817 19.052 15.7956 18.9491 15.8751 18.8211C15.9546 18.6932 15.9963 18.5454 15.9955 18.3948V0.799775C15.9955 0.587661 15.9112 0.384235 15.7612 0.234249C15.6113 0.0842618 15.4078 0 15.1957 0ZM14.3959 16.7953L8.48561 12.2046C8.35137 12.0818 8.17929 12.0084 7.99775 11.9966C7.8183 11.9954 7.64365 12.0545 7.50189 12.1646L1.59955 16.7953V1.59955H14.3959V16.7953Z" fill="#181B1F"/>
</svg>
