<svg width="17" height="21" viewBox="0 0 17 21" fill="none" xmlns="http://www.w3.org/2000/svg">
<path d="M15.4692 0.900391H1.07321C0.8611 0.900391 0.657674 0.984652 0.507688 1.13464C0.357701 1.28463 0.273439 1.48805 0.273439 1.70017V19.2952C0.273139 19.4451 0.314969 19.5921 0.394158 19.7193C0.473347 19.8466 0.586708 19.9491 0.721313 20.015C0.832044 20.0651 0.95173 20.0923 1.07321 20.095C1.24992 20.0944 1.42148 20.0354 1.56108 19.927L8.27119 14.7125L14.9733 19.927C15.0915 20.0204 15.2336 20.0785 15.3833 20.0947C15.5331 20.1109 15.6844 20.0844 15.8197 20.0184C15.9551 19.9524 16.0691 19.8495 16.1485 19.7215C16.228 19.5936 16.2697 19.4458 16.2689 19.2952V1.70017C16.2689 1.48805 16.1847 1.28463 16.0347 1.13464C15.8847 0.984652 15.6813 0.900391 15.4692 0.900391ZM14.6694 17.6957L8.75905 13.105C8.62481 12.9822 8.45272 12.9088 8.27119 12.897C8.09174 12.8958 7.91709 12.9549 7.77533 13.065L1.87299 17.6957V2.49994H14.6694V17.6957Z" fill="#88909E"/>
</svg>
