<svg width="27" height="27" viewBox="0 0 27 27" fill="none" xmlns="http://www.w3.org/2000/svg">
<path d="M13.4933 22.6172C13.2771 22.6172 13.0775 22.581 12.8946 22.5087C12.7116 22.4283 12.537 22.3078 12.3707 22.147L2.86573 12.7556C2.59131 12.4823 2.4541 12.1528 2.4541 11.767C2.4541 11.5018 2.52063 11.2647 2.65368 11.0557C2.77842 10.8387 2.94889 10.6659 3.1651 10.5374C3.38131 10.4088 3.62663 10.3445 3.90105 10.3445C4.29189 10.3445 4.64116 10.4931 4.94884 10.7905L13.4933 19.2536L22.0378 10.7905C22.3455 10.4931 22.6989 10.3445 23.0981 10.3445C23.3642 10.3445 23.6053 10.4088 23.8215 10.5374C24.0461 10.6659 24.2207 10.8387 24.3454 11.0557C24.4785 11.2647 24.545 11.5018 24.545 11.767C24.545 12.1528 24.4036 12.4823 24.1209 12.7556L14.616 22.147C14.4496 22.3078 14.275 22.4283 14.0921 22.5087C13.9091 22.581 13.7095 22.6172 13.4933 22.6172Z" fill="#B3B3B3"/>
</svg>
