<svg width="30" height="30" viewBox="0 0 30 30" fill="none" xmlns="http://www.w3.org/2000/svg">
<path fill-rule="evenodd" clip-rule="evenodd" d="M11.2639 4.37969V2.76544C11.2639 2.34316 11.6108 2 12.0391 2H17.9628C18.391 2 18.7379 2.34209 18.7379 2.76544V4.37969C18.7379 4.76133 18.8832 5.05641 19.1867 5.28837C19.8676 5.80899 20.6362 6.2473 21.4341 6.56909C21.7821 6.70914 22.1323 6.68669 22.4586 6.50067L23.8799 5.69355C24.2485 5.48402 24.7212 5.60803 24.9337 5.97149L27.8955 11.0301C28.1102 11.3946 27.9833 11.8618 27.6136 12.0724L26.1956 12.8796C25.865 13.0677 25.6742 13.3467 25.6221 13.7187C25.5083 14.5483 25.5083 15.4527 25.6221 16.2813C25.6731 16.6533 25.8639 16.9323 26.1956 17.1205L27.6136 17.9276C27.9833 18.1392 28.1091 18.6054 27.8955 18.9699L24.9337 24.0285C24.719 24.393 24.2463 24.5171 23.8766 24.3065L22.4564 23.4983C22.129 23.3122 21.781 23.2887 21.433 23.4298C20.634 23.7527 19.8676 24.191 19.1846 24.7127C18.881 24.9447 18.7368 25.2397 18.7368 25.6203V27.2356C18.7368 27.6579 18.3899 28 17.9617 28H12.038C11.6097 28 11.2628 27.6579 11.2628 27.2356V25.6214C11.2628 25.2397 11.1176 24.9447 10.814 24.7127C10.1353 24.1942 9.35694 23.7506 8.56661 23.4309C8.21861 23.2909 7.86844 23.3133 7.54104 23.5004L6.123 24.3075C5.75333 24.5181 5.28063 24.3941 5.06599 24.0296L2.10414 18.971C1.89057 18.6064 2.01633 18.1392 2.386 17.9286L3.80404 17.1215C4.13577 16.9334 4.3255 16.6544 4.37753 16.2823C4.49137 15.4538 4.49137 14.5494 4.37753 13.7198C4.32658 13.3499 4.13469 13.0666 3.80728 12.8806L2.38925 12.0735C2.01522 11.8608 1.89055 11.384 2.10414 11.0312L5.06599 5.97256C5.27956 5.60803 5.75333 5.484 6.123 5.69462L7.57248 6.52098C7.86953 6.6931 8.24681 6.70058 8.56661 6.57123C9.36127 6.25051 10.1288 5.81221 10.814 5.29051C11.1176 5.05852 11.2628 4.76346 11.2628 4.38182L11.2639 4.37969ZM15.0009 9.46841C11.9025 9.46841 9.39055 11.9454 9.39055 15.0008C9.39055 18.055 11.9025 20.5331 15.0009 20.5331C18.0982 20.5331 20.6113 18.0561 20.6113 15.0008C20.6113 11.9454 18.0994 9.46841 15.0009 9.46841ZM17.8717 12.1699C16.2868 10.607 13.7162 10.607 12.1312 12.1699C10.5462 13.7328 10.5462 16.2676 12.1312 17.8306C13.7162 19.3935 16.2867 19.3935 17.8717 17.8306C19.4567 16.2677 19.4567 13.7328 17.8717 12.1699ZM12.8153 3.52995V4.37985C12.8153 5.22119 12.437 5.97806 11.7605 6.4955C10.9615 7.10487 10.0909 7.59983 9.14993 7.97934C8.35202 8.30113 7.51292 8.24553 6.76813 7.82112L6.02118 7.39564L3.83235 11.134L4.5793 11.5595C5.32626 11.985 5.79676 12.6745 5.91277 13.5159C6.05154 14.5186 6.05154 15.4808 5.91277 16.4847C5.79677 17.3239 5.32518 18.0188 4.58255 18.441L3.83343 18.8676L6.02226 22.6049L6.76921 22.1794C7.51617 21.7539 8.35094 21.6983 9.15101 22.0212C10.0963 22.4028 10.9582 22.8925 11.7616 23.5061C12.438 24.0224 12.8164 24.7804 12.8164 25.6218V26.4716H17.1887V25.6218C17.1887 24.7815 17.567 24.0246 18.2425 23.5072C19.0414 22.8967 19.912 22.4007 20.8476 22.0223C21.6477 21.6994 22.4857 21.755 23.2337 22.1805L23.9829 22.607L26.1717 18.8697L25.4226 18.4432C24.6799 18.0198 24.2073 17.326 24.0923 16.4868C23.9547 15.483 23.9547 14.5219 24.0923 13.518C24.2083 12.6788 24.6799 11.9839 25.4226 11.5617L26.1717 11.1351L23.9829 7.39671L23.2359 7.82326C22.49 8.24874 21.6531 8.30432 20.853 7.98147C19.9153 7.60304 19.0436 7.10913 18.2425 6.49763C17.566 5.98129 17.1876 5.22335 17.1876 4.38199V3.53209H12.8154L12.8153 3.52995Z" fill="#5756C8" stroke="#5756C8" stroke-width="0.5"/>
</svg>
