<svg width="20" height="20" viewBox="0 0 20 20" fill="none" xmlns="http://www.w3.org/2000/svg">
<path d="M0.934653 11.2781H10.9301C11.3255 12.5142 12.4865 13.4144 13.854 13.4144C15.2215 13.4144 16.3825 12.5142 16.7778 11.2781H19.0289C19.5442 11.2781 19.9636 10.8588 19.9636 10.3434C19.9636 9.82813 19.5442 9.40879 19.0289 9.40879H16.7778C16.3825 8.17269 15.2215 7.27246 13.854 7.27246C12.4865 7.27246 11.3254 8.17269 10.9301 9.40879H0.934653C0.419339 9.40879 0 9.82813 0 10.3434C0 10.8588 0.419339 11.2781 0.934653 11.2781ZM13.854 9.14175C14.5164 9.14175 15.0557 9.68104 15.0557 10.3434C15.0557 11.0058 14.5164 11.5451 13.854 11.5451C13.1916 11.5451 12.6523 11.0058 12.6523 10.3434C12.6523 9.68104 13.1916 9.14175 13.854 9.14175Z" fill="white"/>
<path d="M0.934653 4.77308H3.18575C3.58111 6.00919 4.74211 6.90941 6.10961 6.90941C7.47712 6.90941 8.6382 6.00919 9.03348 4.77308H19.0289C19.5442 4.77308 19.9636 4.35375 19.9636 3.83844C19.9636 3.32313 19.5442 2.90379 19.0289 2.90379H9.03348C8.63812 1.66768 7.47712 0.767456 6.10961 0.767456C4.74211 0.767456 3.58103 1.66768 3.18575 2.90379H0.934653C0.419339 2.90379 0 3.32313 0 3.83844C0 4.35375 0.419339 4.77308 0.934653 4.77308ZM6.10969 2.63675C6.7721 2.63675 7.31139 3.17604 7.31139 3.83844C7.31139 4.50083 6.7721 5.04012 6.10969 5.04012C5.44729 5.04012 4.908 4.50083 4.908 3.83844C4.908 3.17604 5.44729 2.63675 6.10969 2.63675Z" fill="white"/>
<path d="M19.0651 15.9136H9.06668C8.67132 14.6774 7.51032 13.7772 6.14282 13.7772C4.77531 13.7772 3.61423 14.6774 3.21896 15.9136H0.967856C0.452542 15.9136 0.0332031 16.3329 0.0332031 16.8482C0.0332031 17.3635 0.452542 17.7828 0.967856 17.7828H3.21896C3.61431 19.019 4.77531 19.9192 6.14282 19.9192C7.51032 19.9192 8.6714 19.019 9.06668 17.7828H19.0651C19.5804 17.7828 19.9997 17.3635 19.9997 16.8482C19.9997 16.3329 19.5804 15.9136 19.0651 15.9136ZM6.14255 18.0499C5.48015 18.0499 4.94085 17.5106 4.94085 16.8482C4.94085 16.1858 5.48015 15.6465 6.14255 15.6465C6.80495 15.6465 7.34425 16.1858 7.34425 16.8482C7.34425 17.5106 6.80495 18.0499 6.14255 18.0499Z" fill="white"/>
</svg>
