<svg width="8" height="14" viewBox="0 0 8 14" fill="none" xmlns="http://www.w3.org/2000/svg">
<path d="M8 7.00384C8 7.13903 7.9766 7.26383 7.9298 7.37822C7.87781 7.49262 7.79981 7.60181 7.69582 7.70581L1.61992 13.6491C1.44313 13.8207 1.22994 13.9065 0.980354 13.9065C0.808763 13.9065 0.65537 13.8649 0.520177 13.7817C0.379784 13.7037 0.26799 13.5971 0.184794 13.4619C0.101598 13.3267 0.0600005 13.1733 0.0600005 13.0017C0.0600005 12.7574 0.156195 12.539 0.348586 12.3466L5.82391 7.00384L0.348587 1.66111C0.156196 1.46872 0.0600015 1.24773 0.0600015 0.998143C0.0600016 0.831751 0.101599 0.680959 0.184795 0.545766C0.267991 0.405373 0.379785 0.296178 0.520178 0.218182C0.655371 0.134986 0.808764 0.0933889 0.980355 0.0933889C1.22994 0.0933889 1.44313 0.181784 1.61992 0.358575L7.69582 6.30188C7.79981 6.40587 7.87781 6.51507 7.9298 6.62946C7.9766 6.74385 8 6.86865 8 7.00384Z" fill="#C3CAD6"/>
</svg>
