<svg width="18" height="17" viewBox="0 0 18 17" fill="none" xmlns="http://www.w3.org/2000/svg">
<path d="M12.6931 1C11.521 1 10.4195 1.47236 9.58991 2.32908L9.08201 2.85409L8.57411 2.32908C7.74461 1.47236 6.6431 1 5.47096 1C4.29881 1 3.19668 1.47236 2.3678 2.32908C1.5383 3.18509 1.08203 4.32459 1.08203 5.53604C1.08203 6.7483 1.5383 7.88693 2.35176 8.72638L8.67113 15.8139C8.77717 15.9329 8.92578 16 9.08205 16C9.23832 16 9.38622 15.9329 9.49297 15.8139L15.7963 8.74373C16.6258 7.88772 17.082 6.74822 17.082 5.53604C17.082 4.3245 16.6258 3.18588 15.7963 2.32908C14.9682 1.47236 13.8652 1 12.6931 1ZM14.9911 7.94468L9.08198 14.572L3.15678 7.92806C2.53867 7.28913 2.1982 6.4396 2.1982 5.536C2.1982 4.6324 2.53795 3.78359 3.15678 3.14468C3.7742 2.50574 4.59673 2.15381 5.47089 2.15381C6.34434 2.15381 7.16618 2.50572 7.78499 3.14468L8.68776 4.07785C8.90613 4.30358 9.25913 4.30358 9.47681 4.07785L10.3796 3.14468C10.9977 2.50574 11.8202 2.15381 12.6937 2.15381C13.5678 2.15381 14.3897 2.50572 15.0078 3.14468C15.6259 3.78361 15.9664 4.63314 15.9664 5.536C15.9664 6.4396 15.6266 7.28913 14.9917 7.94468H14.9911Z" fill="#9F7509" stroke="#9F7509" stroke-width="0.5"/>
</svg>
