<svg width="22" height="21" viewBox="0 0 22 21" fill="none" xmlns="http://www.w3.org/2000/svg">
<path d="M15.509 0.524902C13.9707 0.524902 12.525 1.15314 11.4361 2.29258L10.7695 2.99084L10.1029 2.29258C9.01417 1.15314 7.56844 0.524902 6.03 0.524902C4.49156 0.524902 3.04501 1.15314 1.9571 2.29258C0.868381 3.43107 0.269531 4.94661 0.269531 6.55783C0.269531 8.17014 0.868381 9.68452 1.93605 10.801L10.2302 20.2274C10.3694 20.3857 10.5644 20.4749 10.7696 20.4749C10.9747 20.4749 11.1688 20.3857 11.3089 20.2274L19.582 10.8241C20.6707 9.68557 21.2695 8.17004 21.2695 6.55783C21.2695 4.94649 20.6707 3.43213 19.582 2.29258C18.4951 1.15314 17.0475 0.524902 15.509 0.524902ZM18.5252 9.76132L10.7695 18.5757L2.99264 9.73922C2.18136 8.88944 1.73451 7.75957 1.73451 6.55778C1.73451 5.35599 2.18043 4.22708 2.99264 3.37732C3.803 2.52754 4.88258 2.05947 6.0299 2.05947C7.17631 2.05947 8.25498 2.52751 9.06717 3.37732L10.252 4.61845C10.5387 4.91867 11.002 4.91867 11.2877 4.61845L12.4726 3.37732C13.2838 2.52754 14.3634 2.05947 15.5098 2.05947C16.6571 2.05947 17.7358 2.52751 18.5471 3.37732C19.3584 4.22711 19.8052 5.35698 19.8052 6.55778C19.8052 7.75957 19.3593 8.88944 18.526 9.76132H18.5252Z" fill="#88909E"/>
</svg>
