<svg width="23" height="21" viewBox="0 0 23 21" fill="none" xmlns="http://www.w3.org/2000/svg">
<path d="M16.6909 0C15.006 0 13.4226 0.6613 12.2301 1.86072L11.5 2.59573L10.7699 1.86072C9.57746 0.6613 7.99404 0 6.30908 0C4.62412 0 3.0398 0.6613 1.84829 1.86072C0.655883 3.05912 0 4.65443 0 6.35045C0 8.04761 0.655883 9.6417 1.82524 10.8169L10.9093 20.7395C11.0618 20.9061 11.2754 21 11.5 21C11.7247 21 11.9373 20.9061 12.0907 20.7395L21.1517 10.8412C22.3441 9.64281 23 8.04751 23 6.35045C23 4.6543 22.3441 3.06024 21.1517 1.86072C19.9613 0.6613 18.3758 0 16.6909 0ZM19.9943 9.72255L11.4999 19.0008L2.98245 9.69929C2.09391 8.80478 1.6045 7.61544 1.6045 6.3504C1.6045 5.08536 2.09289 3.89703 2.98245 3.00255C3.86999 2.10804 5.05238 1.61533 6.30898 1.61533C7.56457 1.61533 8.74597 2.10801 9.63551 3.00255L10.9332 4.30899C11.2471 4.62501 11.7546 4.62501 12.0675 4.30899L13.3652 3.00255C14.2537 2.10804 15.4361 1.61533 16.6917 1.61533C17.9483 1.61533 19.1297 2.10801 20.0183 3.00255C20.9068 3.89706 21.3962 5.08639 21.3962 6.3504C21.3962 7.61544 20.9078 8.80478 19.9952 9.72255H19.9943Z" fill="black"/>
</svg>
