<svg width="22" height="21" viewBox="0 0 22 21" fill="none" xmlns="http://www.w3.org/2000/svg">
<path d="M15.509 0.524902C13.9707 0.524902 12.525 1.15314 11.4361 2.29258L10.7695 2.99084L10.1029 2.29258C9.01417 1.15314 7.56844 0.524902 6.03 0.524902C4.49156 0.524902 3.04501 1.15314 1.9571 2.29258C0.868381 3.43107 0.269531 4.94661 0.269531 6.55783C0.269531 8.17014 0.868381 9.68452 1.93605 10.801L10.2302 20.2274C10.3694 20.3857 10.5644 20.4749 10.7696 20.4749C10.9747 20.4749 11.1688 20.3857 11.3089 20.2274L19.582 10.8241C20.6707 9.68558 21.2695 8.17004 21.2695 6.55783C21.2695 4.94649 20.6707 3.43213 19.582 2.29258C18.4951 1.15314 17.0475 0.524902 15.509 0.524902Z" fill="#191967"/>
</svg>
