<svg width="30" height="27" viewBox="0 0 30 27" fill="none" xmlns="http://www.w3.org/2000/svg">
<path fill-rule="evenodd" clip-rule="evenodd" d="M14.4398 25.8133C4.77612 19.3259 1.25436 13.3642 1.01356 8.96312C0.891153 6.72442 1.59125 4.86641 2.7745 3.50665C3.9556 2.14907 5.61566 1.29842 7.41525 1.06561C9.97724 0.73492 12.8248 1.65738 14.9508 4.15718C17.0854 1.64869 19.9545 0.728432 22.5359 1.06779C24.3441 1.30493 26.0127 2.15993 27.2024 3.52408C28.3964 4.89253 29.1051 6.75272 28.987 8.99358C28.7529 13.397 25.2396 19.3519 15.5844 25.8288C15.2279 26.0703 14.7726 26.0483 14.4398 25.8133ZM3.0452 8.84989C3.25136 12.6137 6.40176 17.818 15.0239 23.7268C23.6183 17.8375 26.758 12.6483 26.9576 8.88888C27.0456 7.22669 26.5388 5.86693 25.682 4.88791C24.8208 3.90237 23.6054 3.28448 22.2825 3.11043C20.0469 2.81672 17.5086 3.79577 15.8101 6.42172C15.735 6.54355 15.6319 6.65016 15.5052 6.73283C15.0349 7.04177 14.4035 6.90688 14.0986 6.43042C12.4064 3.80447 9.88516 2.82105 7.66913 3.10827C6.35916 3.27797 5.15442 3.89147 4.30399 4.87054C3.45786 5.84522 2.95504 7.19862 3.0452 8.84989Z" fill="white" stroke="white" stroke-width="1.5"/>
</svg>
