<svg width="22" height="22" viewBox="0 0 22 22" fill="none" xmlns="http://www.w3.org/2000/svg">
<path d="M14.6667 22C20.9956 21.8873 22 20.8962 22 12.711C22 12.4388 21.999 10.4441 21.9971 9.86535C21.9914 8.41585 21.3192 7.05811 20.182 6.15854L14.0308 1.05275C12.2548 -0.350917 9.74547 -0.350917 7.96837 1.05275L1.82186 6.15365C0.680802 7.05601 0.00763131 8.41861 0.00286468 9.87293C0.000954849 10.4487 0 12.4396 0 12.7107C0 20.9178 0.885151 21.892 7.33328 21.9998V15.1552C7.33328 13.805 8.42755 12.7107 9.77771 12.7107H12.2221C13.5723 12.7107 14.6666 13.805 14.6666 15.1552L14.6667 22Z" fill="white"/>
</svg>
