<svg width="20" height="21" viewBox="0 0 20 21" fill="none" xmlns="http://www.w3.org/2000/svg">
<path d="M9.57849 0.138241L0.276172 7.13834C0.104334 7.26908 -0.0011075 7.48344 8.77618e-06 7.69981V20.3C5.52878e-05 20.6665 0.332381 21 0.697683 21H6.97675C7.34205 21 7.67438 20.6665 7.67442 20.3V16.8C7.67442 15.4952 8.69956 14.4666 10 14.4666C11.3004 14.4666 12.3256 15.4952 12.3256 16.8V20.3C12.3256 20.6665 12.658 21 13.0233 21H19.3023C19.6676 21 20 20.6665 20 20.3V7.69981C20 7.48344 19.8957 7.26908 19.7238 7.13834L10.4215 0.138241C10.1169 -0.0558502 9.86289 -0.0360448 9.57849 0.138241Z" fill="#5756C8"/>
</svg>
