<svg width="30" height="30" viewBox="0 0 30 30" fill="none" xmlns="http://www.w3.org/2000/svg">
<path d="M2.52435 18.0791L1.37805 21.5193C1.29022 21.7831 1.27757 22.0661 1.34151 22.3366C1.40545 22.6072 1.54345 22.8546 1.74006 23.0511C1.93667 23.2477 2.18412 23.3856 2.45469 23.4495C2.72526 23.5133 3.00826 23.5006 3.272 23.4127L6.7115 22.2663C8.05317 23.0371 9.53818 23.5255 11.0754 23.7016C11.7104 24.9941 12.6303 26.1256 13.7659 27.0109C14.9015 27.8963 16.2232 28.5125 17.6314 28.8131C18.2569 28.9368 18.8929 28.9994 19.5305 29C21.1608 29.0029 22.764 28.5823 24.183 27.7793L26.8901 28.6738C27.1367 28.7607 27.4028 28.7764 27.6579 28.7191C27.913 28.6618 28.1468 28.5337 28.3325 28.3497C28.5182 28.1656 28.6484 27.933 28.708 27.6784C28.7676 27.4238 28.7543 27.1575 28.6696 26.9101L27.7719 24.1915C28.4079 23.0726 28.8074 21.835 28.9456 20.5554C29.0838 19.2758 28.9579 17.9815 28.5756 16.7525C28.1932 15.5236 27.5626 14.3862 26.7228 13.4109C25.8831 12.4356 24.852 11.6431 23.6935 11.0825C23.5182 9.54733 23.0319 8.06394 22.2643 6.72291C21.4966 5.38189 20.4638 4.21135 19.2288 3.28275C17.9938 2.35416 16.5825 1.68697 15.0811 1.32193C13.5797 0.956882 12.0197 0.90163 10.4962 1.15954C8.23145 1.53297 6.13334 2.58496 4.47926 4.17642C2.82518 5.76789 1.69302 7.82389 1.23247 10.0726C0.672587 12.8097 1.13202 15.657 2.52435 18.0791ZM26.8888 18.018C27.2667 19.861 26.941 21.7787 25.9759 23.3936C25.8677 23.567 25.7994 23.7621 25.7758 23.9651C25.7521 24.168 25.7738 24.3737 25.8391 24.5672L26.4705 26.4784L24.5645 25.8484C24.372 25.7827 24.1675 25.7603 23.9654 25.7828C23.7633 25.8052 23.5687 25.8719 23.3953 25.9781C21.755 26.9722 19.7942 27.2946 17.922 26.878C16.0497 26.4614 14.4107 25.3379 13.3467 23.742C13.8069 23.7078 14.2647 23.6464 14.7177 23.5583C16.9663 23.0976 19.0221 21.9655 20.6135 20.3115C22.2049 18.6575 23.2569 16.5595 23.6306 14.2949C23.6817 13.9789 23.7024 13.6648 23.7282 13.3504C25.3476 14.4371 26.481 16.1109 26.8888 18.018ZM3.14739 10.4579C3.49652 8.79216 4.28946 7.25178 5.4423 5.99978C6.59513 4.74778 8.06498 3.83073 9.6963 3.34568C11.3276 2.86064 13.0597 2.82564 14.7093 3.24438C16.3589 3.66313 17.8646 4.52005 19.067 5.72445C20.6774 7.32383 21.6512 9.45431 21.8068 11.7187L21.8071 11.7409C21.8579 12.4899 21.8229 13.2423 21.7029 13.9833C21.3939 15.856 20.5239 17.5909 19.2079 18.9586C17.8918 20.3263 16.1918 21.2624 14.3324 21.6433C13.4796 21.8164 12.6074 21.8749 11.7391 21.817L11.7099 21.8162C10.2325 21.7109 8.80158 21.2545 7.53609 20.4849C7.30369 20.3442 7.03723 20.2696 6.76554 20.2694C6.60693 20.2693 6.44935 20.2949 6.29888 20.345L3.51927 21.2714L4.44633 18.4904C4.51371 18.2865 4.53604 18.0704 4.51176 17.857C4.48748 17.6436 4.41718 17.438 4.30571 17.2544C3.07011 15.2184 2.65595 12.7883 3.14739 10.4579Z" fill="#5756C8" stroke="#5756C8" stroke-width="0.1"/>
<path d="M7.81886 17C7.58775 17 7.39998 16.9441 7.25555 16.8322C7.12074 16.7203 7.03889 16.5728 7.01 16.3897C6.98111 16.1965 7.01481 15.9829 7.11111 15.749L10.9243 6.82386C11.0495 6.5289 11.1987 6.32039 11.372 6.19834C11.555 6.06611 11.762 6 11.9931 6C12.2146 6 12.412 6.06611 12.5853 6.19834C12.7683 6.32039 12.9224 6.5289 13.0475 6.82386L16.8752 15.749C16.9811 15.9829 17.0196 16.1965 16.9907 16.3897C16.9618 16.583 16.88 16.7356 16.7452 16.8474C16.6104 16.9491 16.4322 17 16.2107 17C15.9411 17 15.7293 16.9339 15.5752 16.8017C15.4308 16.6593 15.3008 16.4457 15.1852 16.1609L14.2464 13.8571L15.0263 14.3911H8.93103L9.711 13.8571L8.7866 16.1609C8.66142 16.4558 8.53142 16.6694 8.39661 16.8017C8.2618 16.9339 8.06922 17 7.81886 17ZM11.9642 8.24272L9.94211 13.3232L9.56656 12.835H14.3908L14.0297 13.3232L11.9931 8.24272H11.9642Z" fill="#5756C8" stroke="#5756C8" stroke-width="0.1"/>
</svg>
