<svg width="22" height="25" viewBox="0 0 22 25" fill="currentColor" xmlns="http://www.w3.org/2000/svg">
<path fill-rule="evenodd" clip-rule="evenodd" d="M11.1126 5.83649C8.635 5.83649 6.62646 7.84504 6.62646 10.3227C6.62646 12.8003 8.635 14.8089 11.1126 14.8089C13.5903 14.8089 15.5988 12.8003 15.5988 10.3227C15.5988 7.84504 13.5903 5.83649 11.1126 5.83649ZM8.12185 10.3227C8.12185 8.67088 9.46091 7.33188 11.1126 7.33188C12.7644 7.33188 14.1034 8.67088 14.1034 10.3227C14.1034 11.9744 12.7644 13.3135 11.1126 13.3135C9.46091 13.3135 8.12185 11.9744 8.12185 10.3227Z" fill="currentColor" stroke="currentColor" stroke-width="0.5"/>
<path fill-rule="evenodd" clip-rule="evenodd" d="M3.92893 17.6548C0.0236897 13.7496 0.0236912 7.41794 3.92893 3.51273C7.83417 -0.392509 14.1658 -0.392509 18.0711 3.51273C21.9763 7.41794 21.9763 13.7496 18.0711 17.6548L11.5287 24.1972C11.2367 24.4892 10.7633 24.4892 10.4713 24.1972L3.92893 17.6548ZM4.98633 4.57013C1.66508 7.89139 1.66508 13.2762 4.98633 16.5974L11 22.6111L17.0136 16.5974C20.3349 13.2762 20.3349 7.89139 17.0136 4.57013C13.6924 1.24888 8.30756 1.24888 4.98633 4.57013Z" fill="currentColor" stroke="currentColor" stroke-width="0.5"/>
</svg>
