<svg width="30" height="30" viewBox="0 0 30 30" fill="none" xmlns="http://www.w3.org/2000/svg">
<path d="M9.57324 2.09961H15.4248C16.0769 2.09961 16.6112 2.64558 16.6113 3.32422C16.6113 4.00296 16.0769 4.54883 15.4248 4.54883H9.57324C7.85813 4.54909 6.47266 5.9804 6.47266 7.73926V22.2607C6.47266 24.0196 7.85813 25.4509 9.57324 25.4512H15.4248C16.0769 25.4512 16.6113 25.997 16.6113 26.6758C16.6112 27.3544 16.0769 27.9004 15.4248 27.9004H9.57324C6.55381 27.9001 4.09961 25.3771 4.09961 22.2607V7.73926C4.09961 4.71893 6.40289 2.25843 9.29199 2.10742L9.57324 2.09961ZM19.1465 9.2627C19.5807 8.81594 20.2669 8.78765 20.7324 9.17871L20.8223 9.2627L25.5518 14.1328C25.7745 14.3621 25.9004 14.6738 25.9004 15C25.9004 15.2854 25.804 15.5596 25.6309 15.7773L25.5518 15.8672L20.8223 20.7373C20.3881 21.1843 19.702 21.2123 19.2363 20.8213L19.1465 20.7373C18.7108 20.2887 18.6833 19.5789 19.0645 19.0977L19.1465 19.0049L21.6807 16.3945L21.8457 16.2246H12.3955C11.7434 16.2246 11.209 15.6787 11.209 15C11.209 14.3213 11.7434 13.7754 12.3955 13.7754H21.8457L21.6807 13.6064L19.1465 10.9961C18.7106 10.5473 18.6831 9.83569 19.0645 9.35547L19.1465 9.2627Z" fill="#5756C8" stroke="white" stroke-width="0.2"/>
</svg>
