<svg width="20" height="20" viewBox="0 0 20 20" fill="none" xmlns="http://www.w3.org/2000/svg">
<path fill-rule="evenodd" clip-rule="evenodd" d="M10.1378 1C10.3191 1 10.5095 1.00596 10.7073 1.01862C10.8894 1.02979 11.0789 1.04766 11.2767 1.07223C11.5158 1.10127 11.6859 1.31722 11.6566 1.55474C11.6342 1.73494 11.5038 1.87567 11.3382 1.9211C9.99995 2.28298 8.84149 3.07602 8.02338 4.14092C7.22389 5.18116 6.7496 6.48122 6.7496 7.89317C6.7496 9.60208 7.44643 11.1487 8.57336 12.2678C9.70029 13.3877 11.2565 14.0802 12.9754 14.0802C14.0761 14.0802 15.1094 13.798 16.0032 13.3021C16.9324 12.7876 17.7161 12.0422 18.2744 11.1458C18.401 10.9425 18.67 10.8784 18.8745 11.005C19.0289 11.0996 19.1031 11.2746 19.0769 11.4421C18.7262 13.6015 17.6045 15.5034 16.0003 16.8593C14.42 18.1944 12.3738 19 10.1379 19C7.63683 19 5.37319 17.9925 3.73449 16.364C2.09579 14.7355 1.08203 12.4852 1.08203 10.0004C1.08203 7.51488 2.09583 5.26532 3.73449 3.63682C5.37319 2.00831 7.63746 1 10.1378 1ZM7.32806 3.61363C7.84058 2.94719 8.46923 2.37383 9.1848 1.92407C7.30558 2.14001 5.62121 2.98962 4.35272 4.25026C2.87288 5.72089 1.9573 7.75375 1.9573 9.99873C1.9573 12.2437 2.87292 14.2765 4.35272 15.7472C5.83255 17.2178 7.87814 18.1277 10.1372 18.1277C12.1587 18.1277 14.0081 17.4002 15.4346 16.1938C16.3937 15.3829 17.1625 14.3561 17.6637 13.1884C17.2853 13.5198 16.8702 13.8124 16.4259 14.0589C15.4024 14.6263 14.2244 14.9495 12.974 14.9495C11.013 14.9495 9.23734 14.1595 7.95216 12.8824C6.66714 11.6053 5.87209 9.84057 5.87209 7.89182C5.87209 6.28342 6.41457 4.80008 7.3272 3.61249L7.32806 3.61363Z" fill="#399362" stroke="#399362"/>
</svg>
