<svg width="98" height="76" viewBox="0 0 98 76" fill="none" xmlns="http://www.w3.org/2000/svg">
<path fill-rule="evenodd" clip-rule="evenodd" d="M43.0041 68.538C43.0041 71.8476 45.6961 74.5352 49.0056 74.5352C52.3108 74.5352 55.0028 71.8432 55.0028 68.538C55.0028 65.2327 52.3108 62.5407 49.0056 62.5407C45.696 62.5407 43.0041 65.2327 43.0041 68.538ZM65.3825 15.8148C75.2984 18.5962 84.4089 23.9374 91.731 31.2592C92.8257 32.3496 93.9288 32.3411 94.6615 32.1452C95.837 31.83 96.8295 30.8333 97.1446 29.662C97.3406 28.9251 97.3491 27.8177 96.2544 26.7316C79.1569 9.62204 54.2652 3.14722 30.9796 9.64276L36.2569 14.9201C45.8661 12.8543 55.9265 13.1612 65.3825 15.8148ZM6.27061 31.2592C11.433 26.0968 17.3753 21.9738 23.9559 18.9791L19.1598 14.1831C12.724 17.3862 6.86772 21.603 1.74282 26.7315C0.205134 28.2691 0.652417 30.0963 1.78116 31.2251C2.90558 32.3495 4.73293 32.8011 6.27061 31.2592ZM19.5986 44.5873C18.0609 46.1249 16.2337 45.6777 15.105 44.5532C13.9805 43.4244 13.5332 41.6015 15.0709 40.0595C20.3312 34.7992 26.5419 30.9401 33.5434 28.5721L38.6759 33.7046C31.469 35.5447 24.8969 39.2843 19.5986 44.5873ZM54.0532 32.7117L47.3872 26.05C60.6683 25.6027 73.5318 30.6458 82.9398 40.0551C84.0302 41.1412 84.0217 42.2487 83.8258 42.9856C83.5106 44.1569 82.5139 45.1536 81.3426 45.4687C80.6057 45.6647 79.4983 45.6732 78.4121 44.5828C71.7674 37.9424 63.3522 33.8407 54.0532 32.7117ZM15.3308 7.88317C14.5726 7.125 14.1552 6.11127 14.1552 5.02937C14.1552 3.94748 14.5726 2.93372 15.3308 2.17556C16.0889 1.4174 17.1027 1 18.1846 1C19.2665 1 20.2802 1.41742 21.0384 2.17556L80.316 61.4532C81.892 63.0249 81.892 65.5891 80.316 67.165C78.7443 68.741 76.1801 68.741 74.6041 67.165L15.3308 7.88317ZM32.9223 57.9142C39.7245 51.1119 49.8061 49.5317 58.1422 53.1692L49.8491 44.8804C41.85 44.6461 34.047 47.7299 28.3944 53.3821C27.6958 54.0807 27.3593 54.8942 27.4147 55.7419C27.4658 56.5 27.8321 57.2796 28.4284 57.8758C29.029 58.4721 29.7999 58.8427 30.5624 58.8895C31.41 58.9449 32.2279 58.6084 32.9223 57.9142Z" fill="#F2B90D" stroke="white"/>
</svg>
