<svg width="95" height="95" viewBox="0 0 95 95" fill="none" xmlns="http://www.w3.org/2000/svg">
<path d="M48.0044 61.2663C49.4191 61.2663 50.5923 60.1622 50.6843 58.7475L52.49 30.6381C52.651 28.0503 50.6038 25.8535 48.0044 25.8535C45.4051 25.8535 43.3464 28.0503 43.5189 30.6381L45.3246 58.7475C45.4166 60.1622 46.5898 61.2663 48.0044 61.2663Z" fill="#F76B64"/>
<path d="M48.0051 72.6986C50.6539 72.6986 52.8011 70.5513 52.8011 67.9025C52.8011 65.2537 50.6539 63.1064 48.0051 63.1064C45.3563 63.1064 43.209 65.2537 43.209 67.9025C43.209 70.5513 45.3563 72.6986 48.0051 72.6986Z" fill="#F76B64"/>
<path d="M47.1865 0.75C72.7814 0.75 93.5996 21.5907 93.5996 47.1865C93.5996 72.7819 72.7818 93.5996 47.1865 93.5996C21.5907 93.5996 0.750014 72.7814 0.75 47.1865C0.75 21.5912 21.5912 0.75 47.1865 0.75ZM47.1865 7.11328C25.0123 7.11328 7.11328 25.0123 7.11328 47.1865C7.1133 69.3613 25.0129 87.2373 47.1865 87.2373C69.3607 87.2373 87.2373 69.3607 87.2373 47.1865C87.2373 25.0129 69.3613 7.11328 47.1865 7.11328Z" fill="#F76B64" stroke="white" stroke-width="1.5"/>
</svg>
