<svg width="23" height="23" viewBox="0 0 23 23" fill="none" xmlns="http://www.w3.org/2000/svg">
<path d="M11.7734 1C5.98113 1 1.27344 5.70769 1.27344 11.5C1.27344 17.2923 5.98113 22 11.7734 22C17.5657 22 22.2734 17.2923 22.2734 11.5C22.2734 5.70769 17.5657 1 11.7734 1ZM11.7734 20.8462C6.62728 20.8462 2.42728 16.6462 2.42728 11.5C2.42728 6.35385 6.62728 2.15385 11.7734 2.15385C16.9196 2.15385 21.1196 6.35385 21.1196 11.5C21.1196 16.6462 16.9196 20.8462 11.7734 20.8462Z" fill="#191967" stroke="#191967" stroke-width="0.7"/>
<rect x="9" y="7" width="2" height="9" fill="#191967"/>
<rect x="13" y="7" width="2" height="9" fill="#191967"/>
</svg>
