<svg width="25" height="25" viewBox="0 0 25 25" fill="none" xmlns="http://www.w3.org/2000/svg">
<path d="M4.88727 21.1126C6.98712 22.9759 9.69584 24 12.5005 24C13.2052 24 13.8968 23.9364 14.5811 23.8079C16.6233 23.4297 18.5383 22.5076 20.1135 21.1126C22.5856 18.9359 24 15.7975 24 12.5005C24 6.16138 18.8386 1 12.4994 1C6.16141 1 1 6.16138 1 12.5005C1 15.7984 2.41537 18.9359 4.88727 21.1126ZM11.5913 22.6818C11.4953 22.6758 11.3932 22.6566 11.2972 22.6433C11.0991 22.6181 10.8938 22.5989 10.6957 22.5605C10.5804 22.5413 10.4651 22.5089 10.3559 22.4837C10.177 22.4452 9.99689 22.4068 9.81801 22.3624C9.69675 22.33 9.58149 22.2856 9.46624 22.2532C9.29936 22.2015 9.12646 22.1511 8.96679 22.0863C8.84553 22.0418 8.73027 21.9902 8.61502 21.9386C8.45534 21.875 8.29445 21.8101 8.14077 21.7333C8.01951 21.6757 7.90425 21.612 7.789 21.5544C7.64133 21.4776 7.48765 21.4007 7.34718 21.3107C7.23192 21.2398 7.11667 21.1702 7.00141 21.0934C6.86094 21.0033 6.72647 20.9145 6.59201 20.8184C6.47675 20.7356 6.3675 20.6516 6.25945 20.5627C6.17661 20.4991 6.09977 20.4342 6.01573 20.3646C6.61123 17.2911 9.33301 15.0182 12.5025 15.0111H12.5157H12.5289C15.6925 15.0171 18.4203 17.2911 19.0156 20.3646C18.9388 20.4282 18.8559 20.4931 18.7791 20.5567C18.6638 20.6468 18.5546 20.7356 18.4393 20.8124C18.3048 20.9085 18.1704 20.9913 18.0359 21.0814C17.9206 21.1582 17.8054 21.235 17.6841 21.2987C17.5437 21.3815 17.396 21.4584 17.2483 21.5352C17.127 21.5988 17.0118 21.6637 16.8893 21.7213C16.7356 21.7921 16.582 21.8558 16.4223 21.9194C16.301 21.971 16.1858 22.0214 16.0633 22.0671C15.8964 22.1247 15.7307 22.1763 15.5638 22.2267C15.4426 22.2652 15.3273 22.3036 15.2049 22.336C15.026 22.3876 14.8459 22.4188 14.667 22.4573C14.5517 22.4825 14.4425 22.5149 14.3272 22.5341C14.1291 22.5725 13.9238 22.5917 13.7257 22.6169C13.6297 22.6301 13.5276 22.6493 13.4316 22.6553C13.1302 22.6806 12.8301 22.6938 12.5227 22.6938C12.2118 22.695 11.8914 22.707 11.5913 22.6818ZM9.06764 10.3047C9.06764 8.4089 10.6044 6.87213 12.5002 6.87213C14.396 6.87213 15.9327 8.4089 15.9327 10.3047C15.9327 12.1932 14.396 13.7301 12.5073 13.7372H12.5012H12.4952C10.6043 13.73 9.06764 12.1932 9.06764 10.3047ZM12.5002 2.2812C18.1346 2.2812 22.7197 6.86629 22.7197 12.5007C22.7197 15.0556 21.7593 17.5013 20.0628 19.3716C19.3388 16.9512 17.4827 15.0434 15.1451 14.2044C16.3938 13.3531 17.2138 11.9244 17.2138 10.3108C17.2138 7.71152 15.1007 5.59846 12.5014 5.59846C9.90211 5.59846 7.78904 7.71152 7.78904 10.3108C7.78904 11.9304 8.60907 13.3591 9.8577 14.2044C7.52011 15.0436 5.66998 16.9513 4.94002 19.3716C3.24117 17.5011 2.28069 15.0554 2.28069 12.5007C2.28069 6.86629 6.86575 2.2812 12.5002 2.2812Z" fill="#88909E" stroke="#88909E" stroke-width="0.7"/>
</svg>
