<svg width="30" height="30" viewBox="0 0 30 30" fill="none" xmlns="http://www.w3.org/2000/svg">
<path d="M6.39431 24.7359C8.76805 26.8423 11.8301 28 15.0005 28C15.7972 28 16.579 27.9281 17.3526 27.7828C19.6611 27.3553 21.8259 26.313 23.6066 24.7359C26.4011 22.2754 28 18.7276 28 15.0006C28 7.8346 22.1654 2 14.9993 2C7.83464 2 2 7.8346 2 15.0006C2 18.7287 3.59998 22.2754 6.39431 24.7359ZM13.9728 26.5098C13.8642 26.503 13.7488 26.4813 13.6403 26.4664C13.4163 26.4379 13.1842 26.4162 12.9603 26.3727C12.83 26.351 12.6997 26.3144 12.5762 26.2859C12.374 26.2425 12.1704 26.199 11.9682 26.1488C11.8311 26.1122 11.7008 26.0619 11.5705 26.0253C11.3819 25.9669 11.1864 25.9099 11.0059 25.8366C10.8689 25.7864 10.7386 25.7281 10.6083 25.6697C10.4278 25.5978 10.2459 25.5245 10.0722 25.4376C9.9351 25.3725 9.80481 25.3006 9.67453 25.2354C9.50759 25.1485 9.33387 25.0617 9.17508 24.9599C9.04478 24.8798 8.91449 24.8011 8.7842 24.7142C8.62541 24.6125 8.4734 24.512 8.3214 24.4034C8.19111 24.3098 8.0676 24.2148 7.94547 24.1144C7.85182 24.0424 7.76496 23.9691 7.66995 23.8904C8.34313 20.416 11.4199 17.8467 15.0028 17.8387H15.0177H15.0326C18.6089 17.8455 21.6925 20.416 22.3655 23.8904C22.2786 23.9624 22.185 24.0356 22.0981 24.1076C21.9678 24.2094 21.8443 24.3098 21.714 24.3967C21.562 24.5052 21.41 24.5989 21.258 24.7007C21.1277 24.7875 20.9974 24.8744 20.8603 24.9463C20.7015 25.04 20.5346 25.1268 20.3676 25.2137C20.2306 25.2856 20.1003 25.3589 19.9618 25.4241C19.7881 25.5041 19.6144 25.5761 19.4339 25.648C19.2968 25.7064 19.1665 25.7634 19.0281 25.8149C18.8394 25.8801 18.6521 25.9384 18.4635 25.9954C18.3264 26.0389 18.1961 26.0823 18.0577 26.1189C17.8554 26.1773 17.6518 26.2126 17.4496 26.256C17.3193 26.2845 17.1958 26.3212 17.0655 26.3429C16.8416 26.3863 16.6095 26.408 16.3856 26.4365C16.277 26.4515 16.1616 26.4732 16.0531 26.48C15.7124 26.5085 15.3731 26.5234 15.0257 26.5234C14.6742 26.5247 14.3121 26.5383 13.9728 26.5098ZM11.1199 12.5183C11.1199 10.3753 12.8572 8.63806 15.0002 8.63806C17.1432 8.63806 18.8805 10.3753 18.8805 12.5183C18.8805 14.6532 17.1432 16.3906 15.0082 16.3985H15.0014H14.9946C12.857 16.3904 11.1199 14.6532 11.1199 12.5183ZM15.0002 3.44831C21.3696 3.44831 26.5528 8.63146 26.5528 15.0008C26.5528 17.8889 25.467 20.6537 23.5493 22.7679C22.7309 20.0317 20.6326 17.8752 17.9901 16.9267C19.4016 15.9644 20.3286 14.3493 20.3286 12.5253C20.3286 9.58693 17.9399 7.19826 15.0016 7.19826C12.0633 7.19826 9.67457 9.58693 9.67457 12.5253C9.67457 14.3561 10.6016 15.9712 12.0131 16.9267C9.37056 17.8753 7.27911 20.0319 6.45393 22.7679C4.5335 20.6534 3.44773 17.8887 3.44773 15.0008C3.44773 8.63146 8.63085 3.44831 15.0002 3.44831Z" fill="#5756C8" stroke="#5756C8" stroke-width="0.5"/>
</svg>
