<svg width="30" height="30" viewBox="0 0 30 30" fill="none" xmlns="http://www.w3.org/2000/svg">
<path d="M25.6336 23.4066C24.6252 22.7686 23.9985 21.6164 23.9985 20.3993V15.0297C23.9985 12.6965 23.1145 10.5031 21.5093 8.85376C20.6352 7.95566 19.5781 7.26262 18.4252 6.82781V6.01072C18.4252 5.20756 18.121 4.4525 17.5683 3.88477C17.0156 3.31705 16.2812 3.00439 15.5 3.00439C13.8871 3.00439 12.5748 4.35313 12.5748 6.01072V6.82718C11.0657 7.39807 9.71914 8.4161 8.73842 9.73762C7.6022 11.2693 7.00145 13.099 7.00145 15.0297V20.3993C7.00145 21.6164 6.37484 22.7686 5.3664 23.4066C5.07296 23.5921 4.93532 23.9553 5.02923 24.2959C5.12284 24.6364 5.42552 24.8715 5.76978 24.8715H11.7603C11.9087 25.6208 12.2678 26.3095 12.8069 26.8614C13.5272 27.5984 14.4836 28.0044 15.5 28.0044C16.5164 28.0044 17.4728 27.5984 18.1931 26.8614C18.7322 26.3095 19.0913 25.6208 19.2397 24.8715H25.2302C25.5745 24.8715 25.8772 24.6364 25.9708 24.2959C26.0647 23.9553 25.927 23.5921 25.6336 23.4066ZM15.5 26.4221C14.5214 26.4221 13.683 25.7816 13.3624 24.8873H17.6376C17.317 25.7816 16.4786 26.4221 15.5 26.4221ZM14.1144 6.01072C14.1144 5.2256 14.7361 4.58667 15.5 4.58667C15.8701 4.58667 16.2181 4.73477 16.4798 5.00376C16.7415 5.27275 16.8856 5.63034 16.8856 6.01072V6.41136C16.8287 6.40186 16.7717 6.39269 16.7144 6.38414C16.6572 6.37591 16.5999 6.368 16.5423 6.36072C16.4841 6.35345 16.4259 6.3468 16.3674 6.34047C16.3394 6.33762 16.3114 6.33509 16.283 6.33224C16.2544 6.32971 16.2255 6.32718 16.1965 6.32465C16.0764 6.31452 15.956 6.30724 15.8353 6.30218C15.815 6.30155 15.795 6.3006 15.775 6.29996C15.7414 6.29901 15.7082 6.29807 15.6746 6.29743C15.6546 6.2968 15.6343 6.29648 15.6139 6.29648C15.5761 6.29585 15.5379 6.29553 15.5 6.29553C15.4618 6.29553 15.4236 6.29585 15.3855 6.29648C15.3654 6.29648 15.3454 6.2968 15.3254 6.29743C15.2915 6.29807 15.2577 6.29901 15.2238 6.30028C15.2053 6.3006 15.1865 6.30155 15.1678 6.30218C15.0144 6.30819 14.8614 6.31863 14.709 6.33288C14.6874 6.33509 14.6655 6.33731 14.644 6.33952C14.6255 6.34142 14.607 6.34332 14.5886 6.34553C14.567 6.34775 14.5455 6.35028 14.5239 6.35281C14.5017 6.35534 14.4799 6.35819 14.458 6.36072C14.4053 6.36737 14.353 6.37433 14.3007 6.38193C14.2957 6.38288 14.2908 6.38351 14.2859 6.38414C14.2286 6.39269 14.1713 6.40186 14.1144 6.41136V6.01072ZM7.66994 23.2892C7.75524 23.1614 7.83499 23.0294 7.90889 22.8936C8.32242 22.1329 8.54104 21.2705 8.54104 20.3993V15.0297C8.54104 11.8645 10.6044 9.03952 13.5589 8.15946C14.1864 7.97275 14.8395 7.87781 15.5 7.87781C16.1611 7.87781 16.8139 7.97275 17.4408 8.15977C17.4417 8.16009 17.4427 8.16041 17.4436 8.16041C18.5622 8.49427 19.5916 9.12085 20.4205 9.97275C21.735 11.3234 22.459 13.1193 22.459 15.0297V20.3993C22.459 21.2705 22.6776 22.1329 23.0911 22.8936C23.165 23.0294 23.2448 23.1614 23.3301 23.2892H7.66994Z" fill="#5756C8" stroke="#5756C8" stroke-width="0.5"/>
</svg>
