<svg width="25" height="23" viewBox="0 0 25 23" fill="none" xmlns="http://www.w3.org/2000/svg">
<path d="M23.1752 1.00002H21.8769C18.5325 1.00429 15.2787 2.10178 12.6001 4.12802C9.92018 2.10276 6.6664 1.00522 3.3233 1.00002H2.025C1.64638 0.997887 1.28356 1.14949 1.01567 1.42067C0.747783 1.69184 0.598014 2.06015 0.60012 2.44237V17.2619C0.604338 18.0573 1.24031 18.701 2.02497 18.7042H3.32328C6.55486 18.7095 9.69033 19.8231 12.2172 21.8633C12.3259 21.952 12.4609 22 12.6001 22C12.7393 22 12.8743 21.952 12.9829 21.8633C15.5089 19.8221 18.6445 18.7086 21.8769 18.7042H23.1752C23.5538 18.7063 23.9166 18.5558 24.1845 18.2846C24.4524 18.0134 24.6022 17.6451 24.6001 17.2618V2.44234C24.5959 1.64806 23.9599 1.00429 23.1752 1.00002ZM11.9925 20.1624C9.43176 18.4104 6.41331 17.472 3.3232 17.4667H2.02489C1.9711 17.4699 1.91837 17.4474 1.88251 17.4058C1.84349 17.3684 1.82239 17.3161 1.82239 17.2617V2.44218C1.82134 2.3856 1.84243 2.33115 1.88251 2.29058C1.92153 2.25428 1.97216 2.23506 2.02489 2.2372H3.3232C6.4565 2.24254 9.50261 3.28774 11.9925 5.21378V20.1624ZM23.3777 17.2629V17.2618C23.3767 17.3162 23.3556 17.3686 23.3176 17.4059C23.2817 17.4476 23.229 17.47 23.1752 17.4668H21.8769C18.7868 17.471 15.7672 18.4095 13.2076 20.1625V5.21397C15.6977 3.28801 18.7436 2.24285 21.8769 2.23739H23.1752C23.287 2.23739 23.3777 2.3292 23.3777 2.44237V17.2629Z" fill="#88909E" stroke="#88909E" stroke-width="0.7"/>
</svg>
