<svg width="20" height="22" viewBox="0 0 20 22" fill="none" xmlns="http://www.w3.org/2000/svg">
<path d="M0.582031 12.4053C0.582031 17.6134 4.79281 21.8253 10.002 21.8253C15.2102 21.8253 19.422 17.6145 19.422 12.4053C19.422 10.2443 18.6459 8.13837 17.3161 6.47608C16.9286 5.97739 16.2076 5.92234 15.765 6.30985C15.2663 6.69736 15.2112 7.4184 15.5988 7.86097C16.6512 9.13575 17.205 10.743 17.205 12.4053C17.205 16.3948 13.9916 19.6082 10.0021 19.6082C6.01256 19.6082 2.79915 16.3948 2.79915 12.4053C2.79915 8.80329 5.45882 5.81116 8.94963 5.31248L8.7834 5.47871C8.33977 5.86622 8.28471 6.58725 8.67223 7.02982C8.89353 7.30723 9.22598 7.41734 9.50338 7.41734C9.78078 7.41734 10.0021 7.30617 10.2233 7.13993L12.7168 4.97896C12.9381 4.75766 13.1043 4.48027 13.1043 4.14781C13.1043 3.81535 12.9381 3.53795 12.7168 3.31666L10.2233 1.15569C9.77972 0.768175 9.05975 0.82323 8.67223 1.26685C8.28472 1.71049 8.33977 2.43046 8.7834 2.81797L9.11586 3.09537C4.35027 3.48392 0.582031 7.47345 0.582031 12.4053Z" fill="#FF9500"/>
</svg>
