<svg width="90" height="90" viewBox="0 0 90 90" fill="none" xmlns="http://www.w3.org/2000/svg">
<path d="M78.8342 74.5759C85.7638 66.6563 89.9935 56.3369 89.9935 44.9975C89.9935 20.1889 69.8047 0 44.996 0C20.1874 0 -0.00146484 20.1889 -0.00146484 44.9975C-0.00146484 69.8061 20.1874 89.995 44.996 89.995C56.3354 89.995 66.6548 85.7652 74.5744 78.8356L84.8638 89.1251C85.4638 89.695 86.2138 89.995 86.9937 89.995C87.7737 89.995 88.5236 89.695 89.1236 89.1251C90.2935 87.9551 90.2935 86.0652 89.1236 84.8953L78.8342 74.5759ZM5.9982 44.9975C5.9982 23.4887 23.4872 5.99967 44.996 5.99967C66.5048 5.99967 83.9939 23.4887 83.9939 44.9975C83.9939 66.5063 66.5048 83.9953 44.996 83.9953C23.4872 83.9953 5.9982 66.5063 5.9982 44.9975ZM26.997 35.998C26.997 32.6982 29.6969 29.9983 32.9967 29.9983C36.2965 29.9983 38.9964 32.6982 38.9964 35.998C38.9964 39.2978 36.2965 41.9977 32.9967 41.9977C29.6969 41.9977 26.997 39.2978 26.997 35.998ZM62.995 35.998C62.995 39.2978 60.2952 41.9977 56.9954 41.9977C53.6956 41.9977 50.9957 39.2978 50.9957 35.998C50.9957 32.6982 53.6956 29.9983 56.9954 29.9983C60.2952 29.9983 62.995 32.6982 62.995 35.998ZM61.4951 55.7669C62.1551 57.2668 61.4951 59.0667 59.9652 59.7267C59.5752 59.9067 59.1553 59.9967 58.7653 59.9967C57.6253 59.9967 56.5154 59.3367 56.0054 58.1968C54.0855 53.817 49.7358 50.9972 44.996 50.9972C40.2563 50.9972 35.9065 53.817 33.9566 58.2268C33.2967 59.7267 31.5268 60.4466 29.9969 59.7567C28.497 59.0967 27.807 57.3268 28.467 55.7969C31.3768 49.2273 37.8864 44.9975 44.996 44.9975C52.1056 44.9975 58.6153 49.2273 61.4951 55.7669Z" fill="#9F9AF4"/>
</svg>
