<svg width="21" height="22" viewBox="0 0 21 22" fill="none" xmlns="http://www.w3.org/2000/svg">
<path d="M10.4928 6.23977C9.67823 6.23977 8.87073 6.4551 8.15567 6.86442C5.92619 8.15538 5.15944 11.0237 6.44725 13.2623C7.28522 14.7046 8.84026 15.6004 10.5059 15.6004C11.3205 15.6004 12.126 15.3851 12.835 14.9768C13.9208 14.3522 14.6978 13.3415 15.0218 12.1319C15.3448 10.9242 15.1802 9.66372 14.5556 8.57792C13.7166 7.1356 12.1596 6.23977 10.4928 6.23977ZM13.5156 11.7275C13.2992 12.534 12.7812 13.2074 12.057 13.6239C11.5837 13.8961 11.0474 14.0403 10.506 14.0403C9.39486 14.0403 8.35579 13.4421 7.79713 12.4812C6.93885 10.9891 7.44976 9.07441 8.9327 8.21633C9.41007 7.94411 9.9484 7.79988 10.4918 7.79988C11.6061 7.79988 12.6462 8.39814 13.2049 9.359C13.6213 10.0812 13.7309 10.9231 13.5156 11.7275Z" fill="#181B1F"/>
<path d="M21 7.06351L19.0935 3.7542H15.4197C14.8651 3.7542 14.3481 3.45458 14.0698 2.97414L12.3542 0H8.53502L6.80832 2.9731C6.53002 3.45557 6.012 3.75418 5.45743 3.75418H2.03345L0.112746 7.06348L1.83337 10.0314C2.11167 10.5149 2.11167 11.1131 1.83337 11.5935L0 14.7778L1.90648 18.0879H5.58034C6.13491 18.0879 6.65192 18.3865 6.93022 18.8669L8.64678 21.841H12.466L14.1927 18.8679C14.471 18.3865 14.989 18.0869 15.5436 18.0869H18.9665L20.8872 14.7776L19.1656 11.8026C18.8883 11.3232 18.8893 10.726 19.1666 10.2435L21 7.06351ZM17.8158 12.5838L19.0844 14.7767L18.0687 16.5268H15.5436C14.4345 16.5268 13.3995 17.124 12.8428 18.0849L11.5681 20.2809H9.54784L8.28226 18.0859C7.72565 17.124 6.69063 16.5268 5.5814 16.5268H2.80957L1.80097 14.7767L3.18436 12.3725C3.73995 11.4137 3.74097 10.2182 3.18436 9.25016L1.91574 7.06332L2.93144 5.31426H5.45649C6.56564 5.31426 7.60066 4.716 8.15734 3.75514L9.43205 1.56019H11.4523L12.7179 3.75412C13.2755 4.716 14.3095 5.31426 15.4187 5.31426H18.1906L19.1982 7.06332L17.8137 9.46447C17.2602 10.4294 17.2602 11.625 17.8158 12.5838Z" fill="#181B1F"/>
</svg>
