<svg width="96" height="95" viewBox="0 0 96 95" fill="none" xmlns="http://www.w3.org/2000/svg">
<path d="M48.8296 61.2661C50.2443 61.2661 51.4175 60.162 51.5095 58.7473L53.3152 30.6379C53.4762 28.05 51.429 25.8533 48.8296 25.8533C46.2303 25.8533 44.1716 28.05 44.3441 30.6379L46.1498 58.7473C46.2418 60.162 47.415 61.2661 48.8296 61.2661Z" fill="#F76B64"/>
<path d="M48.8303 72.6985C51.4791 72.6985 53.6263 70.5512 53.6263 67.9024C53.6263 65.2536 51.4791 63.1063 48.8303 63.1063C46.1815 63.1063 44.0342 65.2536 44.0342 67.9024C44.0342 70.5512 46.1815 72.6985 48.8303 72.6985Z" fill="#F76B64"/>
<path d="M48.0117 0.75C73.6066 0.75 94.4248 21.5907 94.4248 47.1865C94.4248 72.7819 73.607 93.5996 48.0117 93.5996C22.4159 93.5996 1.57521 72.7814 1.5752 47.1865C1.5752 21.5912 22.4164 0.75 48.0117 0.75ZM48.0117 7.11328C25.8375 7.11328 7.93848 25.0123 7.93848 47.1865C7.93849 69.3613 25.8381 87.2373 48.0117 87.2373C70.1859 87.2373 88.0625 69.3607 88.0625 47.1865C88.0625 25.0129 70.1865 7.11328 48.0117 7.11328Z" fill="#F76B64" stroke="white" stroke-width="1.5"/>
</svg>
