<svg width="20" height="19" viewBox="0 0 20 19" fill="none" xmlns="http://www.w3.org/2000/svg">
<path d="M5.43026 18C4.9966 17.9955 4.58645 17.805 4.3067 17.4779C4.02771 17.1507 3.90717 16.7197 3.97768 16.2984L4.73428 11.9504L1.52806 8.87081C1.1255 8.48463 0.980696 7.90648 1.1543 7.37987C1.32791 6.85327 1.78961 6.46933 2.34532 6.39015L6.77658 5.75598L8.75834 1.8V1.79925C9.01156 1.30924 9.52329 1 10.082 1C10.6408 1 11.1525 1.30924 11.4057 1.79925L13.3867 5.75524L17.818 6.3894V6.39015C18.3737 6.46933 18.8361 6.85327 19.0097 7.37987C19.1833 7.90648 19.0386 8.48387 18.6367 8.87081L15.4299 11.9504L16.1865 16.2984C16.2821 16.8437 16.0539 17.395 15.5998 17.7206C15.1449 18.0455 14.5422 18.0881 14.0448 17.8304L10.0821 15.7779L6.11934 17.8304C5.90706 17.941 5.67059 17.9993 5.43026 18ZM10.0822 2.18389C9.98136 2.18165 9.88886 2.23842 9.84642 2.32805L7.72356 6.56552V6.56627C7.63486 6.74255 7.46429 6.86431 7.2664 6.89268L2.51976 7.57242C2.4212 7.58661 2.33857 7.65533 2.30825 7.74944C2.27717 7.84281 2.30294 7.94589 2.37496 8.01536L5.80923 11.3132C5.95176 11.4506 6.01695 11.6485 5.9836 11.842L5.17316 16.5C5.15572 16.5971 5.19666 16.6957 5.27702 16.7532C5.35814 16.8114 5.4658 16.8189 5.5545 16.7733L9.80002 14.5743C9.97667 14.4817 10.1874 14.4817 10.3641 14.5743L14.6096 16.7733C14.6983 16.8189 14.8052 16.8114 14.8863 16.7532C14.9674 16.6957 15.0084 16.5971 14.9917 16.5L14.1805 11.842C14.1471 11.6485 14.2123 11.4506 14.3549 11.3132L17.7891 8.01536C17.8611 7.94589 17.8869 7.84281 17.8558 7.7487C17.8248 7.65533 17.7429 7.58661 17.6435 7.57242L12.8969 6.89268C12.6998 6.86505 12.5285 6.74254 12.4405 6.56627L10.3184 2.3288C10.276 2.23842 10.1827 2.18165 10.0819 2.18389L10.0822 2.18389Z" fill="#DB423D" stroke="#DB423D" stroke-width="0.5"/>
</svg>
