<svg width="122" height="95" viewBox="0 0 122 95" fill="none" xmlns="http://www.w3.org/2000/svg">
<path d="M47.8369 0.75C73.4318 0.75 94.25 21.5907 94.25 47.1865C94.25 72.7819 73.4322 93.5996 47.8369 93.5996C22.2411 93.5996 1.40041 72.7814 1.40039 47.1865C1.40039 21.5912 22.2416 0.75 47.8369 0.75ZM47.8369 7.11328C25.6627 7.11328 7.76367 25.0123 7.76367 47.1865C7.76369 69.3613 25.6633 87.2373 47.8369 87.2373C70.0111 87.2373 87.8877 69.3607 87.8877 47.1865C87.8877 25.0129 70.0117 7.11328 47.8369 7.11328ZM67.458 28.9834C68.2917 28.9217 69.1169 29.1902 69.7539 29.7314V29.7324C70.3524 30.2493 70.7355 30.9689 70.832 31.75L70.8477 31.9072C70.9055 32.696 70.6677 33.476 70.1836 34.0967L70.083 34.2188V34.2197L44.1973 64.29C43.9448 64.5831 43.6411 64.8269 43.3018 65.0107L43.1543 65.0859C42.7551 65.2761 42.3209 65.3817 41.8789 65.3945C41.4922 65.4058 41.1068 65.3463 40.7422 65.2197L40.5869 65.1611C40.2286 65.0153 39.9006 64.805 39.6182 64.542L39.5 64.4268L39.499 64.4258L25.708 50.1816L25.707 50.1807L25.6006 50.0654C25.1166 49.5161 24.8368 48.8165 24.8086 48.085L24.8066 47.9277C24.8153 47.1396 25.1161 46.3847 25.6475 45.8076L25.7568 45.6943V45.6934C26.0181 45.4357 26.3221 45.2261 26.6543 45.0723L26.7979 45.0098C27.1864 44.8526 27.6023 44.7734 28.0215 44.7773C28.4407 44.7814 28.8556 44.8685 29.2412 45.0332C29.5784 45.1773 29.8881 45.378 30.1562 45.627L30.2686 45.7363L41.0859 56.9072L41.6572 57.4971L42.1934 56.875L65.2676 30.0918L65.2695 30.0889C65.5088 29.8089 65.7949 29.5734 66.1143 29.3916L66.2529 29.3174C66.5813 29.1513 66.9354 29.0429 67.2998 28.998L67.457 28.9834H67.458Z" fill="#3BC47D" stroke="white" stroke-width="1.5"/>
<path d="M98.0817 8.47105H101.788V9.62705H98.0817V13.35H96.9257V9.62705H93.2197V8.47105H96.9257V4.74805H98.0817V8.47105Z" fill="#3BC47D"/>
<circle cx="118" cy="12.3496" r="4" fill="#3BC47D"/>
<circle cx="104" cy="51.3496" r="3" fill="#3BC47D"/>
<circle cx="104" cy="31.3496" r="2" fill="#3BC47D"/>
<circle cx="115" cy="32.3496" r="2" fill="#3BC47D"/>
<circle cx="110" cy="38.3496" r="2" fill="#3BC47D"/>
<circle cx="110" cy="19.3496" r="2" fill="#3BC47D"/>
</svg>
