<svg width="15" height="15" viewBox="0 0 15 15" fill="none" xmlns="http://www.w3.org/2000/svg">
<path d="M12.6274 6.18666H14.1818C14.6334 6.18666 15 6.54901 15 6.99488C15 7.44641 14.6334 7.813 14.1818 7.813H12.6274C12.1759 7.813 11.8092 7.44641 11.8092 6.99488C11.8092 6.54901 12.1759 6.18666 12.6274 6.18666ZM5.17153 5.3629C5.60752 4.61414 6.3139 4.07627 7.15763 3.84697C7.43651 3.77196 7.72953 3.73232 8.00415 3.73232C8.56474 3.73232 9.12533 3.88377 9.62645 4.17109C10.3824 4.61272 10.9245 5.3176 11.1525 6.15836C11.3733 6.99771 11.2544 7.87811 10.8184 8.63676C10.2451 9.63746 9.16353 10.2574 7.99423 10.2574C7.41809 10.2574 6.86881 10.1131 6.36204 9.82856C5.60894 9.39403 5.06959 8.68915 4.84451 7.8427C4.61943 6.99771 4.73551 6.11731 5.1701 5.36286L5.17153 5.3629ZM6.4215 7.42376C6.53333 7.84557 6.80372 8.19799 7.18452 8.41598C7.4181 8.55611 7.69981 8.63113 7.99567 8.63113C8.57749 8.63113 9.12109 8.31973 9.41553 7.81867C9.63353 7.43367 9.68875 6.99207 9.57266 6.57309C9.46508 6.15556 9.19751 5.80451 8.81957 5.58511C8.57184 5.44215 8.29863 5.36996 8.00701 5.36996C7.87253 5.36996 7.7253 5.38695 7.57666 5.41809C7.15621 5.53557 6.80375 5.80732 6.58715 6.18243C6.36914 6.56177 6.3111 7.00337 6.42293 7.42376L6.4215 7.42376ZM7.18735 11.6277V13.1819C7.18735 13.6334 7.54974 14 7.99567 14C8.44725 14 8.81389 13.6334 8.81389 13.1819V11.6277C8.81389 11.1762 8.44725 10.8096 7.99567 10.8096C7.54974 10.8096 7.18735 11.1762 7.18735 11.6277ZM4.14946 4.30575C4.30093 4.4572 4.50478 4.54212 4.72136 4.54212C4.94786 4.54212 5.15029 4.46003 5.3046 4.30575C5.45749 4.14156 5.541 3.93916 5.541 3.73392C5.541 3.51878 5.46031 3.3178 5.30743 3.15358L4.20042 2.05664C4.04187 1.89812 3.83803 1.81036 3.62853 1.81036C3.40769 1.81036 3.20666 1.89529 3.04529 2.05664C2.89382 2.20809 2.80888 2.41192 2.80888 2.62847C2.80888 2.8337 2.8924 3.03611 3.04246 3.19888L4.14946 4.30575ZM11.2673 4.54212C11.4923 4.54212 11.7018 4.45578 11.842 4.30433L12.9448 3.2017C13.1019 3.05025 13.1882 2.84643 13.1882 2.62988C13.1882 2.4119 13.1019 2.20807 12.9433 2.05664C12.8018 1.90377 12.5866 1.81177 12.3714 1.81177C12.1605 1.81177 11.9468 1.89953 11.7995 2.04815L10.6954 3.15219C10.5382 3.30364 10.4519 3.50888 10.4519 3.7297C10.4519 3.95052 10.5382 4.15575 10.6968 4.30863C10.8341 4.45725 11.0436 4.54359 11.2687 4.54359L11.2673 4.54212ZM7.99447 3.19179C8.44605 3.19179 8.81269 2.8252 8.81269 2.37368L8.81411 0.818112C8.81411 0.366589 8.44747 0 7.99589 0C7.54996 0 7.18757 0.366589 7.18757 0.818112V2.37226C7.18757 2.82379 7.54996 3.19038 7.99589 3.19038L7.99447 3.19179ZM4.18088 6.99533C4.18088 6.54945 3.81849 6.18711 3.37256 6.18711H1.81822C1.36663 6.18711 1 6.54945 1 6.99533C1 7.44685 1.36663 7.81344 1.81822 7.81344H3.37256C3.82556 7.81344 4.18088 7.45392 4.18088 6.99533ZM3.62751 12.1916C3.83843 12.1916 4.04085 12.1038 4.1994 11.9453L5.30358 10.8512C5.4593 10.6841 5.53999 10.4832 5.53999 10.268C5.53999 10.0628 5.45647 9.86035 5.30641 9.69758C5.1507 9.54189 4.94827 9.45979 4.72176 9.45979C4.50517 9.45979 4.30131 9.5433 4.14987 9.69617L3.04569 10.8002C2.89846 10.9474 2.80928 11.1626 2.80928 11.372C2.80928 11.5886 2.8928 11.7924 3.04569 11.9439C3.20706 12.1052 3.40808 12.1901 3.62892 12.1901L3.62751 12.1916ZM11.8395 9.69617C11.7008 9.54755 11.4913 9.45979 11.2676 9.45979C11.0425 9.45979 10.833 9.54613 10.6929 9.69758C10.5386 9.84762 10.4508 10.0529 10.4508 10.2736C10.4508 10.4945 10.5372 10.6997 10.6957 10.8526L11.7999 11.9467C11.9415 12.0996 12.1566 12.193 12.3718 12.193C12.587 12.193 12.8022 12.0996 12.9465 11.9453C13.1008 11.7952 13.1886 11.5928 13.1886 11.3749C13.1886 11.1569 13.1022 10.9531 12.9437 10.8016L11.8395 9.69758V9.69617Z" fill="#9F9AF4"/>
</svg>
