<svg width="30" height="30" viewBox="0 0 30 30" fill="none" xmlns="http://www.w3.org/2000/svg">
<path d="M25.7346 2.10844C25.6306 2.04497 25.5117 2.00806 25.389 2.00118C25.2663 1.99429 25.1438 2.01766 25.033 2.06909L22.7714 3.12475L20.5113 2.07611C20.4133 2.03071 20.3061 2.00715 20.1975 2.00715C20.0889 2.00715 19.9817 2.03071 19.8838 2.07611L17.6265 3.12335L15.3766 2.07611C15.2783 2.03098 15.1709 2.00757 15.0621 2.00757C14.9533 2.00757 14.8459 2.03098 14.7476 2.07611L12.4933 3.12335L10.2419 2.07611C10.1436 2.03098 10.0362 2.00757 9.92742 2.00757C9.81864 2.00757 9.71122 2.03098 9.61294 2.07611L7.36443 3.12335L5.11301 2.07611C5.00229 2.02479 4.87994 2.00146 4.75738 2.00832C4.63482 2.01517 4.51606 2.05197 4.41218 2.11529C4.30831 2.17861 4.22272 2.26637 4.1634 2.37039C4.10409 2.4744 4.07298 2.59127 4.073 2.71008V27.2967C4.07298 27.4155 4.10409 27.5324 4.1634 27.6364C4.22272 27.7404 4.30831 27.8282 4.41218 27.8915C4.51606 27.9548 4.63482 27.9916 4.75738 27.9985C4.87994 28.0053 5.00229 27.982 5.11301 27.9307L7.36443 26.8835L9.61294 27.9307C9.71107 27.9763 9.81855 28 9.92742 28C10.0363 28 10.1438 27.9763 10.2419 27.9307L12.4933 26.8835L14.7476 27.9307C14.8459 27.9758 14.9533 27.9992 15.0621 27.9992C15.1709 27.9992 15.2783 27.9758 15.3766 27.9307L17.6265 26.8835L19.8838 27.9307C19.9817 27.9761 20.0889 27.9997 20.1975 27.9997C20.3061 27.9997 20.4133 27.9761 20.5113 27.9307L22.7714 26.8835L25.033 27.9307C25.1437 27.982 25.2661 28.0053 25.3886 27.9985C25.5112 27.9916 25.6299 27.9548 25.7338 27.8915C25.8377 27.8282 25.9233 27.7404 25.9826 27.6364C26.0419 27.5324 26.073 27.4155 26.073 27.2967V2.70305C26.0731 2.58434 26.0421 2.46756 25.9829 2.36358C25.9237 2.25961 25.8383 2.17183 25.7346 2.10844ZM24.6205 26.175L23.0851 25.4623C22.9872 25.4169 22.88 25.3934 22.7714 25.3934C22.6628 25.3934 22.5556 25.4169 22.4577 25.4623L20.1975 26.511L17.9403 25.4623C17.8425 25.4165 17.7352 25.3924 17.6265 25.392C17.5174 25.3922 17.4096 25.4163 17.3113 25.4623L15.0614 26.5081L12.8071 25.4623C12.7089 25.4167 12.6014 25.393 12.4926 25.393C12.3837 25.393 12.2762 25.4167 12.1781 25.4623L9.92814 26.5081L7.67963 25.4623C7.58149 25.4167 7.47402 25.393 7.36515 25.393C7.25629 25.393 7.14881 25.4167 7.05068 25.4623L5.52553 26.1652V3.82759L7.05068 4.53043C7.14881 4.57605 7.25629 4.59974 7.36515 4.59974C7.47402 4.59974 7.58149 4.57605 7.67963 4.53043L9.92814 3.48461L12.1781 4.53043C12.2762 4.57605 12.3837 4.59974 12.4926 4.59974C12.6014 4.59974 12.7089 4.57605 12.8071 4.53043L15.0614 3.48461L17.3113 4.53043C17.4095 4.57605 17.517 4.59974 17.6258 4.59974C17.7347 4.59974 17.8422 4.57605 17.9403 4.53043L20.1975 3.4832L22.4577 4.53184C22.5556 4.57724 22.6628 4.6008 22.7714 4.6008C22.88 4.6008 22.9872 4.57724 23.0851 4.53184L24.6205 3.82056V26.175ZM10.3857 13.013C10.3857 12.8266 10.4622 12.6478 10.5984 12.516C10.7346 12.3842 10.9193 12.3101 11.112 12.3101H17.2954L15.4071 10.4827C15.3377 10.4179 15.2824 10.3403 15.2443 10.2546C15.2063 10.1688 15.1862 10.0766 15.1854 9.9833C15.1845 9.88998 15.2029 9.79743 15.2394 9.71105C15.276 9.62467 15.3299 9.5462 15.3981 9.48021C15.4663 9.41422 15.5474 9.36203 15.6366 9.32669C15.7259 9.29135 15.8215 9.27357 15.9179 9.27438C16.0144 9.27519 16.1097 9.29458 16.1983 9.33141C16.2869 9.36825 16.367 9.42179 16.434 9.48892L19.57 12.5238C19.6714 12.6222 19.7403 12.7474 19.7681 12.8836C19.796 13.0199 19.7815 13.1611 19.7265 13.2894C19.6715 13.4177 19.5784 13.5273 19.459 13.6045C19.3397 13.6816 19.1994 13.7228 19.0558 13.7228H11.1047C11.0087 13.7228 10.9137 13.7044 10.8251 13.6687C10.7365 13.6329 10.6561 13.5805 10.5886 13.5145C10.521 13.4485 10.4677 13.3702 10.4316 13.2841C10.3955 13.198 10.3775 13.1058 10.3784 13.013H10.3857ZM19.7748 16.9798C19.7748 17.1662 19.6983 17.345 19.5621 17.4768C19.4259 17.6086 19.2412 17.6826 19.0486 17.6826H12.8579L14.7462 19.51C14.8155 19.5749 14.8709 19.6524 14.9089 19.7382C14.947 19.8239 14.967 19.9161 14.9679 20.0095C14.9687 20.1028 14.9503 20.1953 14.9138 20.2817C14.8773 20.3681 14.8234 20.4466 14.7552 20.5125C14.687 20.5785 14.6059 20.6307 14.5166 20.6661C14.4274 20.7014 14.3318 20.7192 14.2353 20.7184C14.1389 20.7176 14.0436 20.6982 13.955 20.6613C13.8664 20.6245 13.7862 20.571 13.7192 20.5038L10.5905 17.476C10.4892 17.3776 10.4202 17.2524 10.3924 17.1161C10.3645 16.9799 10.379 16.8387 10.4341 16.7104C10.4891 16.5821 10.5821 16.4725 10.7015 16.3953C10.8209 16.3182 10.9612 16.277 11.1047 16.277H19.0413C19.2339 16.277 19.4187 16.351 19.5549 16.4828C19.6911 16.6146 19.7676 16.7934 19.7676 16.9798H19.7748Z" fill="#5756C8" stroke="#5756C8" stroke-width="0.5"/>
</svg>
