<svg width="13" height="15" viewBox="0 0 13 15" fill="none" xmlns="http://www.w3.org/2000/svg">
<path fill-rule="evenodd" clip-rule="evenodd" d="M6.56213 3.83496C5.19942 3.83496 4.09473 4.93967 4.09473 6.30237C4.09473 7.66508 5.19942 8.76978 6.56213 8.76978C7.92483 8.76978 9.02953 7.66508 9.02953 6.30237C9.02953 4.93967 7.92483 3.83496 6.56213 3.83496ZM4.91719 6.30237C4.91719 5.39387 5.65367 4.65743 6.56213 4.65743C7.47058 4.65743 8.20706 5.39387 8.20706 6.30237C8.20706 7.21083 7.47058 7.94731 6.56213 7.94731C5.65367 7.94731 4.91719 7.21083 4.91719 6.30237Z" fill="#5756C8" stroke="#5756C8" stroke-width="0.5"/>
<path fill-rule="evenodd" clip-rule="evenodd" d="M2.61091 10.3354C0.463029 8.18748 0.46303 4.70507 2.61091 2.5572C4.75879 0.409318 8.24118 0.409318 10.3891 2.5572C12.537 4.70507 12.537 8.18748 10.3891 10.3354L6.7908 13.9337C6.63017 14.0943 6.36982 14.0943 6.20919 13.9337L2.61091 10.3354ZM3.19248 3.13877C1.3658 4.96546 1.3658 7.92709 3.19248 9.75379L6.50001 13.0613L9.80749 9.75379C11.6342 7.92713 11.6342 4.96546 9.80749 3.13877C7.98083 1.31208 5.01916 1.31208 3.19248 3.13877Z" fill="#5756C8" stroke="#5756C8" stroke-width="0.5"/>
</svg>
