<svg width="22" height="22" viewBox="0 0 22 22" fill="none" xmlns="http://www.w3.org/2000/svg">
<path d="M11 2.75C11.3647 2.75 11.7144 2.89487 11.9723 3.15273C12.2301 3.41059 12.375 3.76033 12.375 4.125V17.875C12.375 18.2397 12.2301 18.5894 11.9723 18.8473C11.7144 19.1051 11.3647 19.25 11 19.25C10.6353 19.25 10.2856 19.1051 10.0277 18.8473C9.76987 18.5894 9.625 18.2397 9.625 17.875V4.125C9.625 3.76033 9.76987 3.41059 10.0277 3.15273C10.2856 2.89487 10.6353 2.75 11 2.75ZM16.5 8.25C16.8647 8.25 17.2144 8.39487 17.4723 8.65273C17.7301 8.91059 17.875 9.26033 17.875 9.625V17.875C17.875 18.2397 17.7301 18.5894 17.4723 18.8473C17.2144 19.1051 16.8647 19.25 16.5 19.25C16.1353 19.25 15.7856 19.1051 15.5277 18.8473C15.2699 18.5894 15.125 18.2397 15.125 17.875V9.625C15.125 9.26033 15.2699 8.91059 15.5277 8.65273C15.7856 8.39487 16.1353 8.25 16.5 8.25ZM6.875 12.375C6.875 12.0103 6.73013 11.6606 6.47227 11.4027C6.21441 11.1449 5.86467 11 5.5 11C5.13533 11 4.78559 11.1449 4.52773 11.4027C4.26987 11.6606 4.125 12.0103 4.125 12.375V17.875C4.125 18.2397 4.26987 18.5894 4.52773 18.8473C4.78559 19.1051 5.13533 19.25 5.5 19.25C5.86467 19.25 6.21441 19.1051 6.47227 18.8473C6.73013 18.5894 6.875 18.2397 6.875 17.875V12.375Z" fill="#51C2C8"/>
</svg>
