<svg width="20" height="20" viewBox="0 0 20 20" fill="none" xmlns="http://www.w3.org/2000/svg">
<path d="M17.9102 7.061C18.622 8.97437 18.6161 11.0809 17.8938 12.9903C17.1715 14.8997 15.7817 16.4826 13.9817 17.4458C12.1818 18.409 10.0938 18.6873 8.1044 18.229C6.11505 17.7707 4.3592 16.6069 3.1621 14.9533C1.965 13.2997 1.40779 11.2682 1.59367 9.23524C1.77956 7.20226 2.69595 5.30554 4.17309 3.89642C5.65023 2.4873 7.58801 1.66129 9.62749 1.57138C11.667 1.48147 13.6699 2.13377 15.2653 3.40744L16.8361 1.83663C17.012 1.66101 17.2504 1.56241 17.4989 1.5625C17.7475 1.56259 17.9858 1.66135 18.1615 1.83709C18.3372 2.01283 18.436 2.25115 18.4361 2.49968C18.4362 2.74821 18.3376 2.9866 18.162 3.16246L13.3138 8.0106L13.3137 8.01079L13.3135 8.01098L10.662 10.6625C10.4861 10.8381 10.2477 10.9367 9.9992 10.9366C9.75067 10.9365 9.51234 10.8377 9.33661 10.662C9.16087 10.4863 9.0621 10.2479 9.06202 9.99941C9.06193 9.75088 9.16053 9.51249 9.33614 9.33663L11.2121 7.46071C10.6835 7.20812 10.0893 7.12686 9.51228 7.22826C8.93531 7.32966 8.40439 7.60866 7.99362 8.02633C7.58284 8.444 7.31272 8.97949 7.22094 9.55807C7.12916 10.1367 7.22031 10.7295 7.48166 11.2537C7.74301 11.778 8.16153 12.2076 8.6788 12.4826C9.19607 12.7576 9.78628 12.8642 10.3671 12.7876C10.9479 12.711 11.4902 12.455 11.9185 12.0553C12.3468 11.6555 12.6396 11.1321 12.756 10.558C12.7802 10.4372 12.828 10.3224 12.8966 10.2201C12.9652 10.1179 13.0533 10.0301 13.1559 9.96187C13.2584 9.89364 13.3734 9.84629 13.4943 9.82252C13.6151 9.79875 13.7394 9.79903 13.8602 9.82333C13.9809 9.84764 14.0957 9.8955 14.1979 9.96418C14.3002 10.0329 14.3879 10.121 14.456 10.2236C14.5242 10.3262 14.5715 10.4412 14.5951 10.5621C14.6188 10.6829 14.6185 10.8073 14.5941 10.928C14.3949 11.9115 13.8852 12.8051 13.14 13.4773C12.3948 14.1494 11.4535 14.5645 10.4547 14.6615C9.45593 14.7586 8.45235 14.5324 7.59174 14.0163C6.73112 13.5002 6.05893 12.7214 5.67412 11.7946C5.2893 10.8678 5.21218 9.84197 5.45413 8.86806C5.69607 7.89416 6.24428 7.02365 7.01807 6.38468C7.79186 5.74572 8.75034 5.37204 9.75243 5.31868C10.7545 5.26531 11.7473 5.53506 12.5845 6.08822L13.9284 4.74438C12.6647 3.8014 11.1036 3.34533 9.53107 3.45973C7.95852 3.57414 6.47985 4.25136 5.36599 5.3673C4.25213 6.48324 3.57768 7.96318 3.46622 9.53594C3.35476 11.1087 3.81375 12.669 4.75909 13.9308C5.70444 15.1927 7.07282 16.0717 8.61352 16.4068C10.1542 16.7418 11.7641 16.5104 13.1481 15.7551C14.5321 14.9998 15.5976 13.771 16.1493 12.294C16.701 10.817 16.7021 9.19059 16.1522 7.71286C16.0658 7.47974 16.0755 7.22183 16.1792 6.99586C16.2829 6.7699 16.4722 6.59439 16.7053 6.50795C16.9384 6.42151 17.1963 6.43121 17.4223 6.53493C17.6483 6.63865 17.8238 6.82788 17.9102 7.061Z" fill="#F76B64"/>
</svg>
