<svg width="6" height="11" viewBox="0 0 6 11" fill="none" xmlns="http://www.w3.org/2000/svg">
<path d="M6 5.50311C6 5.61077 5.98232 5.71015 5.94696 5.80124C5.90766 5.89234 5.84872 5.9793 5.77014 6.06211L1.17878 10.795C1.04519 10.9317 0.884085 11 0.69548 11C0.565814 11 0.449901 10.9669 0.34774 10.9006C0.241649 10.8385 0.15717 10.7536 0.0943013 10.646C0.0314331 10.5383 -1.37947e-06 10.4161 -1.36752e-06 10.2795C-1.35051e-06 10.0849 0.0726906 9.91097 0.218073 9.75776L4.3556 5.50311L0.218074 1.24845C0.0726914 1.09524 -5.49225e-07 0.919256 -5.31849e-07 0.720498C-5.20265e-07 0.587992 0.031434 0.467909 0.0943022 0.360249C0.157171 0.248448 0.24165 0.161492 0.347741 0.09938C0.449902 0.0331273 0.565815 4.78603e-07 0.695481 4.89938e-07C0.884086 5.06427e-07 1.04519 0.0703941 1.17878 0.211181L5.77014 4.9441C5.84872 5.02692 5.90766 5.11387 5.94696 5.20497C5.98232 5.29607 6 5.39545 6 5.50311Z" fill="#272682"/>
</svg>
