<svg width="9" height="14" viewBox="0 0 9 14" fill="none" xmlns="http://www.w3.org/2000/svg">
<path d="M8.26953 7.00409C8.26953 7.13928 8.24613 7.26407 8.19934 7.37847C8.14734 7.49286 8.06934 7.60206 7.96535 7.70605L1.88945 13.6494C1.71266 13.8209 1.49947 13.9067 1.24989 13.9067C1.07829 13.9067 0.924901 13.8651 0.789708 13.7819C0.649315 13.7039 0.537521 13.5974 0.454325 13.4622C0.37113 13.327 0.329532 13.1736 0.329532 13.002C0.329532 12.7576 0.425727 12.5392 0.618117 12.3468L6.09344 7.00409L0.618118 1.66135C0.425728 1.46896 0.329533 1.24797 0.329533 0.998388C0.329533 0.831995 0.371131 0.681203 0.454326 0.54601C0.537522 0.405617 0.649317 0.296422 0.789709 0.218426C0.924903 0.13523 1.0783 0.093633 1.24989 0.093633C1.49947 0.0936331 1.71266 0.182028 1.88945 0.358819L7.96535 6.30212C8.06934 6.40612 8.14734 6.51531 8.19934 6.6297C8.24613 6.7441 8.26953 6.86889 8.26953 7.00409Z" fill="#C3CAD6"/>
</svg>
