<svg width="9" height="15" viewBox="0 0 9 15" fill="none" xmlns="http://www.w3.org/2000/svg">
<path d="M8.45313 7.50384C8.45313 7.63903 8.42973 7.76383 8.38293 7.87822C8.33093 7.99262 8.25294 8.10181 8.14894 8.20581L2.07305 14.1491C1.89626 14.3207 1.68307 14.4065 1.43348 14.4065C1.26189 14.4065 1.1085 14.3649 0.973302 14.2817C0.832909 14.2037 0.721115 14.0971 0.637919 13.9619C0.554723 13.8267 0.513125 13.6733 0.513125 13.5017C0.513126 13.2574 0.60932 13.039 0.801711 12.8466L6.27704 7.50384L0.801712 2.16111C0.609321 1.96872 0.513127 1.74773 0.513127 1.49814C0.513127 1.33175 0.554724 1.18096 0.63792 1.04577C0.721116 0.905373 0.83291 0.796178 0.973303 0.718182C1.1085 0.634986 1.26189 0.593389 1.43348 0.593389C1.68307 0.593389 1.89626 0.681784 2.07305 0.858575L8.14894 6.80188C8.25294 6.90587 8.33093 7.01507 8.38293 7.12946C8.42973 7.24385 8.45313 7.36865 8.45313 7.50384Z" fill="#C3CAD6"/>
</svg>
