<svg width="24" height="24" viewBox="0 0 24 24" fill="none" xmlns="http://www.w3.org/2000/svg">
<path d="M5.58165 15.0857C5.58165 15.5502 5.9584 15.926 6.42177 15.926C6.88513 15.926 7.26189 15.5502 7.26189 15.0857C7.26189 13.6942 8.38992 12.5659 9.7811 12.5659H15.5989L14.2077 13.9574V13.9585C14.0435 14.1149 13.9502 14.3309 13.9502 14.5581C13.9502 14.7853 14.0435 15.0013 14.2077 15.1576C14.364 15.3219 14.58 15.4152 14.8071 15.4152C15.0343 15.4152 15.2503 15.3219 15.4066 15.1576L18.1777 12.3263C18.2519 12.2273 18.3126 12.1182 18.3576 12.0024C18.3756 11.8989 18.3756 11.7931 18.3576 11.6908C18.3745 11.5907 18.3745 11.4894 18.3576 11.3904C18.3149 11.2881 18.2542 11.1947 18.1777 11.1148L15.3593 8.31842C15.0276 7.98772 14.4911 7.98772 14.1593 8.31842C13.8275 8.65025 13.8275 9.18682 14.1593 9.51867L15.5989 10.8865H9.81706C8.69691 10.8764 7.6195 11.3151 6.82424 12.1036C6.02912 12.8922 5.58165 13.9666 5.58165 15.0857ZM0.962711 14.3174L9.68436 23.0408C10.9631 24.3197 13.0371 24.3197 14.3157 23.0408L23.0362 14.3185C23.6536 13.7055 24 12.8719 24 12.0024C24 11.1328 23.6536 10.2993 23.0362 9.68627L14.3157 0.964029C13.7027 0.346482 12.8694 0 12 0C11.1306 0 10.2973 0.346454 9.68436 0.964029L0.962711 9.68743L0.963837 9.6863C0.346415 10.2994 0 11.1329 0 12.0024C0 12.872 0.346386 13.7055 0.963837 14.3185L0.962711 14.3174ZM2.16272 10.8741L10.872 2.13951C11.4951 1.51744 12.505 1.51744 13.128 2.13951L21.8609 10.8741C22.4705 11.5029 22.4705 12.5018 21.8609 13.1306L13.128 21.8653C12.4993 22.4749 11.5007 22.4749 10.872 21.8653L2.13911 13.1306C1.52955 12.5018 1.52955 11.5029 2.13911 10.8741H2.16272Z" fill="#5756C8"/>
</svg>
