<svg width="16" height="17" viewBox="0 0 16 17" fill="none" xmlns="http://www.w3.org/2000/svg">
<path d="M10.6163 10.8627L10.9433 10.543L10.1625 9.85438L9.83545 10.174L10.6163 10.8627ZM12.0192 10.4084L13.3908 11.1415L13.9281 10.2749L12.5565 9.54179L12.0192 10.4084ZM13.6555 12.6614L12.6356 13.6585L13.4165 14.3471L14.4363 13.3501L13.6555 12.6614ZM12.022 13.9779C10.9918 14.0724 8.30369 13.9918 5.38594 11.1393L4.60514 11.828C7.78506 14.9367 10.8184 15.0931 12.1278 14.9731L12.022 13.9779ZM5.38594 11.1393C2.60317 8.41883 2.13639 6.12407 2.07821 5.11756L1.00288 5.17115C1.07413 6.40393 1.63783 8.92714 4.60514 11.828L5.38594 11.1393ZM6.37333 6.71474L6.57923 6.51344L5.79843 5.82478L5.59253 6.02608L6.37333 6.71474ZM6.74098 4.00718L5.83572 2.81823L4.95641 3.39552L5.8617 4.58447L6.74098 4.00718ZM2.77162 2.5619L1.64476 3.66353L2.42557 4.35219L3.55242 3.25057L2.77162 2.5619ZM5.98293 6.37041C5.59253 6.02608 5.59203 6.02656 5.59153 6.02705C5.59136 6.02722 5.59085 6.02772 5.59052 6.02805C5.58983 6.02873 5.58914 6.02942 5.58843 6.03012C5.58702 6.03154 5.58556 6.03301 5.58405 6.03455C5.58104 6.03762 5.57784 6.04095 5.57448 6.04454C5.56777 6.05171 5.56039 6.05991 5.5525 6.06917C5.53672 6.08769 5.51887 6.11045 5.50014 6.13762C5.46258 6.19213 5.42185 6.2639 5.38735 6.35391C5.31721 6.53695 5.27899 6.77935 5.32675 7.08205C5.42059 7.67678 5.84026 8.47656 6.93676 9.54852L7.71758 8.85988C6.69267 7.85784 6.44018 7.24073 6.39226 6.93708C6.36914 6.79059 6.39263 6.71339 6.40192 6.68916C6.40714 6.67553 6.41056 6.67174 6.40721 6.6766C6.4056 6.67894 6.40237 6.68336 6.39694 6.68973C6.39422 6.69292 6.39095 6.6966 6.38705 6.70077C6.38509 6.70285 6.38298 6.70506 6.3807 6.70739C6.37956 6.70856 6.37837 6.70975 6.37715 6.71098C6.37654 6.71159 6.37591 6.71221 6.37527 6.71284C6.37496 6.71315 6.37447 6.71363 6.37431 6.71378C6.37382 6.71426 6.37333 6.71474 5.98293 6.37041ZM6.93676 9.54852C8.03009 10.6174 8.85577 11.0375 9.48575 11.1325C9.80904 11.1813 10.0707 11.1423 10.2689 11.0698C10.3657 11.0343 10.4423 10.9927 10.4998 10.9548C10.5285 10.9359 10.5524 10.9179 10.5717 10.9023C10.5814 10.8944 10.5898 10.8871 10.5972 10.8804C10.601 10.8771 10.6044 10.8739 10.6076 10.871C10.6092 10.8695 10.6107 10.8681 10.6121 10.8667C10.6128 10.866 10.6135 10.8653 10.6143 10.8647C10.6146 10.8643 10.6151 10.8638 10.6153 10.8637C10.6158 10.8631 10.6163 10.8627 10.2259 10.5184C9.83545 10.174 9.83596 10.1736 9.83646 10.1731C9.8366 10.1729 9.83711 10.1724 9.83739 10.1721C9.83804 10.1715 9.83869 10.1709 9.83933 10.1703C9.84062 10.1691 9.84184 10.1679 9.84299 10.1668C9.84543 10.1646 9.84773 10.1624 9.84988 10.1605C9.85419 10.1566 9.85814 10.1533 9.86159 10.1505C9.86841 10.1449 9.8735 10.1413 9.87681 10.1392C9.88356 10.1347 9.88284 10.1362 9.87372 10.1396C9.85986 10.1446 9.7946 10.166 9.65841 10.1455C9.36938 10.1019 8.74579 9.86505 7.71758 8.85988L6.93676 9.54852ZM5.83572 2.81823C5.10803 1.86254 3.65192 1.7013 2.77162 2.5619L3.55242 3.25057C3.92778 2.88361 4.58858 2.91244 4.95641 3.39552L5.83572 2.81823ZM2.07821 5.11756C2.06283 4.85137 2.18765 4.58478 2.42557 4.35219L1.64476 3.66353C1.26006 4.03961 0.967668 4.56206 1.00288 5.17115L2.07821 5.11756ZM12.6356 13.6585C12.4353 13.8543 12.2258 13.9592 12.022 13.9779L12.1278 14.9731C12.6642 14.9239 13.0982 14.6583 13.4165 14.3471L12.6356 13.6585ZM6.57923 6.51344C7.2739 5.83434 7.32308 4.7716 6.74098 4.00718L5.8617 4.58447C6.16477 4.9825 6.1183 5.51207 5.79843 5.82478L6.57923 6.51344ZM13.3908 11.1415C13.9801 11.4565 14.0955 12.2314 13.6555 12.6614L14.4363 13.3501C15.3732 12.4342 15.1004 10.9015 13.9281 10.2749L13.3908 11.1415ZM10.9433 10.543C11.22 10.2725 11.6512 10.2117 12.0192 10.4084L12.5565 9.54179C11.7678 9.12027 10.7897 9.24113 10.1625 9.85438L10.9433 10.543Z" fill="#5756C8"/>
<path d="M10.2259 10.5184L9.83545 10.174M10.2259 10.5184C10.6163 10.8627 10.6158 10.8631 10.6153 10.8637C10.6151 10.8638 10.6146 10.8643 10.6143 10.8647C10.6135 10.8653 10.6128 10.866 10.6121 10.8667C10.6107 10.8681 10.6092 10.8695 10.6076 10.871C10.6044 10.8739 10.601 10.8771 10.5972 10.8804C10.5898 10.8871 10.5814 10.8944 10.5717 10.9023C10.5524 10.9179 10.5285 10.9359 10.4998 10.9548C10.4423 10.9927 10.3657 11.0343 10.2689 11.0698C10.0707 11.1423 9.80904 11.1813 9.48575 11.1325C8.85577 11.0375 8.03009 10.6174 6.93676 9.54852M10.2259 10.5184C9.83545 10.174 9.83596 10.1736 9.83646 10.1731C9.8366 10.1729 9.83711 10.1724 9.83739 10.1721C9.83804 10.1715 9.83868 10.1709 9.83933 10.1703C9.84062 10.1691 9.84184 10.1679 9.84299 10.1668C9.84543 10.1646 9.84773 10.1624 9.84988 10.1605C9.85419 10.1566 9.85814 10.1533 9.86159 10.1505C9.86841 10.1449 9.8735 10.1413 9.87681 10.1392C9.88356 10.1347 9.88284 10.1362 9.87372 10.1396C9.85986 10.1446 9.7946 10.166 9.65841 10.1455C9.36938 10.1019 8.74579 9.86505 7.71758 8.85988M9.83545 10.174L10.1625 9.85438M9.83545 10.174L10.6163 10.8627L10.9433 10.543M10.5529 10.1987L10.9433 10.543M10.9433 10.543L10.1625 9.85438M10.9433 10.543C11.22 10.2725 11.6512 10.2117 12.0192 10.4084M12.2878 9.97511L12.0192 10.4084M12.0192 10.4084L13.3908 11.1415M12.0192 10.4084L12.5565 9.54179M13.6594 10.7082L13.3908 11.1415M13.3908 11.1415L13.9281 10.2749M13.3908 11.1415C13.9801 11.4565 14.0955 12.2314 13.6555 12.6614M14.0459 13.0057L14.4363 13.3501M14.4363 13.3501L13.4165 14.3471M14.4363 13.3501L13.6555 12.6614M14.4363 13.3501C15.3732 12.4342 15.1004 10.9015 13.9281 10.2749M13.0261 14.0028L12.6356 13.6585M12.6356 13.6585L13.6555 12.6614M12.6356 13.6585L13.4165 14.3471M12.6356 13.6585C12.4353 13.8543 12.2258 13.9592 12.022 13.9779M12.0749 14.4755L12.1278 14.9731M12.1278 14.9731C10.8184 15.0931 7.78506 14.9367 4.60514 11.828M12.1278 14.9731L12.022 13.9779M12.1278 14.9731C12.6642 14.9239 13.0982 14.6583 13.4165 14.3471M4.99554 11.4837L5.38594 11.1393M5.38594 11.1393C8.30369 13.9918 10.9918 14.0724 12.022 13.9779M5.38594 11.1393L4.60514 11.828M5.38594 11.1393C2.60317 8.41883 2.13639 6.12407 2.07821 5.11756M1.54054 5.14436L1.00288 5.17115M1.00288 5.17115L2.07821 5.11756M1.00288 5.17115C1.07413 6.40393 1.63783 8.92714 4.60514 11.828M1.00288 5.17115C0.967668 4.56206 1.26006 4.03961 1.64476 3.66353M6.18884 6.16911L6.57923 6.51344M6.57923 6.51344L6.37333 6.71474L5.59253 6.02608L5.79843 5.82478M6.57923 6.51344L5.79843 5.82478M6.57923 6.51344C7.2739 5.83434 7.32308 4.7716 6.74098 4.00718M6.30135 4.29583L6.74098 4.00718M6.74098 4.00718L5.83572 2.81823M6.74098 4.00718L5.8617 4.58447M5.39607 3.10687L4.95641 3.39552M4.95641 3.39552L5.83572 2.81823M4.95641 3.39552L5.8617 4.58447M4.95641 3.39552C4.58858 2.91244 3.92778 2.88361 3.55242 3.25057M3.16202 2.90623L3.55242 3.25057M3.55242 3.25057L2.42557 4.35219M3.55242 3.25057L2.77162 2.5619M2.03517 4.00786L1.64476 3.66353M1.64476 3.66353L2.77162 2.5619M1.64476 3.66353L2.42557 4.35219M7.32717 9.2042L7.71758 8.85988M7.71758 8.85988L6.93676 9.54852M7.71758 8.85988C6.69267 7.85784 6.44018 7.24073 6.39226 6.93708C6.36914 6.79059 6.39263 6.71339 6.40192 6.68916C6.40714 6.67553 6.41056 6.67174 6.40721 6.6766C6.4056 6.67894 6.40237 6.68336 6.39694 6.68973C6.39422 6.69292 6.39095 6.6966 6.38705 6.70077C6.38509 6.70285 6.38298 6.70506 6.3807 6.70739C6.37956 6.70856 6.37837 6.70975 6.37715 6.71097C6.37654 6.71159 6.37591 6.71221 6.37527 6.71284C6.37496 6.71315 6.37447 6.71363 6.37431 6.71378C6.37382 6.71426 6.37333 6.71474 5.98293 6.37041C5.59253 6.02608 5.59203 6.02656 5.59153 6.02705C5.59136 6.02722 5.59085 6.02772 5.59052 6.02805C5.58983 6.02873 5.58914 6.02942 5.58843 6.03012C5.58702 6.03154 5.58556 6.03301 5.58405 6.03455C5.58104 6.03762 5.57784 6.04095 5.57448 6.04454C5.56777 6.05171 5.56039 6.05991 5.5525 6.06917C5.53672 6.08769 5.51887 6.11045 5.50014 6.13762C5.46258 6.19213 5.42185 6.2639 5.38735 6.35391C5.31721 6.53695 5.27899 6.77935 5.32675 7.08205C5.42059 7.67678 5.84026 8.47656 6.93676 9.54852M10.1625 9.85438C10.7897 9.24113 11.7678 9.12027 12.5565 9.54179M13.9281 10.2749L12.5565 9.54179M2.07821 5.11756C2.06283 4.85137 2.18765 4.58478 2.42557 4.35219M5.79843 5.82478C6.1183 5.51207 6.16477 4.9825 5.8617 4.58447M5.83572 2.81823C5.10803 1.86254 3.65192 1.7013 2.77162 2.5619" stroke="#5756C8" stroke-width="0.3"/>
</svg>
