<svg width="106" height="106" viewBox="0 0 106 106" fill="none" xmlns="http://www.w3.org/2000/svg">
<path d="M11.0801 13.7354H75.9717C81.8474 13.7356 86.5508 18.0985 86.5508 23.3691V41.4688H94.9209C100.797 41.4688 105.502 45.832 105.5 51.0996V82.6279C105.5 87.8971 100.796 92.2598 94.9199 92.2598H30.0293C24.1536 92.2595 19.4504 87.897 19.4502 82.6279V64.5293H11.0801C5.20406 64.5293 0.5 60.1658 0.5 54.8965V23.3691C0.5 18.2636 4.91346 14.0094 10.5322 13.748L11.0801 13.7354ZM30.0303 47.5752C28.8496 47.5753 27.7482 47.9541 26.9326 48.5752C26.1191 49.1949 25.5566 50.0865 25.5566 51.1016V82.6289C25.5566 83.644 26.119 84.5356 26.9326 85.1553C27.7482 85.7764 28.8496 86.1552 30.0303 86.1553H94.9229C96.1036 86.1552 97.2049 85.7764 98.0205 85.1553C98.8342 84.5356 99.3965 83.6441 99.3965 82.6289V82.1289H99.3945V51.1016C99.3945 50.0864 98.8323 49.1949 98.0186 48.5752C97.2029 47.9541 96.1017 47.5752 94.9209 47.5752H30.0303ZM6.60645 54.8975C6.6065 55.9126 7.16873 56.8042 7.98242 57.4238C8.79804 58.0448 9.89944 58.4238 11.0801 58.4238L18.9512 58.4229H19.4512V51.1016C19.4512 45.8324 24.1544 41.4689 30.0303 41.4688H80.4443V35.4707H6.60645V54.8975ZM11.0801 19.8438C9.8997 19.8438 8.79817 20.2225 7.98242 20.8438C7.16876 21.4635 6.60656 22.3546 6.60645 23.3701V29.3643H80.4443V23.3701C80.4442 22.3547 79.8821 21.4636 79.0684 20.8438C78.2528 20.2226 77.1522 19.8439 75.9717 19.8438H11.0801Z" fill="#9F9AF4" stroke="white"/>
<path d="M37.1621 63.811H49.4502C51.1363 63.811 52.5037 65.1778 52.5039 66.8638C52.5039 68.5499 51.1364 69.9175 49.4502 69.9175H37.1621C35.4761 69.9173 34.1094 68.5498 34.1094 66.8638C34.1096 65.1779 35.4762 63.8112 37.1621 63.811Z" fill="#9F9AF4" stroke="white" stroke-linejoin="round"/>
<path d="M37.1621 73.5818H39.9756C41.6616 73.5818 43.0281 74.9485 43.0283 76.6345C43.0283 78.3207 41.6618 79.6882 39.9756 79.6882H37.1621C35.4761 79.688 34.1094 78.3206 34.1094 76.6345C34.1096 74.9486 35.4762 73.582 37.1621 73.5818Z" fill="#9F9AF4" stroke="white" stroke-linejoin="round"/>
</svg>
