<svg width="32" height="26" viewBox="0 0 32 26" fill="none" xmlns="http://www.w3.org/2000/svg">
<path d="M31.836 3.30101V22.6989C31.836 24.1594 30.6512 25.3443 29.1909 25.3443H2.73893C1.27857 25.3443 0.09375 24.1594 0.09375 22.6989V3.30101C0.09375 1.84058 1.27857 0.655762 2.73893 0.655762H29.1909C30.6512 0.655762 31.836 1.84065 31.836 3.30101Z" fill="black"/>
<path d="M18.5766 13.2424C18.5766 17.2419 15.3344 20.4839 11.335 20.4839C7.33568 20.4839 4.09375 17.2419 4.09375 13.2424C4.09375 9.24325 7.33568 6.00098 11.335 6.00098C15.3344 6.00098 18.5766 9.24325 18.5766 13.2424Z" fill="#D9222A"/>
<path d="M21.0551 6.00098C19.1841 6.00098 17.4792 6.71082 16.194 7.87551C15.9323 8.11285 15.6879 8.36918 15.4628 8.64182H16.9259C17.1259 8.88505 17.3101 9.14088 17.4779 9.40882H14.9108C14.757 9.65507 14.6173 9.9109 14.4936 10.1756H17.8949C18.011 10.4241 18.1136 10.6797 18.2015 10.9423H14.187C14.1033 11.1921 14.0329 11.4477 13.9766 11.7091H18.4118C18.5182 12.2033 18.5748 12.7163 18.5748 13.2424C18.5748 14.0466 18.4435 14.8203 18.2015 15.5427H14.187C14.2748 15.8054 14.3773 16.0613 14.4934 16.3095H17.8949C17.7708 16.5743 17.6315 16.8301 17.4775 17.0765H14.9108C15.0784 17.344 15.2629 17.6001 15.4628 17.8429H16.9255C16.7008 18.116 16.4562 18.3727 16.1942 18.6098C17.4794 19.7744 19.1841 20.4839 21.0551 20.4839C25.0545 20.4839 28.2967 17.2419 28.2967 13.2424C28.2967 9.24342 25.0545 6.00098 21.0551 6.00098Z" fill="#EE9F2D"/>
<path d="M27.332 17.2789C27.332 17.1498 27.4366 17.0449 27.5658 17.0449C27.6951 17.0449 27.7997 17.1498 27.7997 17.2789C27.7997 17.408 27.6951 17.5129 27.5658 17.5129C27.4366 17.5129 27.332 17.408 27.332 17.2789ZM27.5658 17.4567C27.664 17.4567 27.7437 17.3771 27.7437 17.2789C27.7437 17.1806 27.664 17.1012 27.5658 17.1012C27.4675 17.1012 27.3882 17.1806 27.3882 17.2789C27.3882 17.3771 27.4675 17.4567 27.5658 17.4567ZM27.5342 17.3818H27.4863V17.1762H27.5731C27.5912 17.1762 27.6097 17.1762 27.6257 17.1865C27.6423 17.1977 27.6517 17.2175 27.6517 17.2381C27.6517 17.2611 27.6381 17.2826 27.6161 17.291L27.6539 17.3818H27.6008L27.5694 17.3004H27.5342V17.3818ZM27.5342 17.2651H27.5608C27.5707 17.2651 27.5811 17.266 27.59 17.2611C27.5979 17.256 27.602 17.2466 27.602 17.2376C27.602 17.2297 27.5971 17.2206 27.5904 17.2167C27.582 17.2115 27.5687 17.2127 27.5598 17.2127H27.5342V17.2651Z" fill="black"/>
<path d="M9.64599 14.0359C9.56346 14.0263 9.52716 14.0238 9.47051 14.0238C9.02491 14.0238 8.79933 14.1766 8.79933 14.4783C8.79933 14.6644 8.90943 14.7827 9.08121 14.7827C9.40142 14.7827 9.63221 14.4778 9.64599 14.0359ZM10.2177 15.367H9.56632L9.58128 15.0574C9.3826 15.3021 9.11752 15.4184 8.75731 15.4184C8.3312 15.4184 8.03906 15.0856 8.03906 14.6024C8.03906 13.8752 8.5472 13.451 9.41941 13.451C9.5085 13.451 9.6228 13.459 9.73979 13.474C9.76416 13.3755 9.77055 13.3333 9.77055 13.2803C9.77055 13.0823 9.63356 13.0085 9.26628 13.0085C8.88169 13.0042 8.56451 13.1001 8.43424 13.143C8.44248 13.0934 8.54316 12.471 8.54316 12.471C8.93498 12.3562 9.19333 12.313 9.48412 12.313C10.1592 12.313 10.5167 12.6161 10.516 13.1889C10.5174 13.3424 10.492 13.5318 10.4523 13.7807C10.3841 14.2136 10.2377 15.1409 10.2177 15.367Z" fill="black"/>
<path d="M7.7111 15.3669H6.92495L7.37526 12.5431L6.36975 15.3669H5.83405L5.76783 12.5593L5.29449 15.3669H4.55859L5.1733 11.6936H6.30369L6.37228 13.7497L7.06178 11.6936H8.31908L7.7111 15.3669Z" fill="black"/>
<path d="M22.0281 14.0359C21.9459 14.0263 21.9095 14.0238 21.853 14.0238C21.4075 14.0238 21.182 14.1766 21.182 14.4783C21.182 14.6644 21.2919 14.7827 21.4637 14.7827C21.7839 14.7827 22.0149 14.4778 22.0281 14.0359ZM22.6003 15.367H21.949L21.9638 15.0574C21.7651 15.3021 21.4998 15.4184 21.14 15.4184C20.7137 15.4184 20.4219 15.0856 20.4219 14.6024C20.4219 13.8752 20.9297 13.451 21.8021 13.451C21.8911 13.451 22.0053 13.459 22.1221 13.474C22.1465 13.3755 22.1529 13.3333 22.1529 13.2803C22.1529 13.0823 22.016 13.0085 21.6488 13.0085C21.2642 13.0042 20.9473 13.1001 20.8165 13.143C20.8248 13.0934 20.9258 12.471 20.9258 12.471C21.3176 12.3562 21.5758 12.313 21.8663 12.313C22.5416 12.313 22.8992 12.6161 22.8985 13.1889C22.8998 13.3424 22.8745 13.5318 22.8348 13.7807C22.7669 14.2136 22.6201 15.1409 22.6003 15.367Z" fill="black"/>
<path d="M13.7098 15.3198C13.4947 15.3876 13.3269 15.4167 13.1451 15.4167C12.7432 15.4167 12.5238 15.1857 12.5238 14.7604C12.5181 14.6285 12.5816 14.2812 12.6315 13.9642C12.6769 13.6852 12.9724 11.9258 12.9724 11.9258H13.7539L13.6626 12.3779H14.1346L14.028 13.0958H13.5544C13.4636 13.664 13.3343 14.3716 13.3328 14.4654C13.3328 14.6194 13.415 14.6866 13.6019 14.6866C13.6915 14.6866 13.7609 14.6776 13.8139 14.6584L13.7098 15.3198Z" fill="black"/>
<path d="M16.1054 15.2974C15.8369 15.3794 15.5779 15.4191 15.3034 15.4184C14.4287 15.4176 13.9727 14.9607 13.9727 14.0858C13.9727 13.0647 14.5527 12.313 15.3402 12.313C15.9845 12.313 16.396 12.7339 16.396 13.394C16.396 13.613 16.3678 13.8268 16.2997 14.1287H14.7435C14.6909 14.562 14.9682 14.7425 15.4228 14.7425C15.7025 14.7425 15.9548 14.6849 16.2353 14.5545L16.1054 15.2974ZM15.6662 13.5264C15.6705 13.4642 15.749 12.9932 15.3026 12.9932C15.0536 12.9932 14.8756 13.183 14.8032 13.5264H15.6662Z" fill="black"/>
<path d="M10.692 13.324C10.692 13.7019 10.8753 13.9624 11.2908 14.1581C11.6091 14.3077 11.6584 14.3521 11.6584 14.4877C11.6584 14.674 11.518 14.758 11.2069 14.758C10.9724 14.758 10.7542 14.7214 10.5026 14.6402C10.5026 14.6402 10.3992 15.2986 10.3945 15.33C10.5732 15.369 10.7326 15.4052 11.2126 15.4184C12.0421 15.4184 12.4252 15.1026 12.4252 14.42C12.4252 14.0095 12.2649 13.7686 11.871 13.5876C11.5414 13.4363 11.5036 13.4025 11.5036 13.263C11.5036 13.1015 11.6342 13.0191 11.8883 13.0191C12.0426 13.0191 12.2534 13.0356 12.4531 13.064L12.5651 12.3711C12.3615 12.3389 12.0529 12.313 11.8732 12.313C10.9938 12.313 10.6894 12.7724 10.692 13.324Z" fill="black"/>
<path d="M19.9323 12.3908C20.1507 12.3908 20.3542 12.4481 20.6347 12.5893L20.7633 11.7921C20.6482 11.7469 20.2428 11.4814 19.8994 11.4814C19.3732 11.4814 18.9285 11.7425 18.6157 12.1733C18.1595 12.0222 17.9719 12.3276 17.7419 12.6318L17.5377 12.6794C17.5532 12.5792 17.5671 12.4797 17.5624 12.379H16.8405C16.7418 13.3035 16.567 14.24 16.4302 15.1656L16.3945 15.3663H17.181C17.3123 14.5134 17.3842 13.9673 17.4279 13.5977L17.7241 13.433C17.7683 13.2684 17.9068 13.2128 18.1847 13.2195C18.1484 13.4145 18.1289 13.6195 18.1289 13.832C18.1289 14.8093 18.6562 15.4178 19.5025 15.4178C19.7205 15.4178 19.9076 15.389 20.1972 15.3105L20.3355 14.4731C20.075 14.6013 19.8612 14.6617 19.6676 14.6617C19.2105 14.6617 18.934 14.3243 18.934 13.7668C18.934 12.9579 19.3453 12.3908 19.9323 12.3908Z" fill="black"/>
<path d="M7.93376 15.1476H7.14744L7.59809 12.3242L6.59258 15.1476H6.05671L5.99048 12.3403L5.51714 15.1476H4.78125L5.39595 11.4749H6.52635L6.55812 13.7486L7.32074 11.4749H8.54174L7.93376 15.1476Z" fill="white"/>
<path d="M26.5853 11.6936L26.411 12.7549C26.196 12.472 25.965 12.2673 25.6601 12.2673C25.2634 12.2673 24.9024 12.568 24.666 13.0106C24.3369 12.9423 23.9965 12.8265 23.9965 12.8265L23.9964 12.8292C24.0229 12.5818 24.0335 12.4308 24.0312 12.3796H23.3091C23.2107 13.3041 23.0359 14.2405 22.8993 15.1662L22.8633 15.3669H23.6496C23.7558 14.6772 23.8372 14.1045 23.897 13.6503C24.1656 13.4076 24.3001 13.1958 24.5716 13.2099C24.4514 13.5006 24.381 13.8354 24.381 14.1788C24.381 14.9256 24.7588 15.4183 25.3303 15.4183C25.6184 15.4183 25.8395 15.3189 26.0551 15.0887L26.0183 15.3664H26.7619L27.3607 11.6936H26.5853ZM25.6021 14.6765C25.3345 14.6765 25.1994 14.4785 25.1994 14.0877C25.1994 13.5006 25.4524 13.0842 25.809 13.0842C26.0792 13.0842 26.2254 13.2901 26.2254 13.6695C26.2254 14.2617 25.9684 14.6765 25.6021 14.6765Z" fill="black"/>
<path d="M9.87222 13.8173C9.78986 13.8077 9.75338 13.8052 9.6969 13.8052C9.2513 13.8052 9.02589 13.958 9.02589 14.2597C9.02589 14.4455 9.13599 14.5641 9.30744 14.5641C9.62799 14.5641 9.85877 14.2592 9.87222 13.8173ZM10.4442 15.1479H9.79288L9.80767 14.8388C9.60916 15.083 9.34375 15.1999 8.98387 15.1999C8.5576 15.1999 8.26562 14.867 8.26562 14.3838C8.26562 13.6563 8.77359 13.2324 9.64597 13.2324C9.73506 13.2324 9.84936 13.2404 9.96618 13.2554C9.99056 13.1569 9.99694 13.1147 9.99694 13.0614C9.99694 12.8634 9.86012 12.79 9.49284 12.79C9.10809 12.7856 8.79107 12.8816 8.66063 12.9239C8.66887 12.8745 8.76956 12.2527 8.76956 12.2527C9.1612 12.1374 9.41989 12.0942 9.71035 12.0942C10.3856 12.0942 10.7433 12.3975 10.7426 12.9698C10.7438 13.124 10.7182 13.3132 10.6787 13.5618C10.6106 13.9945 10.4641 14.9223 10.4442 15.1479Z" fill="white"/>
<path d="M20.9862 11.5736L20.8574 12.371C20.5771 12.23 20.3733 12.1725 20.1552 12.1725C19.5682 12.1725 19.1567 12.7396 19.1567 13.5485C19.1567 14.106 19.4334 14.4432 19.8902 14.4432C20.0839 14.4432 20.2975 14.383 20.5581 14.2546L20.4201 15.0917C20.1303 15.1707 19.9434 15.1994 19.7252 15.1994C18.879 15.1994 18.3516 14.591 18.3516 13.6137C18.3516 12.3006 19.0801 11.3828 20.122 11.3828C20.4653 11.3828 20.8709 11.5284 20.9862 11.5736Z" fill="white"/>
<path d="M22.255 13.8173C22.1727 13.8077 22.1364 13.8052 22.0797 13.8052C21.6343 13.8052 21.4087 13.958 21.4087 14.2597C21.4087 14.4455 21.5188 14.5641 21.6904 14.5641C22.0106 14.5641 22.2416 14.2592 22.255 13.8173ZM22.827 15.1479H22.1755L22.1905 14.8388C21.9918 15.083 21.7266 15.1999 21.3667 15.1999C20.9406 15.1999 20.6484 14.867 20.6484 14.3838C20.6484 13.6563 21.1566 13.2324 22.0286 13.2324C22.1179 13.2324 22.232 13.2404 22.349 13.2554C22.3732 13.1569 22.3798 13.1147 22.3798 13.0614C22.3798 12.8634 22.2429 12.79 21.8757 12.79C21.4911 12.7856 21.1739 12.8816 21.0434 12.9239C21.0517 12.8745 21.1525 12.2527 21.1525 12.2527C21.5442 12.1374 21.8027 12.0942 22.0932 12.0942C22.7685 12.0942 23.1261 12.3975 23.1252 12.9698C23.1266 13.124 23.1012 13.3132 23.0615 13.5618C22.9936 13.9945 22.8467 14.9223 22.827 15.1479Z" fill="white"/>
<path d="M13.9403 15.1029C13.725 15.1706 13.5572 15.2 13.3755 15.2C12.9736 15.2 12.7542 14.9691 12.7542 14.5438C12.7487 14.4115 12.8122 14.0646 12.8622 13.7476C12.9074 13.4682 13.2029 11.709 13.2029 11.709H13.9842L13.893 12.1613H14.2941L14.1874 12.8789H13.785C13.6942 13.4474 13.5646 14.1545 13.5633 14.2485C13.5633 14.4029 13.6456 14.4697 13.8324 14.4697C13.922 14.4697 13.9912 14.4609 14.0443 14.4418L13.9403 15.1029Z" fill="white"/>
<path d="M16.3358 15.0788C16.0676 15.1609 15.8082 15.2004 15.5339 15.1999C14.6592 15.199 14.2031 14.7421 14.2031 13.8672C14.2031 12.8458 14.7832 12.0942 15.5707 12.0942C16.215 12.0942 16.6265 12.515 16.6265 13.1754C16.6265 13.3946 16.5982 13.6084 16.5303 13.9101H14.9741C14.9215 14.3434 15.1989 14.5241 15.6534 14.5241C15.9329 14.5241 16.1854 14.4663 16.4658 14.3355L16.3358 15.0788ZM15.8965 13.3073C15.9012 13.2453 15.9795 12.7742 15.5329 12.7742C15.2841 12.7742 15.1061 12.9644 15.0337 13.3073H15.8965Z" fill="white"/>
<path d="M10.9145 13.1055C10.9145 13.4833 11.0978 13.7435 11.5133 13.9395C11.8316 14.0891 11.8809 14.1337 11.8809 14.2691C11.8809 14.4554 11.7404 14.5394 11.4296 14.5394C11.1949 14.5394 10.9767 14.5028 10.7249 14.4216C10.7249 14.4216 10.6219 15.08 10.6172 15.1114C10.7955 15.1504 10.955 15.1861 11.4351 15.1999C12.2648 15.1999 12.6477 14.884 12.6477 14.2016C12.6477 13.7909 12.4875 13.5501 12.0935 13.369C11.7641 13.2174 11.7259 13.1841 11.7259 13.0444C11.7259 12.8831 11.8568 12.8 12.1108 12.8C12.265 12.8 12.4757 12.817 12.6758 12.8454L12.7876 12.1524C12.5842 12.1201 12.2756 12.0942 12.0959 12.0942C11.2163 12.0942 10.912 12.5533 10.9145 13.1055Z" fill="white"/>
<path d="M26.9863 15.1476H26.2425L26.2795 14.8696C26.0638 15.1002 25.8428 15.1995 25.5547 15.1995C24.9832 15.1995 24.6055 14.7069 24.6055 13.9601C24.6055 12.9665 25.1913 12.1289 25.8846 12.1289C26.1895 12.1289 26.4203 12.2534 26.6351 12.5362L26.8096 11.4749H27.585L26.9863 15.1476ZM25.8266 14.4574C26.1927 14.4574 26.4499 14.0426 26.4499 13.4507C26.4499 13.0714 26.3035 12.8655 26.0334 12.8655C25.6769 12.8655 25.4236 13.2816 25.4236 13.8689C25.4236 14.2598 25.559 14.4574 25.8266 14.4574Z" fill="white"/>
<path d="M23.5397 12.1614C23.4412 13.0859 23.2664 14.0223 23.1297 14.9475L23.0938 15.1482H23.8801C24.1613 13.3217 24.2294 12.965 24.6703 13.0097C24.7405 12.6359 24.8713 12.3085 24.9688 12.1432C24.6395 12.0746 24.4556 12.2607 24.2149 12.6142C24.2339 12.4614 24.2687 12.313 24.2618 12.1614H23.5397Z" fill="white"/>
<path d="M17.0631 12.1614C16.9645 13.0859 16.7896 14.0223 16.653 14.9475L16.6172 15.1482H17.4038C17.6847 13.3217 17.7526 12.965 18.1934 13.0097C18.264 12.6359 18.3947 12.3085 18.4919 12.1432C18.1629 12.0746 17.9789 12.2607 17.7383 12.6142C17.7573 12.4614 17.7918 12.313 17.7852 12.1614H17.0631Z" fill="white"/>
<path d="M27.332 14.9151C27.332 14.7855 27.4368 14.6812 27.5658 14.6812C27.6951 14.6812 27.7997 14.7855 27.7997 14.9151C27.7997 15.0441 27.6951 15.1489 27.5658 15.1489C27.4368 15.1489 27.332 15.0441 27.332 14.9151ZM27.5658 15.0928C27.6642 15.0928 27.7435 15.0131 27.7435 14.9151C27.7435 14.817 27.6642 14.7373 27.5658 14.7373C27.4677 14.7373 27.388 14.817 27.388 14.9151C27.388 15.0131 27.4677 15.0928 27.5658 15.0928ZM27.5342 15.0173H27.4863V14.8123H27.5732C27.5912 14.8123 27.6099 14.8126 27.6255 14.8225C27.6423 14.8339 27.6519 14.8534 27.6519 14.8739C27.6519 14.8971 27.6383 14.9188 27.6161 14.9271L27.6541 15.0173H27.6008L27.5694 14.9363H27.5342V15.0173ZM27.5342 14.9012H27.5606C27.5706 14.9012 27.5813 14.9019 27.59 14.8971C27.5979 14.8921 27.602 14.8825 27.602 14.8734C27.602 14.8659 27.5973 14.8568 27.5904 14.8523C27.5821 14.8476 27.5685 14.8489 27.5596 14.8489H27.5342V14.9012Z" fill="white"/>
</svg>
