<svg width="32" height="26" viewBox="0 0 32 26" fill="none" xmlns="http://www.w3.org/2000/svg">
<path d="M31.836 3.30101V22.6989C31.836 24.1594 30.6512 25.3443 29.1909 25.3443H2.73893C1.27857 25.3443 0.09375 24.1594 0.09375 22.6989V3.30101C0.09375 1.84058 1.27857 0.655762 2.73893 0.655762H29.1909C30.6512 0.655762 31.836 1.84065 31.836 3.30101Z" fill="#0353A5"/>
<path d="M27.4073 8.59204H25.6934C25.1644 8.59204 24.762 8.74641 24.5361 9.30293L21.2461 17.1557H23.5717C23.5717 17.1557 23.952 16.0977 24.0346 15.8718H26.8782C26.9442 16.1749 27.1427 17.1557 27.1427 17.1557H29.1927L27.4073 8.59204ZM24.6739 14.1194C24.8558 13.629 25.5556 11.7223 25.5556 11.7223C25.5446 11.7388 25.7375 11.2207 25.8477 10.9011L26.0019 11.6396C26.0019 11.6396 26.4208 13.6896 26.5145 14.1194H24.6739V14.1194Z" fill="white"/>
<path d="M9.63678 8.59204L7.47105 14.4335L7.23402 13.2487L6.46247 9.31391C6.33571 8.76835 5.94445 8.61405 5.45948 8.59204H1.89411L1.85547 8.7629C2.72618 8.98337 3.50325 9.303 4.18102 9.70523L6.15395 17.1449H8.49598L11.9788 8.59211H9.63678V8.59204Z" fill="white"/>
<path d="M12.8754 8.59204L11.4922 17.1558H13.7022L15.0908 8.59204H12.8754Z" fill="white"/>
<path d="M19.5513 12.0243C18.7743 11.6331 18.3004 11.3685 18.3004 10.9663C18.3113 10.6025 18.7026 10.2278 19.5734 10.2278C20.2952 10.2112 20.8243 10.3821 21.221 10.5529L21.4195 10.6466L21.7225 8.79495C21.2871 8.62402 20.5929 8.43115 19.7386 8.43115C17.5509 8.43115 16.0134 9.59955 16.0024 11.2637C15.9858 12.4927 17.1044 13.1761 17.9421 13.5893C18.7963 14.008 19.0883 14.2837 19.0883 14.6529C19.0774 15.2261 18.3939 15.4906 17.7602 15.4906C16.8785 15.4906 16.4045 15.3527 15.6828 15.0333L15.3906 14.8954L15.082 16.8186C15.5999 17.0556 16.5589 17.2651 17.5508 17.2762C19.8764 17.2816 21.3919 16.1297 21.4084 14.3553C21.4195 13.38 20.8244 12.636 19.5513 12.0243Z" fill="white"/>
</svg>
