<svg width="20" height="23" viewBox="0 0 20 23" fill="none" xmlns="http://www.w3.org/2000/svg">
<path d="M18.8203 18.1451C17.9493 17.6089 17.4082 16.6407 17.4082 15.6179V11.1055C17.4082 9.14478 16.6447 7.30159 15.2583 5.91554C14.5033 5.16081 13.5904 4.57842 12.5947 4.21302V3.52638C12.5947 2.85144 12.332 2.21692 11.8546 1.73983C11.3773 1.26274 10.743 1 10.0684 1C8.67539 1 7.54198 2.13341 7.54198 3.52638V4.21249C6.23863 4.69224 5.0757 5.54775 4.2287 6.65829C3.2474 7.94541 2.72856 9.48305 2.72856 11.1055V15.6179C2.72856 16.6407 2.18738 17.6089 1.31645 18.1451C1.06301 18.3009 0.944137 18.6062 1.02525 18.8923C1.10609 19.1785 1.36751 19.3761 1.66482 19.3761H6.83858C6.96676 20.0058 7.27684 20.5845 7.74249 21.0483C8.36451 21.6676 9.19051 22.0088 10.0684 22.0088C10.9462 22.0088 11.7722 21.6676 12.3942 21.0483C12.8599 20.5845 13.17 20.0058 13.2981 19.3761H18.4719C18.7692 19.3761 19.0306 19.1785 19.1115 18.8923C19.1926 18.6062 19.0737 18.3009 18.8203 18.1451ZM10.0684 20.6792C9.22322 20.6792 8.49907 20.1409 8.22224 19.3894H11.9145C11.6376 20.1409 10.9135 20.6792 10.0684 20.6792ZM8.87165 3.52638C8.87165 2.8666 9.40857 2.32967 10.0684 2.32967C10.388 2.32967 10.6885 2.45413 10.9146 2.68017C11.1406 2.90622 11.2651 3.20673 11.2651 3.52638V3.86305C11.2159 3.85507 11.1667 3.84736 11.1172 3.84018C11.0677 3.83327 11.0183 3.82662 10.9685 3.8205C10.9183 3.81439 10.868 3.8088 10.8175 3.80348C10.7933 3.80109 10.7691 3.79896 10.7446 3.79657C10.7199 3.79444 10.6949 3.79231 10.6699 3.79019C10.5662 3.78168 10.4622 3.77556 10.358 3.77131C10.3404 3.77077 10.3231 3.76998 10.3058 3.76944C10.2768 3.76865 10.2481 3.76785 10.2191 3.76732C10.2019 3.76678 10.1843 3.76652 10.1668 3.76652C10.134 3.76599 10.1011 3.76572 10.0684 3.76572C10.0354 3.76572 10.0024 3.76599 9.96943 3.76652C9.95214 3.76652 9.93486 3.76678 9.91757 3.76732C9.88832 3.76785 9.85907 3.76865 9.82981 3.76971C9.81386 3.76997 9.79763 3.77077 9.78141 3.77131C9.64898 3.77636 9.51681 3.78513 9.38517 3.7971C9.36655 3.79896 9.34767 3.80082 9.32906 3.80269C9.3131 3.80428 9.29714 3.80588 9.28119 3.80774C9.26257 3.8096 9.24396 3.81173 9.22534 3.81385C9.20619 3.81598 9.18731 3.81838 9.16843 3.8205C9.12296 3.82609 9.07775 3.83194 9.03254 3.83832C9.02829 3.83912 9.02403 3.83965 9.01978 3.84018C8.97031 3.84736 8.92085 3.85507 8.87165 3.86305V3.52638ZM3.3059 18.0464C3.37957 17.939 3.44844 17.8281 3.51227 17.714C3.86942 17.0747 4.05823 16.35 4.05823 15.6179V11.1055C4.05823 8.44564 5.84026 6.07164 8.3919 5.33208C8.93388 5.17517 9.49793 5.09539 10.0684 5.09539C10.6393 5.09539 11.2031 5.17517 11.7445 5.33234C11.7453 5.33261 11.7461 5.33287 11.7469 5.33287C12.7131 5.61343 13.6021 6.13999 14.318 6.85588C15.4533 7.99089 16.0785 9.50007 16.0785 11.1055V15.6179C16.0785 16.35 16.2673 17.0747 16.6244 17.714C16.6883 17.8281 16.7571 17.939 16.8308 18.0464H3.3059Z" fill="#5756C8" stroke="#5756C8" stroke-width="0.3"/>
</svg>
