<svg width="6" height="12" viewBox="0 0 6 12" fill="none" xmlns="http://www.w3.org/2000/svg">
<path d="M6 6.00311C6 6.11077 5.98232 6.21015 5.94696 6.30124C5.90766 6.39234 5.84872 6.4793 5.77014 6.56211L1.17878 11.295C1.04519 11.4317 0.884085 11.5 0.69548 11.5C0.565814 11.5 0.449901 11.4669 0.34774 11.4006C0.241649 11.3385 0.15717 11.2536 0.0943013 11.146C0.0314331 11.0383 -1.37947e-06 10.9161 -1.36752e-06 10.7795C-1.35051e-06 10.5849 0.0726906 10.411 0.218073 10.2578L4.3556 6.00311L0.218074 1.74845C0.0726914 1.59524 -5.49225e-07 1.41926 -5.31849e-07 1.2205C-5.20265e-07 1.08799 0.031434 0.967909 0.0943022 0.860249C0.157171 0.748448 0.24165 0.661492 0.347741 0.59938C0.449902 0.533127 0.565815 0.5 0.695481 0.5C0.884086 0.500001 1.04519 0.570394 1.17878 0.711181L5.77014 5.4441C5.84872 5.52692 5.90766 5.61387 5.94696 5.70497C5.98232 5.79607 6 5.89545 6 6.00311Z" fill="#272682"/>
</svg>
