<svg width="104" height="104" viewBox="0 0 104 104" fill="none" xmlns="http://www.w3.org/2000/svg">
<path d="M69.55 10.3596C63.5578 10.9893 57.3219 13.7924 52.65 17.9565C51.9391 18.5861 51.3094 19.094 51.2078 19.094C51.1266 19.094 50.4157 18.6065 49.6438 18.0174C44.3828 13.9549 38.1875 11.7408 31.9922 11.7408C29.0266 11.7205 26.9344 12.0252 24.375 12.8377C15.1328 15.7627 8.08441 24.0299 6.68284 33.5158C6.31722 36.0955 6.56097 40.8283 7.19066 43.3877C8.26722 47.7346 10.5219 52.244 13.2438 55.5143L14.0563 56.5096L13.5485 57.5455C12.025 60.5924 12.4313 63.5986 14.686 65.8533C16.1891 67.3565 17.2047 67.7424 19.5407 67.7424C21.2063 67.7424 21.511 67.783 21.4297 68.0471C20.7594 70.383 21.8157 73.3893 23.8672 75.0143C25.3703 76.2127 27.5438 76.7815 29.1485 76.4158L29.961 76.233V78.183C29.961 79.9096 30.0219 80.2549 30.5094 81.1486C31.2203 82.5096 32.4391 83.7486 33.7594 84.4393C34.7141 84.9471 35.0391 85.008 36.786 85.008H38.7157L38.5532 85.983C37.9438 89.3143 40.625 93.0111 44.1594 93.6611C46.3125 94.0471 48.8719 93.1533 50.9641 91.2846C51.8578 90.4721 52.1016 90.3502 52.3657 90.5533C54.9047 92.3408 57.8703 92.7471 60.2266 91.6096C61.5266 90.9799 63.2532 89.0299 63.7 87.7096C64.0453 86.633 64.1672 84.7643 63.9235 83.9924C63.8016 83.6065 63.8828 83.5861 65.7719 83.5861C67.5188 83.5861 67.8641 83.5252 68.7782 83.0377C70.1797 82.3065 71.7641 80.519 72.3125 79.0565C72.6782 78.1018 72.7391 77.6143 72.6578 76.3549L72.5563 74.8111L73.4094 74.994C75.2985 75.4205 77.3907 74.7502 79.0766 73.1455C80.7828 71.5205 81.5547 69.4893 81.25 67.2955L81.1282 66.4627L82.5703 66.5643C84.5 66.7065 85.7797 66.2799 87.1407 65.0611C88.6844 63.6596 89.2532 62.4408 89.2532 60.4299C89.2532 59.1908 89.1516 58.5611 88.8063 57.8299L88.3797 56.8549L89.8219 55.1893C93.275 51.208 95.4079 47.1861 96.7282 42.2502C97.5407 39.2236 97.7438 34.5518 97.2157 31.4846C95.6922 22.7299 89.5375 15.2549 81.1485 11.9236C77.8172 10.6033 73.2063 9.97364 69.55 10.3596ZM76.3344 12.6955C85.2719 14.4018 92.4828 21.1658 94.7985 30.0221C95.5094 32.7643 95.6516 36.7252 95.1641 39.6299C94.3313 44.6674 92.1985 49.1768 88.6235 53.4627C87.8922 54.3361 87.2828 55.0471 87.2625 55.0471C87.2422 55.0471 81.1891 49.0143 73.836 41.6408C63.436 31.2408 60.3282 28.2346 59.9422 28.2346C59.5563 28.2346 58.2157 29.433 54.4578 33.1908C48.9125 38.6955 48.1407 39.2643 46.0078 39.2643C43.2657 39.2643 41.0516 36.8268 41.2953 34.1049C41.4782 32.0736 41.986 31.4236 48.8313 24.6393C53.9703 19.5205 55.5141 18.119 57.0782 17.083C60.45 14.869 64.1266 13.3455 67.5594 12.7158C69.7532 12.3299 74.3032 12.3096 76.3344 12.6955ZM34.775 13.9143C38.9594 14.2596 44.0172 16.3315 48.0797 19.3783L49.725 20.6174L45.236 25.1877C41.3766 29.0877 40.625 29.9611 40.0157 31.1799C39.3657 32.4799 39.3047 32.744 39.3047 34.4299C39.3047 35.933 39.386 36.4205 39.7719 37.2127C41.1938 40.1174 44.2203 41.7627 47.125 41.2346C49.4203 40.808 50.1516 40.2799 55.1485 35.3236L59.8203 30.6721L72.9625 43.8346C82.3672 53.2393 86.2469 57.2611 86.6125 57.9518C87.6282 59.8815 87.5063 61.6893 86.2875 63.0908C85.3125 64.1877 84.236 64.6549 82.8953 64.5533C80.6407 64.3908 80.4375 64.2283 70.6875 54.4986C65.711 49.5627 61.5063 45.5002 61.3641 45.5002C60.7953 45.5002 60.3282 45.9268 60.3282 46.4752C60.3282 46.9221 61.9532 48.6486 69.4485 56.1643C79.4422 66.1986 79.2188 65.9143 79.2188 68.3924C79.2188 70.9111 77.025 73.0236 74.4453 73.0033C72.15 72.983 71.9266 72.8002 62.0547 62.9486C57.1188 58.0533 52.9953 54.0315 52.8328 54.0315C52.2641 54.0315 51.7969 54.458 51.7969 55.0065C51.7969 55.4533 53.361 57.119 60.6125 64.3908C69.9563 73.7752 70.3828 74.2627 70.6266 76.3346C70.6875 76.8627 70.6266 77.6549 70.5047 78.1221C70.2203 79.1986 68.9 80.6815 67.7219 81.2502C66.0766 82.0627 63.7813 81.5752 61.9125 80.0315C61.161 79.4018 61.161 79.4018 61.161 77.8986C61.161 76.7002 61.0594 76.1518 60.6735 75.2783C59.536 72.8002 57.0172 71.0533 54.6 71.033C53.8891 71.033 53.1375 71.094 52.9141 71.1549C52.5078 71.2971 52.4875 71.2158 52.5078 69.4283C52.5078 67.7627 52.4469 67.3971 51.9391 66.4018C51.2891 65.0408 49.725 63.5174 48.3844 62.908C47.6125 62.5424 47.0641 62.4611 45.5813 62.4611L43.7328 62.4815L43.936 61.5877C44.3219 59.719 43.4485 57.2815 41.8235 55.758C40.2188 54.2549 39.4063 53.9299 37.1719 53.9299H35.2422V52.0002C35.2422 50.3752 35.161 49.9283 34.775 49.1768C34.0438 47.8361 32.6422 46.4549 31.3422 45.8049C30.3469 45.2971 29.9203 45.2158 28.5188 45.1955C27.036 45.1955 26.7516 45.2565 25.2891 45.9877C23.8469 46.6986 23.2375 47.2268 19.5407 50.8627L15.3969 54.9455L14.7875 54.2346C11.9844 50.9236 9.60784 45.744 8.81566 41.2346C8.36878 38.6143 8.51097 33.9018 9.12034 31.6268C10.2578 27.3205 12.086 24.1315 15.2344 20.9018C19.3782 16.6768 24.1922 14.3205 29.7172 13.833C31.5453 13.6705 31.9516 13.6705 34.775 13.9143ZM30.6313 47.7143C31.5657 48.2018 32.6422 49.3596 33.0485 50.3549C33.4547 51.3299 33.2922 53.2596 32.7032 54.4377C32.4188 55.0268 30.5907 57.0174 27.6453 59.983C22.4453 65.2236 21.6125 65.8127 19.4594 65.8127C17.9969 65.8127 17.0422 65.3658 15.9047 64.1268C14.5641 62.6846 14.3203 61.1815 15.0516 59.1705C15.4578 58.1143 15.9453 57.5252 20.1907 53.2596C22.7703 50.6596 25.1875 48.3236 25.5532 48.1002C27.2188 47.0643 29.0875 46.9221 30.6313 47.7143ZM38.8578 56.1236C40.6453 56.8752 41.9047 58.7033 41.9047 60.5518C41.9047 62.7658 41.275 63.6596 36.0141 68.8799C31.261 73.5924 30.55 74.1205 28.7219 74.4252C27.4828 74.6486 26.1422 74.2221 25.086 73.2877C23.8266 72.1705 23.2985 71.094 23.2985 69.6111C23.3188 67.4783 23.8875 66.6658 28.8235 61.7299C33.0282 57.5049 34.1047 56.5908 35.4453 56.1033C36.3188 55.7986 38.086 55.819 38.8578 56.1236ZM47.6328 64.8783C49.5219 65.7518 50.7203 67.7221 50.5375 69.6315C50.3547 71.5815 49.8063 72.3127 44.8094 77.3096C39.7719 82.3471 39.061 82.8752 37.05 83.0377C35.6485 83.1596 34.6532 82.794 33.5563 81.7783C31.7688 80.133 31.4235 78.2643 32.5203 75.969C33.0485 74.8315 33.7594 74.0393 37.6391 70.1596C41.925 65.8736 42.9407 65.0611 44.4844 64.5736C45.4391 64.2893 46.6172 64.3908 47.6328 64.8783ZM56.9766 73.8971C57.4235 74.2018 58.0532 74.8518 58.3782 75.319C58.886 76.0299 59.0078 76.4361 59.0688 77.6143C59.211 79.9908 58.825 80.5596 53.4422 85.9627C48.3032 91.1221 47.511 91.6705 45.2969 91.6705C42.7578 91.6705 40.5438 89.4768 40.5438 86.9377C40.5438 84.744 41.1125 83.9315 46.2719 78.7924C49.2172 75.8471 51.2078 74.019 51.7766 73.7346C53.6047 72.8205 55.4938 72.8815 56.9766 73.8971ZM60.8766 82.1236C62.0344 83.8299 62.3594 85.9627 61.6485 87.344C61.161 88.319 60.1657 89.3346 59.2313 89.8221C57.7688 90.5736 55.4328 90.2486 53.9297 89.1111C53.5438 88.8065 53.6453 88.6643 56.6922 85.5768C58.4391 83.8096 59.9422 82.144 60.0032 81.9002C60.2063 81.2908 60.3485 81.3315 60.8766 82.1236Z" fill="#5756C8" stroke="#5756C8" stroke-width="2"/>
</svg>
