<svg width="19" height="24" viewBox="0 0 19 24" fill="none" xmlns="http://www.w3.org/2000/svg">
<path d="M9.58075 1C4.93479 1 1 4.84118 1 9.39051C1 14.155 5.56096 19.0275 8.62875 22.452C8.64079 22.4658 9.13663 23 9.74721 23H9.80104C10.4123 23 10.9046 22.4658 10.9167 22.452C13.7953 19.2399 18 13.9426 18 9.39051C18 4.84049 14.9308 1 9.58075 1ZM9.86479 21.5294C9.84 21.5535 9.80387 21.5803 9.772 21.603C9.73942 21.581 9.704 21.5535 9.67779 21.5294L9.30733 21.1155C6.39892 17.8773 2.41596 13.4421 2.41596 9.38982C2.41596 5.58646 5.69696 2.37367 9.58004 2.37367C14.4173 2.37367 16.5826 5.89722 16.5826 9.38982C16.5826 12.4658 14.3223 16.551 9.86479 21.5294ZM9.52479 5.16294C7.17808 5.16294 5.27479 7.00962 5.27479 9.28807C5.27479 11.5665 7.17808 13.4132 9.52479 13.4132C11.8715 13.4132 13.7748 11.5658 13.7748 9.28807C13.7748 7.01031 11.8722 5.16294 9.52479 5.16294ZM9.52479 12.0382C7.96221 12.0382 6.65887 10.7745 6.65887 9.25782C6.65887 7.74115 7.92963 6.50773 9.49221 6.50773C11.0555 6.50773 12.3255 7.74115 12.3255 9.25782C12.3263 10.7745 11.0881 12.0382 9.52479 12.0382Z" fill="#5756C8" stroke="#5756C8" stroke-width="0.4"/>
</svg>
