<svg width="104" height="104" viewBox="0 0 104 104" fill="none" xmlns="http://www.w3.org/2000/svg">
<path d="M52 73.6663V69.333" stroke="#5756C8" stroke-width="4.5" stroke-linecap="round" stroke-linejoin="round"/>
<path d="M51.7834 65H52.2168" stroke="#5756C8" stroke-width="4.5" stroke-linecap="round" stroke-linejoin="round"/>
<path d="M73.6666 43.3333H30.3333V34.6667C30.3333 28.9203 32.616 23.4093 36.6793 19.346C40.7426 15.2827 46.2536 13 51.9999 13C55.7989 12.9957 59.5322 13.9903 62.8255 15.8842C66.1187 17.778 68.8562 20.5044 70.7632 23.79" stroke="#5756C8" stroke-width="4.5" stroke-linecap="round" stroke-linejoin="round"/>
<path d="M82.3334 47.6663V59.4097C82.4577 67.4558 79.4641 75.2379 73.9795 81.1264C68.4949 87.0149 60.9447 90.553 52.9101 90.9997C48.8507 91.1215 44.8083 90.427 41.0224 88.9572C37.2365 87.4875 33.7843 85.2724 30.8705 82.4435C27.9567 79.6146 25.6406 76.2293 24.0596 72.4885C22.4786 68.7477 21.6649 64.7275 21.6668 60.6663V47.6663C21.6668 46.5171 22.1233 45.4149 22.936 44.6022C23.7486 43.7896 24.8508 43.333 26.0001 43.333H78.0001C79.1494 43.333 80.2516 43.7896 81.0642 44.6022C81.8769 45.4149 82.3334 46.5171 82.3334 47.6663Z" stroke="#5756C8" stroke-width="4.5" stroke-linecap="round" stroke-linejoin="round"/>
</svg>
