<svg width="29" height="29" viewBox="0 0 29 29" fill="none" xmlns="http://www.w3.org/2000/svg">
<path d="M7.52793 7.68301C7.73639 7.47455 7.9871 7.37032 8.28007 7.37032C8.5843 7.37032 8.83783 7.47173 9.04066 7.67456L14.5085 13.1424L19.9678 7.68301C20.1706 7.48019 20.4185 7.37877 20.7115 7.37877C21.0101 7.37314 21.2636 7.47455 21.4721 7.68301C21.6805 7.89147 21.7819 8.145 21.7763 8.4436C21.7819 8.7422 21.6833 8.99291 21.4805 9.19574L16.0212 14.6551L21.4805 20.1144C21.6833 20.3172 21.7819 20.568 21.7763 20.8666C21.7819 21.1652 21.6805 21.4187 21.4721 21.6272C21.2636 21.8356 21.0101 21.937 20.7115 21.9314C20.4185 21.9314 20.1706 21.83 19.9678 21.6272L14.5085 16.1678L9.04066 21.6356C8.83783 21.8384 8.58712 21.937 8.28852 21.9314C7.98992 21.937 7.73639 21.8356 7.52793 21.6272C7.31947 21.4187 7.21806 21.1652 7.22369 20.8666C7.22369 20.5736 7.3251 20.3257 7.52793 20.1229L12.9957 14.6551L7.52793 9.18729C7.3251 8.98446 7.22087 8.73375 7.21524 8.43515C7.21524 8.14218 7.31947 7.89147 7.52793 7.68301Z" fill="#181B1F"/>
</svg>
